G04 EAGLE Gerber RS-274X export*
G75*
%MOMM*%
%FSLAX34Y34*%
%LPD*%
%INTop Copper*%
%IPPOS*%
%AMOC8*
5,1,8,0,0,1.08239X$1,22.5*%
G01*
%ADD10C,1.422400*%
%ADD11R,1.100000X1.000000*%
%ADD12C,0.300000*%
%ADD13C,1.879600*%
%ADD14R,1.000000X1.100000*%
%ADD15C,0.762000*%
%ADD16R,1.270000X0.558800*%
%ADD17R,0.558800X1.270000*%
%ADD18R,3.000000X1.200000*%
%ADD19R,1.200000X0.550000*%
%ADD20R,0.495000X0.250000*%
%ADD21R,0.600000X0.250000*%
%ADD22R,0.250000X0.495000*%
%ADD23R,0.250000X0.600000*%
%ADD24R,0.350000X0.500000*%
%ADD25C,0.254000*%
%ADD26C,0.450000*%
%ADD27R,4.600000X1.000000*%
%ADD28R,3.400000X1.600000*%
%ADD29C,0.152400*%
%ADD30C,0.685800*%
%ADD31C,0.705600*%

G36*
X61358Y132092D02*
X61358Y132092D01*
X61430Y132094D01*
X61479Y132112D01*
X61530Y132120D01*
X61594Y132154D01*
X61661Y132179D01*
X61702Y132211D01*
X61748Y132236D01*
X61797Y132288D01*
X61853Y132332D01*
X61881Y132376D01*
X61917Y132414D01*
X61947Y132479D01*
X61986Y132539D01*
X61999Y132590D01*
X62021Y132637D01*
X62029Y132708D01*
X62046Y132778D01*
X62042Y132830D01*
X62048Y132881D01*
X62033Y132952D01*
X62027Y133023D01*
X62007Y133071D01*
X61996Y133122D01*
X61959Y133183D01*
X61931Y133249D01*
X61886Y133305D01*
X61869Y133333D01*
X61852Y133348D01*
X61826Y133380D01*
X58459Y136747D01*
X56641Y141135D01*
X56641Y145885D01*
X58459Y150273D01*
X61817Y153631D01*
X66205Y155449D01*
X70955Y155449D01*
X75343Y153631D01*
X78701Y150273D01*
X80519Y145885D01*
X80519Y141135D01*
X78701Y136747D01*
X75334Y133380D01*
X75292Y133322D01*
X75243Y133270D01*
X75221Y133223D01*
X75191Y133181D01*
X75170Y133112D01*
X75139Y133047D01*
X75134Y132995D01*
X75118Y132945D01*
X75120Y132874D01*
X75112Y132803D01*
X75123Y132752D01*
X75125Y132700D01*
X75149Y132632D01*
X75164Y132562D01*
X75191Y132517D01*
X75209Y132469D01*
X75254Y132413D01*
X75291Y132351D01*
X75330Y132317D01*
X75363Y132277D01*
X75423Y132238D01*
X75478Y132191D01*
X75526Y132172D01*
X75570Y132144D01*
X75639Y132126D01*
X75706Y132099D01*
X75777Y132091D01*
X75808Y132083D01*
X75832Y132085D01*
X75872Y132081D01*
X86688Y132081D01*
X86758Y132092D01*
X86830Y132094D01*
X86879Y132112D01*
X86930Y132120D01*
X86994Y132154D01*
X87061Y132179D01*
X87102Y132211D01*
X87148Y132236D01*
X87197Y132288D01*
X87253Y132332D01*
X87281Y132376D01*
X87317Y132414D01*
X87347Y132479D01*
X87386Y132539D01*
X87399Y132590D01*
X87421Y132637D01*
X87429Y132708D01*
X87446Y132778D01*
X87442Y132830D01*
X87448Y132881D01*
X87433Y132952D01*
X87427Y133023D01*
X87407Y133071D01*
X87396Y133122D01*
X87359Y133183D01*
X87331Y133249D01*
X87286Y133305D01*
X87269Y133333D01*
X87252Y133348D01*
X87226Y133380D01*
X83859Y136747D01*
X82041Y141135D01*
X82041Y145885D01*
X83859Y150273D01*
X87217Y153631D01*
X91605Y155449D01*
X96355Y155449D01*
X100743Y153631D01*
X104101Y150273D01*
X105919Y145885D01*
X105919Y141135D01*
X104101Y136747D01*
X100734Y133380D01*
X100692Y133322D01*
X100643Y133270D01*
X100621Y133223D01*
X100591Y133181D01*
X100570Y133112D01*
X100539Y133047D01*
X100534Y132995D01*
X100518Y132945D01*
X100520Y132874D01*
X100512Y132803D01*
X100523Y132752D01*
X100525Y132700D01*
X100549Y132632D01*
X100564Y132562D01*
X100591Y132517D01*
X100609Y132469D01*
X100654Y132413D01*
X100691Y132351D01*
X100730Y132317D01*
X100763Y132277D01*
X100823Y132238D01*
X100878Y132191D01*
X100926Y132172D01*
X100970Y132144D01*
X101039Y132126D01*
X101106Y132099D01*
X101177Y132091D01*
X101208Y132083D01*
X101232Y132085D01*
X101272Y132081D01*
X112088Y132081D01*
X112158Y132092D01*
X112230Y132094D01*
X112279Y132112D01*
X112330Y132120D01*
X112394Y132154D01*
X112461Y132179D01*
X112502Y132211D01*
X112548Y132236D01*
X112597Y132288D01*
X112653Y132332D01*
X112681Y132376D01*
X112717Y132414D01*
X112747Y132479D01*
X112786Y132539D01*
X112799Y132590D01*
X112821Y132637D01*
X112829Y132708D01*
X112846Y132778D01*
X112842Y132830D01*
X112848Y132881D01*
X112833Y132952D01*
X112827Y133023D01*
X112807Y133071D01*
X112796Y133122D01*
X112759Y133183D01*
X112731Y133249D01*
X112686Y133305D01*
X112669Y133333D01*
X112652Y133348D01*
X112626Y133380D01*
X109259Y136747D01*
X107441Y141135D01*
X107441Y145885D01*
X109259Y150273D01*
X112617Y153631D01*
X117005Y155449D01*
X121755Y155449D01*
X126143Y153631D01*
X129501Y150273D01*
X131319Y145885D01*
X131319Y141135D01*
X129501Y136747D01*
X126134Y133380D01*
X126092Y133322D01*
X126043Y133270D01*
X126021Y133223D01*
X125991Y133181D01*
X125970Y133112D01*
X125939Y133047D01*
X125934Y132995D01*
X125918Y132945D01*
X125920Y132874D01*
X125912Y132803D01*
X125923Y132752D01*
X125925Y132700D01*
X125949Y132632D01*
X125964Y132562D01*
X125991Y132517D01*
X126009Y132469D01*
X126054Y132413D01*
X126091Y132351D01*
X126130Y132317D01*
X126163Y132277D01*
X126223Y132238D01*
X126278Y132191D01*
X126326Y132172D01*
X126370Y132144D01*
X126439Y132126D01*
X126506Y132099D01*
X126577Y132091D01*
X126608Y132083D01*
X126632Y132085D01*
X126672Y132081D01*
X137488Y132081D01*
X137558Y132092D01*
X137630Y132094D01*
X137679Y132112D01*
X137730Y132120D01*
X137794Y132154D01*
X137861Y132179D01*
X137902Y132211D01*
X137948Y132236D01*
X137997Y132288D01*
X138053Y132332D01*
X138081Y132376D01*
X138117Y132414D01*
X138147Y132479D01*
X138186Y132539D01*
X138199Y132590D01*
X138221Y132637D01*
X138229Y132708D01*
X138246Y132778D01*
X138242Y132830D01*
X138248Y132881D01*
X138233Y132952D01*
X138227Y133023D01*
X138207Y133071D01*
X138196Y133122D01*
X138159Y133183D01*
X138131Y133249D01*
X138086Y133305D01*
X138069Y133333D01*
X138052Y133348D01*
X138026Y133380D01*
X134659Y136747D01*
X132841Y141135D01*
X132841Y145885D01*
X134659Y150273D01*
X138017Y153631D01*
X142405Y155449D01*
X147155Y155449D01*
X151543Y153631D01*
X154901Y150273D01*
X156719Y145885D01*
X156719Y141135D01*
X154901Y136747D01*
X151534Y133380D01*
X151492Y133322D01*
X151443Y133270D01*
X151421Y133223D01*
X151391Y133181D01*
X151370Y133112D01*
X151339Y133047D01*
X151334Y132995D01*
X151318Y132945D01*
X151320Y132874D01*
X151312Y132803D01*
X151323Y132752D01*
X151325Y132700D01*
X151349Y132632D01*
X151364Y132562D01*
X151391Y132517D01*
X151409Y132469D01*
X151454Y132413D01*
X151491Y132351D01*
X151530Y132317D01*
X151563Y132277D01*
X151623Y132238D01*
X151678Y132191D01*
X151726Y132172D01*
X151770Y132144D01*
X151839Y132126D01*
X151906Y132099D01*
X151977Y132091D01*
X152008Y132083D01*
X152032Y132085D01*
X152072Y132081D01*
X188980Y132081D01*
X189051Y132092D01*
X189123Y132094D01*
X189172Y132112D01*
X189223Y132120D01*
X189287Y132154D01*
X189354Y132179D01*
X189395Y132211D01*
X189441Y132236D01*
X189490Y132288D01*
X189546Y132332D01*
X189574Y132376D01*
X189610Y132414D01*
X189640Y132479D01*
X189679Y132539D01*
X189692Y132590D01*
X189714Y132637D01*
X189721Y132708D01*
X189739Y132778D01*
X189735Y132830D01*
X189741Y132881D01*
X189725Y132952D01*
X189720Y133023D01*
X189700Y133071D01*
X189688Y133122D01*
X189652Y133183D01*
X189624Y133249D01*
X189579Y133305D01*
X189562Y133333D01*
X189544Y133348D01*
X189519Y133380D01*
X188667Y134232D01*
X187197Y137780D01*
X187197Y141620D01*
X188667Y145168D01*
X191038Y147539D01*
X191082Y147600D01*
X191119Y147639D01*
X191125Y147653D01*
X191151Y147683D01*
X191163Y147713D01*
X191182Y147739D01*
X191209Y147826D01*
X191243Y147911D01*
X191247Y147952D01*
X191254Y147974D01*
X191253Y148006D01*
X191261Y148078D01*
X191261Y152538D01*
X191247Y152628D01*
X191239Y152719D01*
X191227Y152749D01*
X191222Y152781D01*
X191179Y152862D01*
X191143Y152946D01*
X191117Y152978D01*
X191106Y152998D01*
X191083Y153021D01*
X191038Y153076D01*
X182848Y161266D01*
X182775Y161319D01*
X182705Y161379D01*
X182675Y161391D01*
X182649Y161410D01*
X182562Y161437D01*
X182477Y161471D01*
X182436Y161475D01*
X182414Y161482D01*
X182381Y161481D01*
X182310Y161489D01*
X164358Y161489D01*
X162869Y162978D01*
X162869Y177082D01*
X164358Y178571D01*
X196462Y178571D01*
X197951Y177082D01*
X197951Y162978D01*
X196462Y161489D01*
X195242Y161489D01*
X195171Y161478D01*
X195099Y161476D01*
X195050Y161458D01*
X194999Y161450D01*
X194936Y161416D01*
X194868Y161391D01*
X194828Y161359D01*
X194782Y161334D01*
X194732Y161282D01*
X194676Y161238D01*
X194648Y161194D01*
X194612Y161156D01*
X194582Y161091D01*
X194543Y161031D01*
X194531Y160980D01*
X194509Y160933D01*
X194501Y160862D01*
X194483Y160792D01*
X194487Y160740D01*
X194482Y160689D01*
X194497Y160618D01*
X194502Y160547D01*
X194523Y160499D01*
X194534Y160448D01*
X194571Y160387D01*
X194599Y160321D01*
X194643Y160265D01*
X194660Y160237D01*
X194678Y160222D01*
X194703Y160190D01*
X198883Y156010D01*
X198883Y149815D01*
X198902Y149700D01*
X198919Y149584D01*
X198921Y149578D01*
X198922Y149572D01*
X198977Y149469D01*
X199030Y149365D01*
X199035Y149360D01*
X199038Y149355D01*
X199122Y149275D01*
X199206Y149192D01*
X199212Y149189D01*
X199216Y149185D01*
X199233Y149177D01*
X199353Y149111D01*
X202318Y147883D01*
X203170Y147031D01*
X203228Y146989D01*
X203280Y146940D01*
X203327Y146918D01*
X203369Y146888D01*
X203438Y146867D01*
X203503Y146836D01*
X203555Y146831D01*
X203605Y146815D01*
X203676Y146817D01*
X203747Y146809D01*
X203798Y146820D01*
X203850Y146822D01*
X203918Y146846D01*
X203988Y146862D01*
X204033Y146888D01*
X204081Y146906D01*
X204137Y146951D01*
X204199Y146988D01*
X204233Y147027D01*
X204273Y147060D01*
X204312Y147120D01*
X204359Y147175D01*
X204378Y147223D01*
X204406Y147267D01*
X204424Y147336D01*
X204451Y147403D01*
X204459Y147474D01*
X204467Y147505D01*
X204465Y147529D01*
X204469Y147570D01*
X204469Y507318D01*
X204466Y507338D01*
X204468Y507357D01*
X204446Y507459D01*
X204430Y507561D01*
X204420Y507578D01*
X204416Y507598D01*
X204363Y507687D01*
X204314Y507778D01*
X204300Y507792D01*
X204290Y507809D01*
X204211Y507876D01*
X204136Y507948D01*
X204118Y507956D01*
X204103Y507969D01*
X204007Y508008D01*
X203913Y508051D01*
X203893Y508053D01*
X203875Y508061D01*
X203708Y508079D01*
X203688Y508076D01*
X203669Y508078D01*
X203567Y508056D01*
X203465Y508040D01*
X203448Y508030D01*
X203428Y508026D01*
X203339Y507973D01*
X203248Y507924D01*
X203234Y507910D01*
X203217Y507900D01*
X203150Y507821D01*
X203078Y507746D01*
X203070Y507728D01*
X203057Y507713D01*
X203018Y507617D01*
X202975Y507523D01*
X202973Y507503D01*
X202965Y507485D01*
X202947Y507318D01*
X202947Y412950D01*
X200492Y410494D01*
X193539Y403542D01*
X193527Y403525D01*
X193512Y403513D01*
X193456Y403426D01*
X193395Y403342D01*
X193389Y403323D01*
X193379Y403306D01*
X193353Y403206D01*
X193323Y403107D01*
X193323Y403087D01*
X193319Y403068D01*
X193327Y402965D01*
X193329Y402861D01*
X193336Y402842D01*
X193338Y402822D01*
X193378Y402727D01*
X193414Y402630D01*
X193426Y402614D01*
X193434Y402596D01*
X193539Y402465D01*
X195541Y400463D01*
X197359Y396075D01*
X197359Y391325D01*
X195541Y386937D01*
X192183Y383579D01*
X187795Y381761D01*
X183045Y381761D01*
X178657Y383579D01*
X175299Y386937D01*
X173481Y391325D01*
X173481Y396075D01*
X175299Y400463D01*
X177809Y402973D01*
X177821Y402989D01*
X177836Y403002D01*
X177892Y403089D01*
X177953Y403173D01*
X177959Y403192D01*
X177969Y403209D01*
X177995Y403309D01*
X178025Y403408D01*
X178025Y403428D01*
X178029Y403447D01*
X178021Y403550D01*
X178019Y403654D01*
X178012Y403673D01*
X178010Y403692D01*
X177970Y403787D01*
X177934Y403885D01*
X177922Y403900D01*
X177914Y403919D01*
X177809Y404050D01*
X176814Y405044D01*
X159796Y422063D01*
X159738Y422104D01*
X159686Y422154D01*
X159639Y422176D01*
X159597Y422206D01*
X159528Y422227D01*
X159463Y422257D01*
X159411Y422263D01*
X159361Y422278D01*
X159290Y422277D01*
X159219Y422284D01*
X159168Y422273D01*
X159116Y422272D01*
X159048Y422247D01*
X158978Y422232D01*
X158933Y422206D01*
X158885Y422188D01*
X158829Y422143D01*
X158767Y422106D01*
X158733Y422066D01*
X158693Y422034D01*
X158654Y421974D01*
X158607Y421919D01*
X158588Y421871D01*
X158560Y421827D01*
X158542Y421758D01*
X158515Y421691D01*
X158507Y421620D01*
X158499Y421588D01*
X158501Y421565D01*
X158497Y421524D01*
X158497Y398018D01*
X158480Y397984D01*
X158447Y397938D01*
X158427Y397873D01*
X158398Y397812D01*
X158391Y397757D01*
X158375Y397703D01*
X158377Y397635D01*
X158369Y397568D01*
X158380Y397490D01*
X158381Y397457D01*
X158388Y397438D01*
X158394Y397402D01*
X158497Y397018D01*
X158497Y395286D01*
X150241Y395286D01*
X150222Y395283D01*
X150202Y395285D01*
X150100Y395263D01*
X149998Y395247D01*
X149981Y395237D01*
X149961Y395233D01*
X149872Y395180D01*
X149781Y395131D01*
X149767Y395117D01*
X149750Y395107D01*
X149683Y395028D01*
X149612Y394953D01*
X149603Y394935D01*
X149590Y394920D01*
X149552Y394824D01*
X149508Y394730D01*
X149506Y394710D01*
X149498Y394692D01*
X149480Y394525D01*
X149480Y393255D01*
X149483Y393235D01*
X149481Y393215D01*
X149503Y393114D01*
X149520Y393012D01*
X149529Y392995D01*
X149533Y392975D01*
X149586Y392886D01*
X149635Y392795D01*
X149649Y392781D01*
X149659Y392764D01*
X149738Y392697D01*
X149813Y392625D01*
X149831Y392617D01*
X149846Y392604D01*
X149943Y392565D01*
X150036Y392522D01*
X150056Y392520D01*
X150074Y392512D01*
X150241Y392494D01*
X158497Y392494D01*
X158497Y390762D01*
X158394Y390378D01*
X158387Y390310D01*
X158371Y390245D01*
X158375Y390189D01*
X158369Y390133D01*
X158384Y390067D01*
X158390Y389999D01*
X158412Y389948D01*
X158424Y389893D01*
X158460Y389835D01*
X158486Y389773D01*
X158497Y389760D01*
X158497Y373496D01*
X158511Y373406D01*
X158519Y373315D01*
X158531Y373285D01*
X158536Y373253D01*
X158579Y373172D01*
X158615Y373088D01*
X158641Y373056D01*
X158652Y373036D01*
X158675Y373013D01*
X158720Y372958D01*
X164339Y367338D01*
X164339Y358086D01*
X158466Y352212D01*
X158413Y352139D01*
X158353Y352069D01*
X158341Y352039D01*
X158322Y352013D01*
X158295Y351926D01*
X158261Y351841D01*
X158257Y351800D01*
X158250Y351778D01*
X158251Y351745D01*
X158243Y351674D01*
X158243Y326869D01*
X158250Y326823D01*
X158248Y326777D01*
X158270Y326703D01*
X158282Y326626D01*
X158304Y326585D01*
X158317Y326541D01*
X158361Y326477D01*
X158398Y326408D01*
X158431Y326377D01*
X158457Y326339D01*
X158520Y326293D01*
X158576Y326239D01*
X158618Y326220D01*
X158654Y326192D01*
X158728Y326168D01*
X158799Y326135D01*
X158845Y326130D01*
X158888Y326116D01*
X158966Y326117D01*
X159043Y326108D01*
X159088Y326118D01*
X159134Y326119D01*
X159266Y326157D01*
X159284Y326161D01*
X159288Y326163D01*
X159295Y326165D01*
X161373Y327026D01*
X163747Y327026D01*
X165942Y326117D01*
X167621Y324438D01*
X168530Y322243D01*
X168530Y319869D01*
X168428Y319623D01*
X168418Y319582D01*
X168405Y319553D01*
X168405Y319551D01*
X168398Y319537D01*
X168390Y319460D01*
X168372Y319384D01*
X168376Y319338D01*
X168371Y319293D01*
X168388Y319216D01*
X168395Y319139D01*
X168414Y319097D01*
X168423Y319052D01*
X168463Y318985D01*
X168495Y318914D01*
X168526Y318880D01*
X168550Y318841D01*
X168609Y318790D01*
X168661Y318733D01*
X168702Y318711D01*
X168737Y318681D01*
X168809Y318652D01*
X168877Y318615D01*
X168922Y318606D01*
X168965Y318589D01*
X169101Y318574D01*
X169119Y318571D01*
X169124Y318572D01*
X169131Y318571D01*
X196462Y318571D01*
X197951Y317082D01*
X197951Y302978D01*
X196462Y301489D01*
X167132Y301489D01*
X167112Y301486D01*
X167093Y301488D01*
X166991Y301466D01*
X166889Y301450D01*
X166872Y301440D01*
X166852Y301436D01*
X166763Y301383D01*
X166672Y301334D01*
X166658Y301320D01*
X166641Y301310D01*
X166574Y301231D01*
X166502Y301156D01*
X166494Y301138D01*
X166481Y301123D01*
X166442Y301027D01*
X166399Y300933D01*
X166397Y300913D01*
X166389Y300895D01*
X166371Y300728D01*
X166371Y299332D01*
X166374Y299312D01*
X166372Y299293D01*
X166394Y299191D01*
X166410Y299089D01*
X166420Y299072D01*
X166424Y299052D01*
X166477Y298963D01*
X166526Y298872D01*
X166540Y298858D01*
X166550Y298841D01*
X166629Y298774D01*
X166704Y298702D01*
X166722Y298694D01*
X166737Y298681D01*
X166833Y298642D01*
X166927Y298599D01*
X166947Y298597D01*
X166965Y298589D01*
X167132Y298571D01*
X196462Y298571D01*
X197951Y297082D01*
X197951Y282978D01*
X196462Y281489D01*
X170746Y281489D01*
X170675Y281478D01*
X170603Y281476D01*
X170554Y281458D01*
X170503Y281450D01*
X170440Y281416D01*
X170372Y281391D01*
X170332Y281359D01*
X170286Y281334D01*
X170236Y281282D01*
X170180Y281238D01*
X170152Y281194D01*
X170116Y281156D01*
X170086Y281091D01*
X170047Y281031D01*
X170035Y280980D01*
X170013Y280933D01*
X170005Y280862D01*
X169987Y280792D01*
X169991Y280740D01*
X169986Y280689D01*
X170001Y280618D01*
X170006Y280547D01*
X170027Y280499D01*
X170038Y280448D01*
X170075Y280387D01*
X170103Y280321D01*
X170147Y280265D01*
X170164Y280237D01*
X170182Y280222D01*
X170207Y280190D01*
X171604Y278794D01*
X171678Y278741D01*
X171747Y278681D01*
X171777Y278669D01*
X171803Y278650D01*
X171890Y278623D01*
X171975Y278589D01*
X172016Y278585D01*
X172038Y278578D01*
X172071Y278579D01*
X172142Y278571D01*
X196462Y278571D01*
X197951Y277082D01*
X197951Y262978D01*
X196462Y261489D01*
X170426Y261489D01*
X170355Y261478D01*
X170283Y261476D01*
X170234Y261458D01*
X170183Y261450D01*
X170120Y261416D01*
X170052Y261391D01*
X170012Y261359D01*
X169966Y261334D01*
X169916Y261282D01*
X169860Y261238D01*
X169832Y261194D01*
X169796Y261156D01*
X169766Y261091D01*
X169727Y261031D01*
X169715Y260980D01*
X169693Y260933D01*
X169685Y260862D01*
X169667Y260792D01*
X169671Y260740D01*
X169666Y260689D01*
X169681Y260618D01*
X169686Y260547D01*
X169707Y260499D01*
X169718Y260448D01*
X169755Y260387D01*
X169783Y260321D01*
X169827Y260265D01*
X169844Y260237D01*
X169862Y260222D01*
X169887Y260190D01*
X171284Y258794D01*
X171358Y258741D01*
X171427Y258681D01*
X171457Y258669D01*
X171483Y258650D01*
X171570Y258623D01*
X171655Y258589D01*
X171696Y258585D01*
X171718Y258578D01*
X171751Y258579D01*
X171822Y258571D01*
X196462Y258571D01*
X197951Y257082D01*
X197951Y242978D01*
X196462Y241489D01*
X164358Y241489D01*
X162869Y242978D01*
X162869Y256114D01*
X162855Y256204D01*
X162847Y256295D01*
X162835Y256325D01*
X162830Y256357D01*
X162787Y256438D01*
X162751Y256522D01*
X162725Y256554D01*
X162714Y256574D01*
X162691Y256597D01*
X162646Y256652D01*
X150621Y268678D01*
X150621Y342530D01*
X150610Y342601D01*
X150608Y342673D01*
X150590Y342722D01*
X150582Y342773D01*
X150548Y342836D01*
X150523Y342904D01*
X150491Y342944D01*
X150466Y342990D01*
X150414Y343040D01*
X150370Y343096D01*
X150326Y343124D01*
X150288Y343160D01*
X150223Y343190D01*
X150163Y343229D01*
X150112Y343241D01*
X150065Y343263D01*
X149994Y343271D01*
X149924Y343289D01*
X149872Y343285D01*
X149821Y343290D01*
X149750Y343275D01*
X149679Y343270D01*
X149631Y343249D01*
X149580Y343238D01*
X149519Y343201D01*
X149453Y343173D01*
X149397Y343129D01*
X149369Y343112D01*
X149354Y343094D01*
X149322Y343069D01*
X56866Y250612D01*
X54410Y248157D01*
X48712Y248157D01*
X48692Y248154D01*
X48673Y248156D01*
X48571Y248134D01*
X48469Y248118D01*
X48452Y248108D01*
X48432Y248104D01*
X48343Y248051D01*
X48252Y248002D01*
X48238Y247988D01*
X48221Y247978D01*
X48154Y247899D01*
X48082Y247824D01*
X48074Y247806D01*
X48061Y247791D01*
X48022Y247695D01*
X47979Y247601D01*
X47977Y247581D01*
X47969Y247563D01*
X47951Y247396D01*
X47951Y242978D01*
X46462Y241489D01*
X19738Y241489D01*
X19667Y241478D01*
X19595Y241476D01*
X19546Y241458D01*
X19495Y241450D01*
X19432Y241416D01*
X19364Y241391D01*
X19324Y241359D01*
X19278Y241334D01*
X19228Y241282D01*
X19172Y241238D01*
X19144Y241194D01*
X19108Y241156D01*
X19078Y241091D01*
X19039Y241031D01*
X19027Y240980D01*
X19005Y240933D01*
X18997Y240862D01*
X18979Y240792D01*
X18983Y240740D01*
X18978Y240689D01*
X18993Y240618D01*
X18998Y240547D01*
X19019Y240499D01*
X19030Y240448D01*
X19067Y240387D01*
X19095Y240321D01*
X19139Y240265D01*
X19156Y240237D01*
X19174Y240222D01*
X19199Y240190D01*
X20596Y238794D01*
X20670Y238741D01*
X20739Y238681D01*
X20769Y238669D01*
X20795Y238650D01*
X20882Y238623D01*
X20967Y238589D01*
X21008Y238585D01*
X21030Y238578D01*
X21063Y238579D01*
X21134Y238571D01*
X46462Y238571D01*
X47951Y237082D01*
X47951Y222978D01*
X46462Y221489D01*
X14358Y221489D01*
X12869Y222978D01*
X12869Y235426D01*
X12855Y235516D01*
X12847Y235607D01*
X12835Y235637D01*
X12830Y235669D01*
X12787Y235750D01*
X12751Y235834D01*
X12725Y235866D01*
X12714Y235886D01*
X12691Y235909D01*
X12646Y235964D01*
X8381Y240230D01*
X8381Y279962D01*
X12646Y284228D01*
X12699Y284301D01*
X12759Y284371D01*
X12771Y284401D01*
X12790Y284427D01*
X12817Y284514D01*
X12851Y284599D01*
X12855Y284640D01*
X12862Y284662D01*
X12861Y284695D01*
X12869Y284766D01*
X12869Y297082D01*
X14358Y298571D01*
X38866Y298571D01*
X38956Y298585D01*
X39047Y298593D01*
X39077Y298605D01*
X39109Y298610D01*
X39190Y298653D01*
X39274Y298689D01*
X39306Y298715D01*
X39326Y298726D01*
X39349Y298749D01*
X39405Y298794D01*
X40801Y300190D01*
X40842Y300248D01*
X40892Y300300D01*
X40914Y300347D01*
X40944Y300389D01*
X40965Y300458D01*
X40995Y300523D01*
X41001Y300575D01*
X41016Y300625D01*
X41015Y300696D01*
X41022Y300767D01*
X41011Y300818D01*
X41010Y300870D01*
X40985Y300938D01*
X40970Y301008D01*
X40944Y301052D01*
X40926Y301101D01*
X40881Y301157D01*
X40844Y301219D01*
X40804Y301253D01*
X40772Y301293D01*
X40712Y301332D01*
X40657Y301379D01*
X40609Y301398D01*
X40565Y301426D01*
X40496Y301444D01*
X40429Y301471D01*
X40358Y301479D01*
X40326Y301487D01*
X40303Y301485D01*
X40262Y301489D01*
X31933Y301489D01*
X31933Y309268D01*
X31930Y309288D01*
X31932Y309307D01*
X31910Y309409D01*
X31893Y309511D01*
X31884Y309528D01*
X31880Y309548D01*
X31827Y309637D01*
X31778Y309728D01*
X31764Y309742D01*
X31754Y309759D01*
X31675Y309826D01*
X31600Y309897D01*
X31582Y309906D01*
X31567Y309919D01*
X31471Y309958D01*
X31377Y310001D01*
X31357Y310003D01*
X31339Y310011D01*
X31172Y310029D01*
X30409Y310029D01*
X30409Y310031D01*
X31172Y310031D01*
X31192Y310034D01*
X31211Y310032D01*
X31313Y310054D01*
X31415Y310071D01*
X31432Y310080D01*
X31452Y310084D01*
X31541Y310137D01*
X31632Y310186D01*
X31646Y310200D01*
X31663Y310210D01*
X31730Y310289D01*
X31801Y310364D01*
X31810Y310382D01*
X31823Y310397D01*
X31861Y310493D01*
X31905Y310587D01*
X31907Y310607D01*
X31915Y310625D01*
X31933Y310792D01*
X31933Y318571D01*
X44196Y318571D01*
X44216Y318574D01*
X44235Y318572D01*
X44337Y318594D01*
X44439Y318610D01*
X44456Y318620D01*
X44476Y318624D01*
X44565Y318677D01*
X44656Y318726D01*
X44670Y318740D01*
X44687Y318750D01*
X44754Y318829D01*
X44826Y318904D01*
X44834Y318922D01*
X44847Y318937D01*
X44886Y319033D01*
X44929Y319127D01*
X44931Y319147D01*
X44939Y319165D01*
X44957Y319332D01*
X44957Y332794D01*
X47412Y335250D01*
X49383Y337220D01*
X49424Y337278D01*
X49474Y337330D01*
X49496Y337377D01*
X49526Y337419D01*
X49547Y337488D01*
X49577Y337553D01*
X49583Y337605D01*
X49598Y337655D01*
X49597Y337726D01*
X49604Y337797D01*
X49593Y337848D01*
X49592Y337900D01*
X49567Y337968D01*
X49552Y338038D01*
X49526Y338083D01*
X49508Y338131D01*
X49463Y338187D01*
X49426Y338249D01*
X49386Y338283D01*
X49354Y338323D01*
X49294Y338362D01*
X49239Y338409D01*
X49191Y338428D01*
X49147Y338456D01*
X49078Y338474D01*
X49011Y338501D01*
X48940Y338509D01*
X48908Y338517D01*
X48885Y338515D01*
X48844Y338519D01*
X38495Y338519D01*
X38405Y338505D01*
X38314Y338497D01*
X38284Y338485D01*
X38252Y338480D01*
X38171Y338437D01*
X38087Y338401D01*
X38055Y338375D01*
X38035Y338364D01*
X38012Y338341D01*
X37956Y338296D01*
X37816Y338156D01*
X37774Y338097D01*
X37725Y338046D01*
X37717Y338029D01*
X37703Y338012D01*
X37691Y337982D01*
X37672Y337956D01*
X37650Y337884D01*
X37622Y337823D01*
X37620Y337805D01*
X37611Y337784D01*
X37607Y337743D01*
X37600Y337721D01*
X37601Y337689D01*
X37593Y337617D01*
X37593Y336260D01*
X36104Y334771D01*
X19776Y334771D01*
X18287Y336260D01*
X18287Y337617D01*
X18283Y337641D01*
X18285Y337658D01*
X18271Y337722D01*
X18265Y337798D01*
X18253Y337828D01*
X18248Y337860D01*
X18237Y337880D01*
X18233Y337898D01*
X18198Y337957D01*
X18169Y338025D01*
X18143Y338057D01*
X18132Y338077D01*
X18117Y338092D01*
X18107Y338109D01*
X18090Y338124D01*
X18064Y338156D01*
X17924Y338296D01*
X17850Y338349D01*
X17780Y338409D01*
X17750Y338421D01*
X17724Y338440D01*
X17637Y338467D01*
X17552Y338501D01*
X17511Y338505D01*
X17489Y338512D01*
X17457Y338511D01*
X17385Y338519D01*
X16202Y338519D01*
X13969Y340752D01*
X13969Y343908D01*
X16202Y346141D01*
X17385Y346141D01*
X17475Y346155D01*
X17566Y346163D01*
X17596Y346175D01*
X17628Y346180D01*
X17709Y346223D01*
X17793Y346259D01*
X17825Y346285D01*
X17845Y346296D01*
X17868Y346319D01*
X17924Y346364D01*
X18064Y346504D01*
X18117Y346578D01*
X18177Y346648D01*
X18189Y346678D01*
X18208Y346704D01*
X18235Y346791D01*
X18269Y346876D01*
X18273Y346917D01*
X18280Y346939D01*
X18279Y346971D01*
X18287Y347043D01*
X18287Y349731D01*
X18276Y349798D01*
X18275Y349866D01*
X18257Y349919D01*
X18248Y349974D01*
X18216Y350034D01*
X18193Y350097D01*
X18159Y350142D01*
X18132Y350192D01*
X18084Y350238D01*
X18042Y350291D01*
X17978Y350338D01*
X17954Y350361D01*
X17935Y350370D01*
X17907Y350391D01*
X17861Y350417D01*
X17754Y350458D01*
X17647Y350501D01*
X17637Y350502D01*
X17631Y350504D01*
X17609Y350505D01*
X17480Y350519D01*
X16202Y350519D01*
X13969Y352752D01*
X13969Y355908D01*
X16202Y358141D01*
X17480Y358141D01*
X17593Y358159D01*
X17707Y358175D01*
X17716Y358179D01*
X17723Y358180D01*
X17742Y358191D01*
X17861Y358243D01*
X17907Y358269D01*
X17936Y358293D01*
X17940Y358296D01*
X17945Y358301D01*
X17959Y358312D01*
X17963Y358314D01*
X17986Y358327D01*
X17990Y358331D01*
X18017Y358347D01*
X18054Y358390D01*
X18097Y358425D01*
X18131Y358479D01*
X18156Y358505D01*
X18159Y358513D01*
X18177Y358534D01*
X18198Y358586D01*
X18228Y358634D01*
X18241Y358690D01*
X18259Y358728D01*
X18261Y358742D01*
X18269Y358762D01*
X18278Y358841D01*
X18285Y358873D01*
X18283Y358893D01*
X18287Y358929D01*
X18287Y361617D01*
X18273Y361707D01*
X18265Y361798D01*
X18253Y361828D01*
X18248Y361860D01*
X18205Y361941D01*
X18169Y362025D01*
X18143Y362057D01*
X18132Y362077D01*
X18109Y362100D01*
X18064Y362156D01*
X17924Y362296D01*
X17850Y362349D01*
X17780Y362409D01*
X17750Y362421D01*
X17724Y362440D01*
X17637Y362467D01*
X17552Y362501D01*
X17511Y362505D01*
X17489Y362512D01*
X17457Y362511D01*
X17385Y362519D01*
X16202Y362519D01*
X13969Y364752D01*
X13969Y367908D01*
X16202Y370141D01*
X17385Y370141D01*
X17475Y370155D01*
X17566Y370163D01*
X17596Y370175D01*
X17628Y370180D01*
X17709Y370223D01*
X17793Y370259D01*
X17825Y370285D01*
X17845Y370296D01*
X17868Y370319D01*
X17924Y370364D01*
X18064Y370504D01*
X18117Y370578D01*
X18177Y370648D01*
X18189Y370678D01*
X18208Y370704D01*
X18235Y370791D01*
X18269Y370876D01*
X18273Y370917D01*
X18280Y370939D01*
X18279Y370971D01*
X18287Y371043D01*
X18287Y372400D01*
X19776Y373889D01*
X36104Y373889D01*
X37593Y372400D01*
X37593Y371043D01*
X37607Y370953D01*
X37615Y370862D01*
X37627Y370832D01*
X37632Y370800D01*
X37675Y370719D01*
X37711Y370635D01*
X37737Y370603D01*
X37748Y370583D01*
X37771Y370560D01*
X37816Y370504D01*
X37956Y370364D01*
X38030Y370311D01*
X38100Y370251D01*
X38130Y370239D01*
X38156Y370220D01*
X38243Y370193D01*
X38328Y370159D01*
X38369Y370155D01*
X38391Y370148D01*
X38423Y370149D01*
X38495Y370141D01*
X39678Y370141D01*
X40025Y369794D01*
X40100Y369740D01*
X40169Y369681D01*
X40199Y369669D01*
X40225Y369650D01*
X40312Y369623D01*
X40397Y369589D01*
X40438Y369585D01*
X40460Y369578D01*
X40492Y369579D01*
X40564Y369571D01*
X46366Y369571D01*
X46456Y369585D01*
X46547Y369593D01*
X46577Y369605D01*
X46609Y369610D01*
X46690Y369653D01*
X46774Y369689D01*
X46806Y369715D01*
X46826Y369726D01*
X46844Y369744D01*
X46846Y369746D01*
X46853Y369752D01*
X46904Y369794D01*
X49222Y372111D01*
X54102Y372111D01*
X54122Y372114D01*
X54141Y372112D01*
X54243Y372134D01*
X54345Y372150D01*
X54362Y372160D01*
X54382Y372164D01*
X54471Y372217D01*
X54562Y372266D01*
X54576Y372280D01*
X54593Y372290D01*
X54660Y372369D01*
X54732Y372444D01*
X54740Y372462D01*
X54753Y372477D01*
X54792Y372573D01*
X54835Y372667D01*
X54837Y372687D01*
X54845Y372705D01*
X54863Y372872D01*
X54863Y373380D01*
X54860Y373400D01*
X54862Y373419D01*
X54840Y373521D01*
X54824Y373623D01*
X54814Y373640D01*
X54810Y373660D01*
X54757Y373749D01*
X54708Y373840D01*
X54694Y373854D01*
X54684Y373871D01*
X54605Y373938D01*
X54530Y374010D01*
X54512Y374018D01*
X54497Y374031D01*
X54401Y374070D01*
X54307Y374113D01*
X54287Y374115D01*
X54269Y374123D01*
X54102Y374141D01*
X41094Y374141D01*
X14477Y400758D01*
X14477Y404448D01*
X14474Y404468D01*
X14476Y404487D01*
X14454Y404589D01*
X14438Y404691D01*
X14428Y404708D01*
X14424Y404728D01*
X14371Y404817D01*
X14322Y404908D01*
X14308Y404922D01*
X14298Y404939D01*
X14219Y405006D01*
X14144Y405078D01*
X14126Y405086D01*
X14111Y405099D01*
X14015Y405138D01*
X13921Y405181D01*
X13901Y405183D01*
X13883Y405191D01*
X13716Y405209D01*
X10348Y405209D01*
X8859Y406698D01*
X8859Y418802D01*
X10348Y420291D01*
X13716Y420291D01*
X13736Y420294D01*
X13755Y420292D01*
X13857Y420314D01*
X13959Y420330D01*
X13976Y420340D01*
X13996Y420344D01*
X14085Y420397D01*
X14176Y420446D01*
X14190Y420460D01*
X14207Y420470D01*
X14274Y420549D01*
X14346Y420624D01*
X14354Y420642D01*
X14367Y420657D01*
X14406Y420753D01*
X14449Y420847D01*
X14451Y420867D01*
X14459Y420885D01*
X14477Y421052D01*
X14477Y442548D01*
X14474Y442568D01*
X14476Y442587D01*
X14454Y442689D01*
X14438Y442791D01*
X14428Y442808D01*
X14424Y442828D01*
X14371Y442917D01*
X14322Y443008D01*
X14308Y443022D01*
X14298Y443039D01*
X14219Y443106D01*
X14144Y443178D01*
X14126Y443186D01*
X14111Y443199D01*
X14015Y443238D01*
X13921Y443281D01*
X13901Y443283D01*
X13883Y443291D01*
X13716Y443309D01*
X10348Y443309D01*
X8859Y444798D01*
X8859Y456902D01*
X10348Y458391D01*
X23452Y458391D01*
X24862Y456981D01*
X24878Y456970D01*
X24890Y456954D01*
X24978Y456898D01*
X25061Y456838D01*
X25080Y456832D01*
X25097Y456821D01*
X25198Y456796D01*
X25297Y456766D01*
X25316Y456766D01*
X25336Y456761D01*
X25439Y456769D01*
X25542Y456772D01*
X25561Y456779D01*
X25581Y456780D01*
X25676Y456821D01*
X25773Y456856D01*
X25789Y456869D01*
X25807Y456877D01*
X25938Y456981D01*
X27348Y458391D01*
X32062Y458391D01*
X32152Y458405D01*
X32243Y458413D01*
X32273Y458425D01*
X32305Y458430D01*
X32386Y458473D01*
X32470Y458509D01*
X32502Y458535D01*
X32522Y458546D01*
X32545Y458569D01*
X32601Y458614D01*
X34447Y460460D01*
X34500Y460534D01*
X34560Y460604D01*
X34572Y460634D01*
X34591Y460660D01*
X34618Y460747D01*
X34652Y460832D01*
X34656Y460873D01*
X34663Y460895D01*
X34662Y460927D01*
X34670Y460999D01*
X34670Y462451D01*
X35579Y464646D01*
X37258Y466325D01*
X38392Y466794D01*
X38431Y466819D01*
X38474Y466834D01*
X38535Y466883D01*
X38601Y466924D01*
X38630Y466959D01*
X38666Y466988D01*
X38708Y467053D01*
X38758Y467113D01*
X38774Y467156D01*
X38799Y467195D01*
X38818Y467270D01*
X38846Y467343D01*
X38848Y467389D01*
X38859Y467433D01*
X38853Y467511D01*
X38856Y467589D01*
X38844Y467633D01*
X38840Y467679D01*
X38809Y467750D01*
X38788Y467825D01*
X38762Y467863D01*
X38744Y467905D01*
X38658Y468012D01*
X38648Y468027D01*
X38643Y468030D01*
X38639Y468036D01*
X36608Y470066D01*
X36535Y470119D01*
X36465Y470179D01*
X36435Y470191D01*
X36409Y470210D01*
X36322Y470237D01*
X36237Y470271D01*
X36196Y470275D01*
X36174Y470282D01*
X36141Y470281D01*
X36070Y470289D01*
X27352Y470289D01*
X27332Y470286D01*
X27313Y470288D01*
X27211Y470266D01*
X27109Y470250D01*
X27092Y470240D01*
X27072Y470236D01*
X26983Y470183D01*
X26892Y470134D01*
X26878Y470120D01*
X26861Y470110D01*
X26794Y470031D01*
X26722Y469956D01*
X26714Y469938D01*
X26701Y469923D01*
X26662Y469827D01*
X26619Y469733D01*
X26617Y469713D01*
X26609Y469695D01*
X26591Y469528D01*
X26591Y467548D01*
X25102Y466059D01*
X12998Y466059D01*
X11509Y467548D01*
X11509Y480652D01*
X12919Y482062D01*
X12930Y482078D01*
X12946Y482090D01*
X13002Y482178D01*
X13062Y482261D01*
X13068Y482280D01*
X13079Y482297D01*
X13104Y482398D01*
X13134Y482497D01*
X13134Y482516D01*
X13139Y482536D01*
X13131Y482639D01*
X13128Y482742D01*
X13121Y482761D01*
X13120Y482781D01*
X13079Y482876D01*
X13044Y482973D01*
X13031Y482989D01*
X13023Y483007D01*
X12919Y483138D01*
X11509Y484548D01*
X11509Y497652D01*
X12998Y499141D01*
X14478Y499141D01*
X14498Y499144D01*
X14517Y499142D01*
X14619Y499164D01*
X14721Y499180D01*
X14738Y499190D01*
X14758Y499194D01*
X14847Y499247D01*
X14938Y499296D01*
X14952Y499310D01*
X14969Y499320D01*
X15036Y499399D01*
X15108Y499474D01*
X15116Y499492D01*
X15129Y499507D01*
X15168Y499603D01*
X15211Y499697D01*
X15213Y499717D01*
X15221Y499735D01*
X15239Y499902D01*
X15239Y503628D01*
X15236Y503648D01*
X15238Y503667D01*
X15216Y503769D01*
X15200Y503871D01*
X15190Y503888D01*
X15186Y503908D01*
X15133Y503997D01*
X15084Y504088D01*
X15070Y504102D01*
X15060Y504119D01*
X14981Y504186D01*
X14906Y504258D01*
X14888Y504266D01*
X14873Y504279D01*
X14777Y504318D01*
X14683Y504361D01*
X14663Y504363D01*
X14645Y504371D01*
X14478Y504389D01*
X13876Y504389D01*
X11509Y506756D01*
X11509Y517104D01*
X13876Y519471D01*
X24224Y519471D01*
X26591Y517104D01*
X26591Y506756D01*
X24224Y504389D01*
X23622Y504389D01*
X23602Y504386D01*
X23583Y504388D01*
X23481Y504366D01*
X23379Y504350D01*
X23362Y504340D01*
X23342Y504336D01*
X23253Y504283D01*
X23162Y504234D01*
X23148Y504220D01*
X23131Y504210D01*
X23064Y504131D01*
X22992Y504056D01*
X22984Y504038D01*
X22971Y504023D01*
X22932Y503927D01*
X22889Y503833D01*
X22887Y503813D01*
X22879Y503795D01*
X22861Y503628D01*
X22861Y499902D01*
X22864Y499882D01*
X22862Y499863D01*
X22884Y499761D01*
X22900Y499659D01*
X22910Y499642D01*
X22914Y499622D01*
X22967Y499533D01*
X23016Y499442D01*
X23030Y499428D01*
X23040Y499411D01*
X23119Y499344D01*
X23194Y499272D01*
X23212Y499264D01*
X23227Y499251D01*
X23323Y499212D01*
X23417Y499169D01*
X23437Y499167D01*
X23455Y499159D01*
X23622Y499141D01*
X25102Y499141D01*
X26591Y497652D01*
X26591Y484548D01*
X25181Y483138D01*
X25170Y483122D01*
X25154Y483110D01*
X25098Y483022D01*
X25038Y482939D01*
X25032Y482920D01*
X25021Y482903D01*
X24996Y482802D01*
X24966Y482703D01*
X24966Y482684D01*
X24961Y482664D01*
X24969Y482561D01*
X24972Y482458D01*
X24979Y482439D01*
X24980Y482419D01*
X25021Y482324D01*
X25056Y482227D01*
X25069Y482211D01*
X25077Y482193D01*
X25181Y482062D01*
X26591Y480652D01*
X26591Y478672D01*
X26594Y478652D01*
X26592Y478633D01*
X26614Y478531D01*
X26630Y478429D01*
X26640Y478412D01*
X26644Y478392D01*
X26697Y478303D01*
X26746Y478212D01*
X26760Y478198D01*
X26770Y478181D01*
X26849Y478114D01*
X26924Y478042D01*
X26942Y478034D01*
X26957Y478021D01*
X27053Y477982D01*
X27147Y477939D01*
X27167Y477937D01*
X27185Y477929D01*
X27352Y477911D01*
X39542Y477911D01*
X57068Y460386D01*
X57071Y460383D01*
X57073Y460380D01*
X57161Y460319D01*
X57194Y460290D01*
X57209Y460284D01*
X57267Y460242D01*
X57271Y460241D01*
X57274Y460239D01*
X57389Y460205D01*
X57502Y460170D01*
X57506Y460170D01*
X57510Y460169D01*
X57629Y460173D01*
X57748Y460176D01*
X57752Y460178D01*
X57756Y460178D01*
X57866Y460219D01*
X57979Y460261D01*
X57982Y460263D01*
X57986Y460265D01*
X58077Y460339D01*
X58171Y460414D01*
X58173Y460418D01*
X58177Y460420D01*
X58239Y460520D01*
X58304Y460621D01*
X58305Y460625D01*
X58307Y460628D01*
X58335Y460744D01*
X58364Y460860D01*
X58364Y460864D01*
X58365Y460868D01*
X58356Y460968D01*
X58357Y460980D01*
X58354Y460998D01*
X58345Y461105D01*
X58344Y461109D01*
X58343Y461113D01*
X58309Y461204D01*
X58305Y461221D01*
X58298Y461233D01*
X58284Y461270D01*
X57516Y462777D01*
X56935Y464564D01*
X56734Y465837D01*
X67057Y465837D01*
X67057Y455514D01*
X65784Y455715D01*
X63997Y456296D01*
X62490Y457064D01*
X62486Y457065D01*
X62482Y457068D01*
X62369Y457103D01*
X62368Y457103D01*
X62335Y457116D01*
X62322Y457117D01*
X62255Y457139D01*
X62251Y457139D01*
X62247Y457140D01*
X62128Y457137D01*
X62009Y457135D01*
X62006Y457134D01*
X62002Y457134D01*
X61890Y457093D01*
X61777Y457053D01*
X61774Y457051D01*
X61771Y457049D01*
X61677Y456975D01*
X61584Y456901D01*
X61582Y456898D01*
X61578Y456895D01*
X61514Y456795D01*
X61449Y456696D01*
X61448Y456692D01*
X61445Y456689D01*
X61417Y456574D01*
X61386Y456458D01*
X61386Y456454D01*
X61385Y456450D01*
X61395Y456331D01*
X61403Y456212D01*
X61404Y456209D01*
X61405Y456205D01*
X61445Y456110D01*
X61449Y456093D01*
X61459Y456075D01*
X61497Y455985D01*
X61499Y455982D01*
X61501Y455978D01*
X61566Y455897D01*
X61575Y455882D01*
X61585Y455874D01*
X61606Y455848D01*
X66803Y450650D01*
X66803Y423986D01*
X66806Y423966D01*
X66804Y423947D01*
X66826Y423845D01*
X66842Y423743D01*
X66852Y423726D01*
X66856Y423706D01*
X66909Y423617D01*
X66958Y423526D01*
X66972Y423512D01*
X66982Y423495D01*
X67061Y423428D01*
X67136Y423356D01*
X67154Y423348D01*
X67169Y423335D01*
X67265Y423296D01*
X67359Y423253D01*
X67379Y423251D01*
X67397Y423243D01*
X67564Y423225D01*
X71156Y423225D01*
X72645Y421736D01*
X72645Y406018D01*
X72628Y405984D01*
X72595Y405938D01*
X72575Y405873D01*
X72546Y405812D01*
X72539Y405757D01*
X72523Y405703D01*
X72525Y405635D01*
X72517Y405568D01*
X72528Y405490D01*
X72529Y405457D01*
X72536Y405438D01*
X72542Y405402D01*
X72645Y405018D01*
X72645Y403286D01*
X64389Y403286D01*
X64370Y403283D01*
X64350Y403285D01*
X64248Y403263D01*
X64146Y403247D01*
X64129Y403237D01*
X64109Y403233D01*
X64020Y403180D01*
X63929Y403131D01*
X63915Y403117D01*
X63898Y403107D01*
X63831Y403028D01*
X63760Y402953D01*
X63752Y402935D01*
X63725Y402985D01*
X63711Y402999D01*
X63701Y403016D01*
X63622Y403083D01*
X63547Y403155D01*
X63529Y403163D01*
X63514Y403176D01*
X63417Y403215D01*
X63324Y403258D01*
X63304Y403260D01*
X63286Y403268D01*
X63119Y403286D01*
X54863Y403286D01*
X54863Y405018D01*
X54966Y405402D01*
X54973Y405470D01*
X54989Y405535D01*
X54985Y405591D01*
X54991Y405647D01*
X54976Y405713D01*
X54970Y405781D01*
X54948Y405832D01*
X54936Y405887D01*
X54900Y405945D01*
X54874Y406007D01*
X54863Y406020D01*
X54863Y421736D01*
X56352Y423225D01*
X58420Y423225D01*
X58440Y423228D01*
X58459Y423226D01*
X58561Y423248D01*
X58663Y423264D01*
X58680Y423274D01*
X58700Y423278D01*
X58789Y423331D01*
X58880Y423380D01*
X58894Y423394D01*
X58911Y423404D01*
X58978Y423483D01*
X59050Y423558D01*
X59058Y423576D01*
X59071Y423591D01*
X59110Y423687D01*
X59153Y423781D01*
X59155Y423801D01*
X59163Y423819D01*
X59181Y423986D01*
X59181Y447178D01*
X59167Y447268D01*
X59159Y447359D01*
X59147Y447389D01*
X59142Y447421D01*
X59099Y447502D01*
X59063Y447586D01*
X59037Y447618D01*
X59026Y447638D01*
X59003Y447661D01*
X58958Y447716D01*
X47412Y459263D01*
X47375Y459290D01*
X47344Y459323D01*
X47275Y459361D01*
X47212Y459406D01*
X47168Y459420D01*
X47128Y459442D01*
X47051Y459456D01*
X46977Y459479D01*
X46931Y459478D01*
X46886Y459486D01*
X46809Y459474D01*
X46731Y459472D01*
X46688Y459457D01*
X46643Y459450D01*
X46573Y459415D01*
X46500Y459388D01*
X46464Y459359D01*
X46423Y459338D01*
X46369Y459283D01*
X46308Y459234D01*
X46283Y459196D01*
X46251Y459163D01*
X46185Y459043D01*
X46175Y459027D01*
X46174Y459022D01*
X46170Y459016D01*
X45701Y457882D01*
X44022Y456203D01*
X42411Y455536D01*
X42311Y455474D01*
X42211Y455414D01*
X42207Y455410D01*
X42202Y455406D01*
X42127Y455316D01*
X42051Y455227D01*
X42049Y455222D01*
X42045Y455217D01*
X42003Y455108D01*
X41959Y454999D01*
X41958Y454992D01*
X41957Y454987D01*
X41956Y454969D01*
X41941Y454833D01*
X41941Y444634D01*
X41916Y444554D01*
X41917Y444517D01*
X41910Y444481D01*
X41920Y444395D01*
X41922Y444309D01*
X41935Y444274D01*
X41940Y444237D01*
X42004Y444082D01*
X45072Y438543D01*
X45118Y438485D01*
X45156Y438421D01*
X45193Y438389D01*
X45224Y438350D01*
X45286Y438309D01*
X45343Y438261D01*
X45389Y438243D01*
X45430Y438216D01*
X45502Y438197D01*
X45571Y438169D01*
X45638Y438162D01*
X45668Y438154D01*
X45693Y438156D01*
X45704Y438154D01*
X48047Y437184D01*
X49834Y435397D01*
X50801Y433063D01*
X50801Y430537D01*
X49834Y428203D01*
X48047Y426416D01*
X45713Y425449D01*
X43187Y425449D01*
X40853Y426416D01*
X39066Y428203D01*
X38099Y430537D01*
X38099Y433063D01*
X38513Y434062D01*
X38515Y434073D01*
X38521Y434082D01*
X38544Y434192D01*
X38569Y434302D01*
X38568Y434312D01*
X38570Y434323D01*
X38557Y434435D01*
X38546Y434546D01*
X38542Y434556D01*
X38540Y434567D01*
X38476Y434722D01*
X33937Y442917D01*
X33891Y442975D01*
X33853Y443039D01*
X33816Y443071D01*
X33785Y443110D01*
X33723Y443151D01*
X33666Y443199D01*
X33620Y443217D01*
X33579Y443244D01*
X33507Y443263D01*
X33438Y443291D01*
X33371Y443298D01*
X33341Y443306D01*
X33316Y443304D01*
X33271Y443309D01*
X27348Y443309D01*
X25938Y444719D01*
X25922Y444730D01*
X25910Y444746D01*
X25822Y444802D01*
X25739Y444862D01*
X25720Y444868D01*
X25703Y444879D01*
X25602Y444904D01*
X25503Y444934D01*
X25484Y444934D01*
X25464Y444939D01*
X25361Y444931D01*
X25258Y444928D01*
X25239Y444921D01*
X25219Y444920D01*
X25124Y444879D01*
X25027Y444844D01*
X25011Y444831D01*
X24993Y444823D01*
X24862Y444719D01*
X23452Y443309D01*
X22860Y443309D01*
X22840Y443306D01*
X22821Y443308D01*
X22719Y443286D01*
X22617Y443270D01*
X22600Y443260D01*
X22580Y443256D01*
X22491Y443203D01*
X22400Y443154D01*
X22386Y443140D01*
X22369Y443130D01*
X22302Y443051D01*
X22230Y442976D01*
X22222Y442958D01*
X22209Y442943D01*
X22170Y442847D01*
X22127Y442753D01*
X22125Y442733D01*
X22117Y442715D01*
X22099Y442548D01*
X22099Y430501D01*
X22106Y430455D01*
X22104Y430409D01*
X22126Y430335D01*
X22138Y430258D01*
X22160Y430217D01*
X22173Y430173D01*
X22217Y430109D01*
X22254Y430040D01*
X22287Y430009D01*
X22313Y429971D01*
X22376Y429925D01*
X22432Y429871D01*
X22474Y429852D01*
X22510Y429824D01*
X22584Y429800D01*
X22655Y429767D01*
X22701Y429762D01*
X22744Y429748D01*
X22822Y429749D01*
X22899Y429740D01*
X22944Y429750D01*
X22990Y429751D01*
X23122Y429789D01*
X23140Y429793D01*
X23144Y429795D01*
X23151Y429797D01*
X25229Y430658D01*
X27603Y430658D01*
X29798Y429749D01*
X31477Y428070D01*
X32386Y425875D01*
X32386Y424423D01*
X32400Y424333D01*
X32408Y424242D01*
X32420Y424212D01*
X32425Y424180D01*
X32468Y424099D01*
X32504Y424015D01*
X32530Y423983D01*
X32541Y423963D01*
X32564Y423940D01*
X32584Y423916D01*
X32587Y423910D01*
X32591Y423907D01*
X32609Y423885D01*
X35980Y420514D01*
X36053Y420461D01*
X36123Y420401D01*
X36153Y420389D01*
X36179Y420370D01*
X36266Y420343D01*
X36351Y420309D01*
X36392Y420305D01*
X36414Y420298D01*
X36447Y420299D01*
X36518Y420291D01*
X40452Y420291D01*
X41941Y418802D01*
X41941Y417322D01*
X41944Y417302D01*
X41942Y417283D01*
X41964Y417181D01*
X41980Y417079D01*
X41990Y417062D01*
X41994Y417042D01*
X42047Y416953D01*
X42096Y416862D01*
X42110Y416848D01*
X42120Y416831D01*
X42199Y416764D01*
X42274Y416692D01*
X42292Y416684D01*
X42307Y416671D01*
X42403Y416632D01*
X42497Y416589D01*
X42517Y416587D01*
X42535Y416579D01*
X42702Y416561D01*
X46028Y416561D01*
X48261Y414328D01*
X48261Y392836D01*
X48275Y392746D01*
X48283Y392655D01*
X48295Y392625D01*
X48300Y392593D01*
X48343Y392512D01*
X48379Y392429D01*
X48405Y392396D01*
X48416Y392376D01*
X48439Y392354D01*
X48484Y392298D01*
X49834Y390947D01*
X50801Y388613D01*
X50801Y386087D01*
X49834Y383753D01*
X49144Y383062D01*
X49102Y383004D01*
X49052Y382952D01*
X49030Y382905D01*
X49000Y382863D01*
X48979Y382794D01*
X48949Y382729D01*
X48943Y382677D01*
X48928Y382627D01*
X48930Y382556D01*
X48922Y382485D01*
X48933Y382434D01*
X48934Y382382D01*
X48959Y382314D01*
X48974Y382244D01*
X49001Y382199D01*
X49018Y382151D01*
X49063Y382095D01*
X49100Y382033D01*
X49140Y381999D01*
X49172Y381959D01*
X49232Y381920D01*
X49287Y381873D01*
X49335Y381854D01*
X49379Y381826D01*
X49449Y381808D01*
X49515Y381781D01*
X49586Y381773D01*
X49618Y381765D01*
X49641Y381767D01*
X49682Y381763D01*
X54139Y381763D01*
X54255Y381782D01*
X54374Y381800D01*
X54378Y381802D01*
X54382Y381802D01*
X54486Y381858D01*
X54592Y381913D01*
X54595Y381916D01*
X54599Y381918D01*
X54681Y382004D01*
X54764Y382089D01*
X54765Y382093D01*
X54768Y382096D01*
X54818Y382204D01*
X54870Y382311D01*
X54870Y382315D01*
X54872Y382319D01*
X54885Y382437D01*
X54899Y382555D01*
X54899Y382560D01*
X54899Y382563D01*
X54896Y382577D01*
X54874Y382721D01*
X54863Y382762D01*
X54863Y384494D01*
X63119Y384494D01*
X63138Y384497D01*
X63158Y384495D01*
X63260Y384517D01*
X63362Y384533D01*
X63379Y384543D01*
X63399Y384547D01*
X63488Y384600D01*
X63579Y384649D01*
X63593Y384663D01*
X63610Y384673D01*
X63677Y384752D01*
X63748Y384827D01*
X63757Y384845D01*
X63770Y384860D01*
X63808Y384956D01*
X63852Y385050D01*
X63854Y385070D01*
X63862Y385088D01*
X63880Y385255D01*
X63880Y386525D01*
X63877Y386545D01*
X63879Y386564D01*
X63857Y386666D01*
X63840Y386768D01*
X63831Y386785D01*
X63827Y386805D01*
X63774Y386894D01*
X63725Y386985D01*
X63711Y386999D01*
X63701Y387016D01*
X63622Y387083D01*
X63547Y387155D01*
X63529Y387163D01*
X63514Y387176D01*
X63417Y387215D01*
X63324Y387258D01*
X63304Y387260D01*
X63286Y387268D01*
X63119Y387286D01*
X54863Y387286D01*
X54863Y389018D01*
X54966Y389402D01*
X54973Y389470D01*
X54989Y389535D01*
X54985Y389591D01*
X54991Y389647D01*
X54976Y389713D01*
X54970Y389781D01*
X54948Y389832D01*
X54936Y389887D01*
X54900Y389945D01*
X54874Y390007D01*
X54863Y390020D01*
X54863Y397762D01*
X54880Y397796D01*
X54913Y397842D01*
X54933Y397907D01*
X54962Y397968D01*
X54969Y398023D01*
X54985Y398077D01*
X54983Y398145D01*
X54991Y398212D01*
X54980Y398290D01*
X54979Y398323D01*
X54972Y398342D01*
X54966Y398378D01*
X54863Y398762D01*
X54863Y400494D01*
X63119Y400494D01*
X63138Y400497D01*
X63158Y400495D01*
X63260Y400517D01*
X63362Y400533D01*
X63379Y400543D01*
X63399Y400547D01*
X63488Y400600D01*
X63579Y400649D01*
X63593Y400663D01*
X63610Y400673D01*
X63677Y400752D01*
X63748Y400827D01*
X63756Y400844D01*
X63783Y400795D01*
X63797Y400781D01*
X63807Y400764D01*
X63886Y400697D01*
X63961Y400625D01*
X63979Y400617D01*
X63994Y400604D01*
X64091Y400565D01*
X64184Y400522D01*
X64204Y400520D01*
X64222Y400512D01*
X64389Y400494D01*
X72645Y400494D01*
X72645Y398762D01*
X72542Y398378D01*
X72535Y398310D01*
X72519Y398245D01*
X72523Y398189D01*
X72517Y398133D01*
X72532Y398067D01*
X72538Y397999D01*
X72560Y397948D01*
X72572Y397893D01*
X72608Y397835D01*
X72634Y397773D01*
X72645Y397760D01*
X72645Y396356D01*
X72659Y396266D01*
X72667Y396175D01*
X72679Y396145D01*
X72684Y396113D01*
X72727Y396032D01*
X72763Y395948D01*
X72789Y395916D01*
X72800Y395896D01*
X72823Y395874D01*
X72868Y395817D01*
X75154Y393532D01*
X76963Y391722D01*
X76963Y383910D01*
X76977Y383820D01*
X76985Y383729D01*
X76997Y383699D01*
X77002Y383667D01*
X77045Y383586D01*
X77081Y383502D01*
X77107Y383470D01*
X77118Y383450D01*
X77141Y383427D01*
X77186Y383372D01*
X78572Y381986D01*
X78645Y381933D01*
X78715Y381873D01*
X78745Y381861D01*
X78771Y381842D01*
X78858Y381815D01*
X78943Y381781D01*
X78984Y381777D01*
X79006Y381770D01*
X79039Y381771D01*
X79110Y381763D01*
X91723Y381763D01*
X91769Y381770D01*
X91815Y381768D01*
X91889Y381790D01*
X91966Y381802D01*
X92007Y381824D01*
X92051Y381837D01*
X92115Y381881D01*
X92184Y381918D01*
X92215Y381951D01*
X92253Y381977D01*
X92299Y382040D01*
X92353Y382096D01*
X92372Y382138D01*
X92400Y382174D01*
X92424Y382248D01*
X92457Y382319D01*
X92462Y382365D01*
X92476Y382408D01*
X92475Y382486D01*
X92484Y382563D01*
X92474Y382608D01*
X92473Y382654D01*
X92435Y382786D01*
X92431Y382804D01*
X92429Y382808D01*
X92428Y382812D01*
X92427Y382813D01*
X92427Y382815D01*
X91566Y384893D01*
X91566Y386345D01*
X91564Y386362D01*
X91565Y386378D01*
X91551Y386444D01*
X91544Y386526D01*
X91532Y386556D01*
X91527Y386588D01*
X91515Y386610D01*
X91513Y386618D01*
X91492Y386653D01*
X91484Y386669D01*
X91448Y386753D01*
X91422Y386785D01*
X91411Y386805D01*
X91388Y386828D01*
X91343Y386884D01*
X75437Y402790D01*
X75437Y423164D01*
X75434Y423184D01*
X75436Y423203D01*
X75414Y423305D01*
X75398Y423407D01*
X75388Y423424D01*
X75384Y423444D01*
X75331Y423533D01*
X75282Y423624D01*
X75268Y423638D01*
X75258Y423655D01*
X75179Y423722D01*
X75104Y423794D01*
X75086Y423802D01*
X75071Y423815D01*
X74975Y423854D01*
X74881Y423897D01*
X74861Y423899D01*
X74858Y423901D01*
X73345Y425414D01*
X73345Y440218D01*
X74834Y441707D01*
X84466Y441707D01*
X84556Y441721D01*
X84647Y441729D01*
X84677Y441741D01*
X84709Y441746D01*
X84790Y441789D01*
X84874Y441825D01*
X84906Y441851D01*
X84926Y441862D01*
X84949Y441885D01*
X85004Y441930D01*
X95534Y452460D01*
X97304Y454229D01*
X97361Y454308D01*
X97423Y454383D01*
X97432Y454408D01*
X97448Y454429D01*
X97476Y454522D01*
X97511Y454613D01*
X97512Y454639D01*
X97520Y454664D01*
X97517Y454761D01*
X97522Y454859D01*
X97514Y454884D01*
X97514Y454910D01*
X97480Y455001D01*
X97453Y455095D01*
X97438Y455116D01*
X97429Y455141D01*
X97368Y455217D01*
X97313Y455297D01*
X97292Y455313D01*
X97275Y455333D01*
X97193Y455386D01*
X97115Y455444D01*
X97091Y455452D01*
X97069Y455466D01*
X96974Y455490D01*
X96882Y455520D01*
X96855Y455520D01*
X96830Y455526D01*
X96733Y455519D01*
X96636Y455518D01*
X96604Y455508D01*
X96585Y455507D01*
X96555Y455494D01*
X96474Y455471D01*
X96355Y455421D01*
X91605Y455421D01*
X87217Y457239D01*
X83859Y460597D01*
X82041Y464985D01*
X82041Y469735D01*
X83859Y474123D01*
X87217Y477481D01*
X91605Y479299D01*
X96355Y479299D01*
X100743Y477481D01*
X104101Y474123D01*
X105919Y469735D01*
X105919Y464985D01*
X104101Y460597D01*
X100743Y457239D01*
X98668Y456379D01*
X98585Y456328D01*
X98499Y456282D01*
X98481Y456263D01*
X98459Y456250D01*
X98396Y456175D01*
X98329Y456104D01*
X98318Y456080D01*
X98302Y456060D01*
X98267Y455969D01*
X98226Y455881D01*
X98223Y455855D01*
X98214Y455831D01*
X98209Y455733D01*
X98199Y455637D01*
X98204Y455611D01*
X98203Y455585D01*
X98230Y455491D01*
X98251Y455396D01*
X98264Y455374D01*
X98272Y455349D01*
X98327Y455269D01*
X98377Y455185D01*
X98397Y455168D01*
X98412Y455147D01*
X98490Y455088D01*
X98564Y455025D01*
X98588Y455015D01*
X98609Y455000D01*
X98702Y454970D01*
X98792Y454933D01*
X98825Y454930D01*
X98843Y454924D01*
X98876Y454924D01*
X98959Y454915D01*
X114401Y454915D01*
X114497Y454930D01*
X114594Y454940D01*
X114618Y454950D01*
X114644Y454954D01*
X114730Y455000D01*
X114819Y455040D01*
X114838Y455057D01*
X114861Y455070D01*
X114928Y455140D01*
X115000Y455206D01*
X115013Y455229D01*
X115031Y455248D01*
X115072Y455336D01*
X115119Y455422D01*
X115123Y455447D01*
X115134Y455471D01*
X115145Y455568D01*
X115162Y455664D01*
X115158Y455690D01*
X115161Y455715D01*
X115141Y455811D01*
X115126Y455907D01*
X115115Y455930D01*
X115109Y455956D01*
X115059Y456039D01*
X115015Y456126D01*
X114996Y456145D01*
X114983Y456167D01*
X114909Y456230D01*
X114839Y456298D01*
X114811Y456314D01*
X114796Y456327D01*
X114765Y456339D01*
X114692Y456379D01*
X112617Y457239D01*
X109259Y460597D01*
X107441Y464985D01*
X107441Y469735D01*
X108680Y472725D01*
X108706Y472838D01*
X108735Y472952D01*
X108735Y472958D01*
X108736Y472964D01*
X108725Y473081D01*
X108716Y473197D01*
X108713Y473203D01*
X108713Y473209D01*
X108665Y473317D01*
X108620Y473423D01*
X108615Y473429D01*
X108613Y473434D01*
X108600Y473448D01*
X108515Y473554D01*
X97947Y484122D01*
X97947Y490508D01*
X97944Y490528D01*
X97946Y490547D01*
X97924Y490649D01*
X97908Y490751D01*
X97898Y490768D01*
X97894Y490788D01*
X97841Y490877D01*
X97792Y490968D01*
X97778Y490982D01*
X97768Y490999D01*
X97689Y491066D01*
X97614Y491138D01*
X97596Y491146D01*
X97581Y491159D01*
X97485Y491198D01*
X97391Y491241D01*
X97371Y491243D01*
X97353Y491251D01*
X97186Y491269D01*
X90011Y491269D01*
X90011Y491890D01*
X89997Y491980D01*
X89990Y492071D01*
X89984Y492085D01*
X89982Y492100D01*
X89975Y492115D01*
X89972Y492133D01*
X89929Y492214D01*
X89893Y492297D01*
X89882Y492312D01*
X89877Y492322D01*
X89865Y492335D01*
X89857Y492350D01*
X89833Y492372D01*
X89788Y492428D01*
X89788Y492429D01*
X89744Y492460D01*
X89706Y492500D01*
X89691Y492508D01*
X89678Y492520D01*
X89631Y492542D01*
X89589Y492572D01*
X89537Y492588D01*
X89488Y492613D01*
X89471Y492616D01*
X89455Y492623D01*
X89404Y492629D01*
X89353Y492644D01*
X89299Y492643D01*
X89245Y492652D01*
X89227Y492649D01*
X89211Y492650D01*
X89210Y492650D01*
X89160Y492639D01*
X89108Y492638D01*
X89056Y492619D01*
X89003Y492610D01*
X88987Y492602D01*
X88970Y492598D01*
X88926Y492572D01*
X88877Y492554D01*
X88834Y492520D01*
X88786Y492494D01*
X88770Y492479D01*
X88759Y492472D01*
X88739Y492448D01*
X88708Y492418D01*
X88685Y492400D01*
X88678Y492390D01*
X88665Y492378D01*
X88665Y492377D01*
X88636Y492328D01*
X88599Y492285D01*
X88579Y492236D01*
X88552Y492193D01*
X88548Y492179D01*
X88540Y492166D01*
X88528Y492110D01*
X88507Y492057D01*
X88499Y491985D01*
X88491Y491955D01*
X88493Y491940D01*
X88489Y491925D01*
X88491Y491911D01*
X88489Y491890D01*
X88489Y491269D01*
X82898Y491269D01*
X81409Y492758D01*
X81409Y497208D01*
X81406Y497228D01*
X81408Y497247D01*
X81386Y497349D01*
X81370Y497451D01*
X81360Y497468D01*
X81356Y497488D01*
X81303Y497577D01*
X81254Y497668D01*
X81240Y497682D01*
X81230Y497699D01*
X81151Y497766D01*
X81076Y497838D01*
X81058Y497846D01*
X81043Y497859D01*
X80947Y497898D01*
X80853Y497941D01*
X80833Y497943D01*
X80815Y497951D01*
X80648Y497969D01*
X76198Y497969D01*
X74709Y499458D01*
X74709Y524162D01*
X76198Y525651D01*
X80648Y525651D01*
X80668Y525654D01*
X80687Y525652D01*
X80789Y525674D01*
X80891Y525690D01*
X80908Y525700D01*
X80928Y525704D01*
X81017Y525757D01*
X81108Y525806D01*
X81122Y525820D01*
X81139Y525830D01*
X81206Y525909D01*
X81278Y525984D01*
X81286Y526002D01*
X81299Y526017D01*
X81338Y526113D01*
X81381Y526207D01*
X81383Y526227D01*
X81391Y526245D01*
X81409Y526412D01*
X81409Y530862D01*
X82898Y532351D01*
X89186Y532351D01*
X89206Y532354D01*
X89225Y532352D01*
X89327Y532374D01*
X89429Y532390D01*
X89446Y532400D01*
X89466Y532404D01*
X89555Y532457D01*
X89646Y532506D01*
X89660Y532520D01*
X89677Y532530D01*
X89744Y532609D01*
X89816Y532684D01*
X89824Y532702D01*
X89837Y532717D01*
X89876Y532813D01*
X89919Y532907D01*
X89921Y532927D01*
X89929Y532945D01*
X89947Y533112D01*
X89947Y533717D01*
X89933Y533807D01*
X89925Y533898D01*
X89913Y533927D01*
X89908Y533959D01*
X89865Y534040D01*
X89829Y534124D01*
X89803Y534156D01*
X89792Y534177D01*
X89769Y534199D01*
X89724Y534255D01*
X87755Y536224D01*
X87681Y536277D01*
X87612Y536337D01*
X87581Y536349D01*
X87555Y536368D01*
X87468Y536395D01*
X87383Y536429D01*
X87342Y536433D01*
X87320Y536440D01*
X87288Y536439D01*
X87217Y536447D01*
X71533Y536447D01*
X71443Y536433D01*
X71352Y536425D01*
X71323Y536413D01*
X71291Y536408D01*
X71210Y536365D01*
X71126Y536329D01*
X71094Y536303D01*
X71073Y536292D01*
X71051Y536269D01*
X70995Y536224D01*
X62826Y528055D01*
X62773Y527981D01*
X62713Y527912D01*
X62701Y527881D01*
X62682Y527855D01*
X62655Y527768D01*
X62621Y527683D01*
X62617Y527642D01*
X62610Y527620D01*
X62611Y527588D01*
X62603Y527517D01*
X62603Y522652D01*
X62606Y522632D01*
X62604Y522613D01*
X62626Y522511D01*
X62642Y522409D01*
X62652Y522392D01*
X62656Y522372D01*
X62709Y522283D01*
X62758Y522192D01*
X62772Y522178D01*
X62782Y522161D01*
X62861Y522094D01*
X62936Y522022D01*
X62954Y522014D01*
X62969Y522001D01*
X63065Y521962D01*
X63159Y521919D01*
X63179Y521917D01*
X63197Y521909D01*
X63364Y521891D01*
X65852Y521891D01*
X67341Y520402D01*
X67341Y508298D01*
X65852Y506809D01*
X52748Y506809D01*
X51242Y508314D01*
X51147Y508383D01*
X51050Y508454D01*
X51046Y508456D01*
X51043Y508458D01*
X50930Y508493D01*
X50816Y508529D01*
X50812Y508529D01*
X50808Y508530D01*
X50689Y508527D01*
X50570Y508525D01*
X50566Y508524D01*
X50562Y508524D01*
X50450Y508483D01*
X50338Y508444D01*
X50335Y508441D01*
X50331Y508440D01*
X50237Y508365D01*
X50144Y508292D01*
X50141Y508288D01*
X50139Y508286D01*
X50131Y508274D01*
X50045Y508157D01*
X49833Y507790D01*
X49360Y507317D01*
X48781Y506982D01*
X48134Y506809D01*
X43823Y506809D01*
X43823Y513588D01*
X43820Y513608D01*
X43822Y513627D01*
X43800Y513729D01*
X43783Y513831D01*
X43774Y513848D01*
X43770Y513868D01*
X43717Y513957D01*
X43668Y514048D01*
X43654Y514062D01*
X43644Y514079D01*
X43565Y514146D01*
X43490Y514217D01*
X43472Y514226D01*
X43457Y514239D01*
X43361Y514278D01*
X43267Y514321D01*
X43247Y514323D01*
X43229Y514331D01*
X43062Y514349D01*
X42299Y514349D01*
X42299Y514351D01*
X43062Y514351D01*
X43082Y514354D01*
X43101Y514352D01*
X43203Y514374D01*
X43305Y514391D01*
X43322Y514400D01*
X43342Y514404D01*
X43431Y514457D01*
X43522Y514506D01*
X43536Y514520D01*
X43553Y514530D01*
X43620Y514609D01*
X43691Y514684D01*
X43700Y514702D01*
X43713Y514717D01*
X43752Y514813D01*
X43795Y514907D01*
X43797Y514927D01*
X43805Y514945D01*
X43823Y515112D01*
X43823Y521891D01*
X48134Y521891D01*
X48781Y521718D01*
X49360Y521383D01*
X49833Y520910D01*
X50045Y520543D01*
X50121Y520450D01*
X50194Y520358D01*
X50198Y520356D01*
X50201Y520353D01*
X50302Y520289D01*
X50401Y520225D01*
X50405Y520224D01*
X50409Y520222D01*
X50525Y520194D01*
X50640Y520165D01*
X50644Y520166D01*
X50648Y520165D01*
X50767Y520175D01*
X50885Y520184D01*
X50889Y520186D01*
X50893Y520186D01*
X51003Y520234D01*
X51111Y520281D01*
X51115Y520284D01*
X51118Y520285D01*
X51129Y520295D01*
X51242Y520386D01*
X52748Y521891D01*
X55236Y521891D01*
X55256Y521894D01*
X55275Y521892D01*
X55377Y521914D01*
X55479Y521930D01*
X55496Y521940D01*
X55516Y521944D01*
X55605Y521997D01*
X55696Y522046D01*
X55710Y522060D01*
X55727Y522070D01*
X55794Y522149D01*
X55866Y522224D01*
X55874Y522242D01*
X55887Y522257D01*
X55926Y522353D01*
X55969Y522447D01*
X55971Y522467D01*
X55979Y522485D01*
X55997Y522652D01*
X55997Y530568D01*
X68482Y543053D01*
X90268Y543053D01*
X96553Y536768D01*
X96553Y534861D01*
X96564Y534791D01*
X96566Y534719D01*
X96584Y534670D01*
X96592Y534619D01*
X96626Y534555D01*
X96651Y534488D01*
X96683Y534447D01*
X96708Y534401D01*
X96760Y534352D01*
X96804Y534296D01*
X96848Y534268D01*
X96886Y534232D01*
X96951Y534202D01*
X97011Y534163D01*
X97062Y534150D01*
X97109Y534128D01*
X97180Y534120D01*
X97250Y534103D01*
X97302Y534107D01*
X97353Y534101D01*
X97424Y534116D01*
X97495Y534122D01*
X97543Y534142D01*
X97594Y534153D01*
X97655Y534190D01*
X97721Y534218D01*
X97777Y534263D01*
X97805Y534280D01*
X97820Y534297D01*
X97852Y534323D01*
X103154Y539625D01*
X105312Y541783D01*
X116938Y541783D01*
X123953Y534768D01*
X123953Y505874D01*
X123956Y505854D01*
X123954Y505835D01*
X123976Y505733D01*
X123992Y505631D01*
X124002Y505614D01*
X124006Y505594D01*
X124059Y505505D01*
X124108Y505414D01*
X124122Y505400D01*
X124132Y505383D01*
X124211Y505316D01*
X124286Y505244D01*
X124304Y505236D01*
X124319Y505223D01*
X124415Y505184D01*
X124509Y505141D01*
X124529Y505139D01*
X124547Y505131D01*
X124714Y505113D01*
X130424Y505113D01*
X130514Y505127D01*
X130605Y505135D01*
X130635Y505147D01*
X130667Y505152D01*
X130748Y505195D01*
X130832Y505231D01*
X130864Y505257D01*
X130884Y505268D01*
X130907Y505291D01*
X130963Y505336D01*
X132228Y506601D01*
X137832Y506601D01*
X137883Y506550D01*
X137919Y506524D01*
X137948Y506492D01*
X138018Y506453D01*
X138083Y506407D01*
X138125Y506394D01*
X138163Y506372D01*
X138241Y506358D01*
X138318Y506334D01*
X138362Y506335D01*
X138405Y506327D01*
X138484Y506338D01*
X138564Y506341D01*
X138605Y506356D01*
X138648Y506362D01*
X138782Y506420D01*
X138795Y506425D01*
X138797Y506427D01*
X139446Y506601D01*
X140656Y506601D01*
X140656Y501673D01*
X140659Y501654D01*
X140657Y501634D01*
X140679Y501532D01*
X140695Y501430D01*
X140705Y501413D01*
X140709Y501393D01*
X140762Y501304D01*
X140811Y501213D01*
X140825Y501199D01*
X140835Y501182D01*
X140914Y501115D01*
X140989Y501044D01*
X141007Y501035D01*
X141022Y501022D01*
X141118Y500984D01*
X141212Y500940D01*
X141232Y500938D01*
X141250Y500930D01*
X141417Y500912D01*
X141643Y500912D01*
X141663Y500915D01*
X141682Y500913D01*
X141784Y500935D01*
X141886Y500952D01*
X141903Y500961D01*
X141923Y500965D01*
X142012Y501018D01*
X142103Y501067D01*
X142117Y501081D01*
X142134Y501091D01*
X142201Y501170D01*
X142273Y501245D01*
X142281Y501263D01*
X142294Y501278D01*
X142333Y501375D01*
X142376Y501468D01*
X142378Y501488D01*
X142386Y501506D01*
X142404Y501673D01*
X142404Y506601D01*
X143614Y506601D01*
X144265Y506426D01*
X144299Y506414D01*
X144336Y506390D01*
X144413Y506370D01*
X144488Y506342D01*
X144532Y506341D01*
X144574Y506330D01*
X144654Y506336D01*
X144734Y506333D01*
X144776Y506346D01*
X144820Y506349D01*
X144893Y506380D01*
X144970Y506403D01*
X145006Y506428D01*
X145046Y506445D01*
X145160Y506536D01*
X145171Y506544D01*
X145173Y506547D01*
X145177Y506550D01*
X145228Y506601D01*
X150832Y506601D01*
X150883Y506550D01*
X150919Y506524D01*
X150948Y506492D01*
X151018Y506453D01*
X151083Y506407D01*
X151125Y506394D01*
X151163Y506372D01*
X151241Y506358D01*
X151318Y506334D01*
X151362Y506335D01*
X151405Y506327D01*
X151484Y506338D01*
X151564Y506341D01*
X151605Y506356D01*
X151648Y506362D01*
X151782Y506420D01*
X151795Y506425D01*
X151797Y506427D01*
X152446Y506601D01*
X153656Y506601D01*
X153656Y501673D01*
X153659Y501654D01*
X153657Y501634D01*
X153679Y501532D01*
X153695Y501430D01*
X153705Y501413D01*
X153709Y501393D01*
X153762Y501304D01*
X153811Y501213D01*
X153825Y501199D01*
X153835Y501182D01*
X153914Y501115D01*
X153989Y501044D01*
X154007Y501035D01*
X154022Y501022D01*
X154118Y500984D01*
X154212Y500940D01*
X154232Y500938D01*
X154250Y500930D01*
X154417Y500912D01*
X154643Y500912D01*
X154663Y500915D01*
X154682Y500913D01*
X154784Y500935D01*
X154886Y500952D01*
X154903Y500961D01*
X154923Y500965D01*
X155012Y501018D01*
X155103Y501067D01*
X155117Y501081D01*
X155134Y501091D01*
X155201Y501170D01*
X155273Y501245D01*
X155281Y501263D01*
X155294Y501278D01*
X155333Y501375D01*
X155376Y501468D01*
X155378Y501488D01*
X155386Y501506D01*
X155404Y501673D01*
X155404Y506601D01*
X155956Y506601D01*
X155976Y506604D01*
X155995Y506602D01*
X156097Y506624D01*
X156199Y506640D01*
X156216Y506650D01*
X156236Y506654D01*
X156325Y506707D01*
X156416Y506756D01*
X156430Y506770D01*
X156447Y506780D01*
X156514Y506859D01*
X156586Y506934D01*
X156594Y506952D01*
X156607Y506967D01*
X156646Y507063D01*
X156689Y507157D01*
X156691Y507177D01*
X156699Y507195D01*
X156717Y507362D01*
X156717Y507442D01*
X156710Y507487D01*
X156712Y507533D01*
X156690Y507608D01*
X156678Y507684D01*
X156656Y507725D01*
X156643Y507769D01*
X156599Y507833D01*
X156562Y507902D01*
X156529Y507933D01*
X156503Y507971D01*
X156440Y508018D01*
X156384Y508071D01*
X156342Y508091D01*
X156306Y508118D01*
X156232Y508142D01*
X156161Y508175D01*
X156115Y508180D01*
X156072Y508194D01*
X155994Y508193D01*
X155917Y508202D01*
X155872Y508192D01*
X155826Y508192D01*
X155695Y508154D01*
X155676Y508150D01*
X155672Y508147D01*
X155665Y508145D01*
X155619Y508126D01*
X153245Y508126D01*
X151050Y509035D01*
X149371Y510714D01*
X148462Y512909D01*
X148462Y515283D01*
X148745Y515967D01*
X148756Y516011D01*
X148775Y516053D01*
X148784Y516130D01*
X148801Y516206D01*
X148797Y516252D01*
X148802Y516297D01*
X148786Y516374D01*
X148778Y516451D01*
X148760Y516493D01*
X148750Y516538D01*
X148710Y516605D01*
X148678Y516676D01*
X148647Y516710D01*
X148624Y516749D01*
X148565Y516800D01*
X148512Y516857D01*
X148472Y516879D01*
X148437Y516909D01*
X148365Y516938D01*
X148296Y516975D01*
X148251Y516984D01*
X148209Y517001D01*
X148073Y517016D01*
X148054Y517019D01*
X148049Y517018D01*
X148042Y517019D01*
X145192Y517019D01*
X145119Y517072D01*
X145099Y517078D01*
X145083Y517089D01*
X144982Y517114D01*
X144883Y517144D01*
X144863Y517144D01*
X144844Y517149D01*
X144741Y517141D01*
X144638Y517138D01*
X144619Y517131D01*
X144599Y517130D01*
X144504Y517089D01*
X144407Y517054D01*
X144391Y517041D01*
X144373Y517033D01*
X144355Y517019D01*
X138728Y517019D01*
X138677Y517070D01*
X138641Y517096D01*
X138612Y517128D01*
X138560Y517157D01*
X138553Y517163D01*
X138541Y517168D01*
X138477Y517213D01*
X138435Y517226D01*
X138397Y517248D01*
X138319Y517262D01*
X138242Y517286D01*
X138198Y517285D01*
X138155Y517293D01*
X138076Y517282D01*
X137996Y517279D01*
X137955Y517264D01*
X137912Y517258D01*
X137778Y517200D01*
X137765Y517195D01*
X137763Y517193D01*
X137114Y517019D01*
X135904Y517019D01*
X135904Y521947D01*
X135901Y521966D01*
X135903Y521986D01*
X135890Y522046D01*
X135904Y522173D01*
X135904Y527101D01*
X137114Y527101D01*
X137765Y526926D01*
X137799Y526914D01*
X137836Y526890D01*
X137913Y526870D01*
X137988Y526842D01*
X138032Y526841D01*
X138074Y526830D01*
X138154Y526836D01*
X138234Y526833D01*
X138276Y526846D01*
X138320Y526849D01*
X138393Y526880D01*
X138470Y526903D01*
X138506Y526928D01*
X138546Y526945D01*
X138660Y527036D01*
X138671Y527044D01*
X138673Y527047D01*
X138677Y527050D01*
X138728Y527101D01*
X140050Y527101D01*
X140095Y527108D01*
X140141Y527106D01*
X140216Y527128D01*
X140293Y527140D01*
X140333Y527162D01*
X140377Y527175D01*
X140441Y527219D01*
X140510Y527256D01*
X140542Y527289D01*
X140579Y527315D01*
X140626Y527377D01*
X140679Y527434D01*
X140699Y527476D01*
X140726Y527512D01*
X140750Y527586D01*
X140783Y527657D01*
X140788Y527703D01*
X140802Y527746D01*
X140802Y527824D01*
X140810Y527901D01*
X140800Y527946D01*
X140800Y527992D01*
X140762Y528123D01*
X140758Y528142D01*
X140755Y528146D01*
X140753Y528153D01*
X140334Y529165D01*
X140334Y531539D01*
X141243Y533734D01*
X142922Y535413D01*
X145117Y536322D01*
X147491Y536322D01*
X149686Y535413D01*
X151365Y533734D01*
X152274Y531539D01*
X152274Y529165D01*
X151855Y528153D01*
X151844Y528109D01*
X151825Y528067D01*
X151816Y527990D01*
X151799Y527914D01*
X151803Y527868D01*
X151798Y527823D01*
X151814Y527746D01*
X151822Y527669D01*
X151840Y527627D01*
X151850Y527582D01*
X151890Y527515D01*
X151922Y527444D01*
X151953Y527410D01*
X151976Y527371D01*
X152036Y527320D01*
X152088Y527263D01*
X152128Y527241D01*
X152163Y527211D01*
X152236Y527182D01*
X152304Y527145D01*
X152349Y527136D01*
X152391Y527119D01*
X152527Y527104D01*
X152546Y527101D01*
X152551Y527102D01*
X152558Y527101D01*
X157332Y527101D01*
X158821Y525612D01*
X158821Y518465D01*
X158835Y518375D01*
X158843Y518284D01*
X158855Y518254D01*
X158860Y518222D01*
X158903Y518142D01*
X158939Y518058D01*
X158965Y518026D01*
X158976Y518005D01*
X158999Y517983D01*
X159044Y517927D01*
X159493Y517478D01*
X159962Y516344D01*
X159987Y516305D01*
X160002Y516262D01*
X160051Y516201D01*
X160092Y516135D01*
X160127Y516106D01*
X160156Y516070D01*
X160222Y516028D01*
X160282Y515978D01*
X160324Y515962D01*
X160363Y515937D01*
X160439Y515918D01*
X160511Y515890D01*
X160557Y515888D01*
X160601Y515877D01*
X160679Y515883D01*
X160757Y515880D01*
X160801Y515892D01*
X160847Y515896D01*
X160918Y515926D01*
X160993Y515948D01*
X161031Y515974D01*
X161073Y515992D01*
X161180Y516078D01*
X161195Y516088D01*
X161198Y516093D01*
X161204Y516097D01*
X174782Y529676D01*
X174826Y529737D01*
X174874Y529786D01*
X174881Y529803D01*
X174895Y529819D01*
X174907Y529849D01*
X174926Y529875D01*
X174948Y529946D01*
X174977Y530009D01*
X174979Y530028D01*
X174987Y530047D01*
X174991Y530088D01*
X174998Y530110D01*
X174997Y530143D01*
X175005Y530214D01*
X175005Y531448D01*
X175002Y531468D01*
X175004Y531487D01*
X174982Y531589D01*
X174966Y531691D01*
X174956Y531708D01*
X174952Y531728D01*
X174899Y531817D01*
X174850Y531908D01*
X174836Y531922D01*
X174826Y531939D01*
X174747Y532006D01*
X174672Y532078D01*
X174654Y532086D01*
X174639Y532099D01*
X174543Y532138D01*
X174449Y532181D01*
X174429Y532183D01*
X174411Y532191D01*
X174244Y532209D01*
X172908Y532209D01*
X171419Y533698D01*
X171419Y535940D01*
X171416Y535960D01*
X171418Y535979D01*
X171396Y536081D01*
X171380Y536183D01*
X171370Y536200D01*
X171366Y536220D01*
X171313Y536309D01*
X171264Y536400D01*
X171250Y536414D01*
X171240Y536431D01*
X171161Y536498D01*
X171086Y536570D01*
X171068Y536578D01*
X171053Y536591D01*
X170957Y536630D01*
X170863Y536673D01*
X170843Y536675D01*
X170825Y536683D01*
X170658Y536701D01*
X158950Y536701D01*
X132333Y563318D01*
X132333Y572570D01*
X134788Y575026D01*
X140523Y580760D01*
X140564Y580818D01*
X140614Y580870D01*
X140636Y580917D01*
X140666Y580959D01*
X140687Y581028D01*
X140717Y581093D01*
X140723Y581145D01*
X140738Y581195D01*
X140737Y581266D01*
X140744Y581337D01*
X140733Y581388D01*
X140732Y581440D01*
X140707Y581508D01*
X140692Y581578D01*
X140666Y581623D01*
X140648Y581671D01*
X140603Y581727D01*
X140566Y581789D01*
X140526Y581823D01*
X140494Y581863D01*
X140434Y581902D01*
X140379Y581949D01*
X140331Y581968D01*
X140287Y581996D01*
X140218Y582014D01*
X140151Y582041D01*
X140080Y582049D01*
X140048Y582057D01*
X140025Y582055D01*
X139984Y582059D01*
X139299Y582059D01*
X137810Y583548D01*
X137810Y591152D01*
X137888Y591230D01*
X137900Y591246D01*
X137915Y591259D01*
X137971Y591346D01*
X138032Y591430D01*
X138037Y591449D01*
X138048Y591466D01*
X138074Y591566D01*
X138104Y591665D01*
X138103Y591685D01*
X138108Y591704D01*
X138100Y591807D01*
X138098Y591911D01*
X138091Y591930D01*
X138089Y591949D01*
X138049Y592044D01*
X138013Y592142D01*
X138001Y592158D01*
X137993Y592176D01*
X137888Y592307D01*
X128359Y601836D01*
X128285Y601889D01*
X128215Y601949D01*
X128185Y601961D01*
X128159Y601980D01*
X128072Y602007D01*
X127987Y602041D01*
X127946Y602045D01*
X127924Y602052D01*
X127892Y602051D01*
X127820Y602059D01*
X118298Y602059D01*
X116809Y603548D01*
X116809Y615652D01*
X118298Y617141D01*
X131402Y617141D01*
X132812Y615731D01*
X132828Y615720D01*
X132840Y615704D01*
X132928Y615648D01*
X133011Y615588D01*
X133030Y615582D01*
X133047Y615571D01*
X133148Y615546D01*
X133247Y615516D01*
X133266Y615516D01*
X133286Y615511D01*
X133389Y615519D01*
X133492Y615522D01*
X133511Y615529D01*
X133531Y615530D01*
X133626Y615571D01*
X133723Y615606D01*
X133739Y615619D01*
X133757Y615627D01*
X133888Y615731D01*
X135298Y617141D01*
X148402Y617141D01*
X149891Y615652D01*
X149891Y614172D01*
X149894Y614152D01*
X149892Y614133D01*
X149914Y614031D01*
X149930Y613929D01*
X149940Y613912D01*
X149944Y613892D01*
X149997Y613803D01*
X150046Y613712D01*
X150060Y613698D01*
X150070Y613681D01*
X150149Y613614D01*
X150224Y613542D01*
X150242Y613534D01*
X150257Y613521D01*
X150353Y613482D01*
X150447Y613439D01*
X150467Y613437D01*
X150485Y613429D01*
X150652Y613411D01*
X169618Y613411D01*
X169638Y613414D01*
X169657Y613412D01*
X169759Y613434D01*
X169861Y613450D01*
X169878Y613460D01*
X169898Y613464D01*
X169987Y613517D01*
X170078Y613566D01*
X170092Y613580D01*
X170109Y613590D01*
X170176Y613669D01*
X170248Y613744D01*
X170256Y613762D01*
X170269Y613777D01*
X170308Y613873D01*
X170351Y613967D01*
X170353Y613987D01*
X170361Y614005D01*
X170379Y614172D01*
X170379Y614774D01*
X172746Y617141D01*
X183094Y617141D01*
X185461Y614774D01*
X185461Y604426D01*
X183094Y602059D01*
X172746Y602059D01*
X170379Y604426D01*
X170379Y605028D01*
X170376Y605048D01*
X170378Y605067D01*
X170356Y605169D01*
X170340Y605271D01*
X170330Y605288D01*
X170326Y605308D01*
X170273Y605397D01*
X170224Y605488D01*
X170210Y605502D01*
X170200Y605519D01*
X170121Y605586D01*
X170046Y605658D01*
X170028Y605666D01*
X170013Y605679D01*
X169917Y605718D01*
X169823Y605761D01*
X169803Y605763D01*
X169785Y605771D01*
X169618Y605789D01*
X150652Y605789D01*
X150632Y605786D01*
X150613Y605788D01*
X150511Y605766D01*
X150409Y605750D01*
X150392Y605740D01*
X150372Y605736D01*
X150283Y605683D01*
X150192Y605634D01*
X150178Y605620D01*
X150161Y605610D01*
X150094Y605531D01*
X150022Y605456D01*
X150014Y605438D01*
X150001Y605423D01*
X149962Y605327D01*
X149919Y605233D01*
X149917Y605213D01*
X149909Y605195D01*
X149891Y605028D01*
X149891Y603548D01*
X148402Y602059D01*
X140752Y602059D01*
X140681Y602048D01*
X140609Y602046D01*
X140560Y602028D01*
X140509Y602020D01*
X140446Y601986D01*
X140378Y601961D01*
X140338Y601929D01*
X140292Y601904D01*
X140242Y601853D01*
X140186Y601808D01*
X140158Y601764D01*
X140122Y601726D01*
X140092Y601661D01*
X140053Y601601D01*
X140041Y601550D01*
X140019Y601503D01*
X140011Y601432D01*
X139993Y601362D01*
X139997Y601310D01*
X139992Y601259D01*
X140007Y601188D01*
X140012Y601117D01*
X140033Y601069D01*
X140044Y601018D01*
X140081Y600957D01*
X140109Y600891D01*
X140153Y600835D01*
X140170Y600807D01*
X140188Y600792D01*
X140213Y600760D01*
X148109Y592864D01*
X148183Y592811D01*
X148253Y592751D01*
X148283Y592739D01*
X148309Y592720D01*
X148396Y592693D01*
X148481Y592659D01*
X148522Y592655D01*
X148544Y592648D01*
X148576Y592649D01*
X148648Y592641D01*
X153403Y592641D01*
X154762Y591282D01*
X154836Y591229D01*
X154906Y591169D01*
X154936Y591157D01*
X154962Y591138D01*
X155049Y591111D01*
X155134Y591077D01*
X155175Y591073D01*
X155197Y591066D01*
X155229Y591067D01*
X155301Y591059D01*
X170658Y591059D01*
X170678Y591062D01*
X170697Y591060D01*
X170799Y591082D01*
X170901Y591098D01*
X170918Y591108D01*
X170938Y591112D01*
X171027Y591165D01*
X171118Y591214D01*
X171132Y591228D01*
X171149Y591238D01*
X171216Y591317D01*
X171264Y591367D01*
X172908Y593011D01*
X186012Y593011D01*
X187518Y591506D01*
X187613Y591437D01*
X187710Y591366D01*
X187714Y591364D01*
X187717Y591362D01*
X187830Y591327D01*
X187944Y591291D01*
X187948Y591291D01*
X187952Y591290D01*
X188071Y591293D01*
X188190Y591295D01*
X188194Y591296D01*
X188198Y591296D01*
X188310Y591337D01*
X188422Y591376D01*
X188425Y591379D01*
X188429Y591380D01*
X188523Y591455D01*
X188616Y591528D01*
X188619Y591532D01*
X188621Y591534D01*
X188629Y591546D01*
X188715Y591663D01*
X188927Y592030D01*
X189400Y592503D01*
X189979Y592838D01*
X190626Y593011D01*
X194937Y593011D01*
X194937Y586232D01*
X194940Y586212D01*
X194938Y586193D01*
X194960Y586091D01*
X194977Y585989D01*
X194986Y585972D01*
X194990Y585952D01*
X195043Y585863D01*
X195092Y585772D01*
X195106Y585758D01*
X195116Y585741D01*
X195195Y585674D01*
X195270Y585603D01*
X195288Y585594D01*
X195303Y585581D01*
X195399Y585542D01*
X195493Y585499D01*
X195513Y585497D01*
X195531Y585489D01*
X195698Y585471D01*
X197222Y585471D01*
X197242Y585474D01*
X197261Y585472D01*
X197363Y585494D01*
X197465Y585511D01*
X197482Y585520D01*
X197502Y585524D01*
X197591Y585577D01*
X197682Y585626D01*
X197696Y585640D01*
X197713Y585650D01*
X197780Y585729D01*
X197851Y585804D01*
X197860Y585822D01*
X197873Y585837D01*
X197912Y585933D01*
X197955Y586027D01*
X197957Y586047D01*
X197965Y586065D01*
X197983Y586232D01*
X197983Y593011D01*
X202294Y593011D01*
X202941Y592838D01*
X203327Y592614D01*
X203417Y592581D01*
X203503Y592540D01*
X203531Y592537D01*
X203557Y592527D01*
X203653Y592524D01*
X203747Y592513D01*
X203775Y592519D01*
X203803Y592518D01*
X203895Y592545D01*
X203988Y592566D01*
X204012Y592580D01*
X204039Y592588D01*
X204117Y592643D01*
X204199Y592692D01*
X204217Y592713D01*
X204240Y592729D01*
X204297Y592806D01*
X204359Y592879D01*
X204369Y592905D01*
X204386Y592928D01*
X204415Y593018D01*
X204451Y593107D01*
X204455Y593142D01*
X204461Y593162D01*
X204461Y593195D01*
X204469Y593274D01*
X204469Y605267D01*
X204465Y605290D01*
X204468Y605314D01*
X204446Y605411D01*
X204430Y605509D01*
X204418Y605531D01*
X204413Y605554D01*
X204361Y605639D01*
X204314Y605727D01*
X204297Y605743D01*
X204284Y605764D01*
X204208Y605828D01*
X204136Y605896D01*
X204114Y605906D01*
X204096Y605922D01*
X204003Y605958D01*
X203913Y606000D01*
X203889Y606002D01*
X203867Y606011D01*
X203767Y606016D01*
X203669Y606027D01*
X203645Y606022D01*
X203621Y606023D01*
X203526Y605996D01*
X203428Y605974D01*
X203407Y605962D01*
X203384Y605956D01*
X203303Y605899D01*
X203217Y605848D01*
X203201Y605830D01*
X203182Y605816D01*
X203122Y605737D01*
X203057Y605661D01*
X203048Y605639D01*
X203034Y605620D01*
X202973Y605464D01*
X202725Y604540D01*
X202193Y603619D01*
X201441Y602867D01*
X200520Y602335D01*
X199492Y602059D01*
X196983Y602059D01*
X196983Y608838D01*
X196980Y608858D01*
X196982Y608877D01*
X196960Y608979D01*
X196943Y609081D01*
X196934Y609098D01*
X196930Y609118D01*
X196877Y609207D01*
X196828Y609298D01*
X196814Y609312D01*
X196804Y609329D01*
X196725Y609396D01*
X196650Y609467D01*
X196632Y609476D01*
X196617Y609489D01*
X196521Y609528D01*
X196427Y609571D01*
X196407Y609573D01*
X196389Y609581D01*
X196222Y609599D01*
X195459Y609599D01*
X195459Y609601D01*
X196222Y609601D01*
X196242Y609604D01*
X196261Y609602D01*
X196363Y609624D01*
X196465Y609641D01*
X196482Y609650D01*
X196502Y609654D01*
X196591Y609707D01*
X196682Y609756D01*
X196696Y609770D01*
X196713Y609780D01*
X196780Y609859D01*
X196851Y609934D01*
X196860Y609952D01*
X196873Y609967D01*
X196912Y610063D01*
X196955Y610157D01*
X196957Y610177D01*
X196965Y610195D01*
X196983Y610362D01*
X196983Y617141D01*
X199492Y617141D01*
X200520Y616865D01*
X201441Y616333D01*
X202193Y615581D01*
X202725Y614660D01*
X202973Y613736D01*
X202983Y613715D01*
X202987Y613691D01*
X202994Y613676D01*
X202995Y613672D01*
X203006Y613654D01*
X203033Y613603D01*
X203074Y613512D01*
X203090Y613495D01*
X203102Y613473D01*
X203173Y613405D01*
X203241Y613332D01*
X203262Y613321D01*
X203280Y613304D01*
X203370Y613262D01*
X203457Y613215D01*
X203481Y613211D01*
X203503Y613200D01*
X203602Y613189D01*
X203700Y613172D01*
X203724Y613176D01*
X203747Y613173D01*
X203844Y613194D01*
X203943Y613209D01*
X203964Y613220D01*
X203988Y613226D01*
X204073Y613276D01*
X204162Y613322D01*
X204178Y613339D01*
X204199Y613352D01*
X204264Y613427D01*
X204333Y613499D01*
X204343Y613520D01*
X204359Y613539D01*
X204396Y613631D01*
X204439Y613721D01*
X204442Y613744D01*
X204451Y613767D01*
X204469Y613933D01*
X204469Y677335D01*
X204460Y677391D01*
X204461Y677448D01*
X204440Y677512D01*
X204430Y677578D01*
X204403Y677628D01*
X204385Y677682D01*
X204329Y677768D01*
X204314Y677795D01*
X204305Y677804D01*
X204293Y677822D01*
X175649Y712195D01*
X175647Y712197D01*
X175646Y712199D01*
X175553Y712278D01*
X175463Y712356D01*
X175460Y712357D01*
X175459Y712359D01*
X175344Y712405D01*
X175235Y712450D01*
X175233Y712450D01*
X175230Y712451D01*
X175064Y712469D01*
X34486Y712469D01*
X34484Y712469D01*
X34482Y712469D01*
X34360Y712449D01*
X34243Y712430D01*
X34241Y712428D01*
X34239Y712428D01*
X34131Y712370D01*
X34026Y712314D01*
X34025Y712313D01*
X34022Y712312D01*
X33901Y712195D01*
X5257Y677822D01*
X5228Y677773D01*
X5191Y677730D01*
X5166Y677668D01*
X5132Y677610D01*
X5121Y677555D01*
X5099Y677502D01*
X5088Y677400D01*
X5082Y677370D01*
X5083Y677356D01*
X5081Y677335D01*
X5081Y629502D01*
X5084Y629482D01*
X5082Y629463D01*
X5104Y629361D01*
X5120Y629259D01*
X5130Y629242D01*
X5134Y629222D01*
X5187Y629133D01*
X5236Y629042D01*
X5250Y629028D01*
X5260Y629011D01*
X5339Y628944D01*
X5414Y628872D01*
X5432Y628864D01*
X5447Y628851D01*
X5543Y628812D01*
X5637Y628769D01*
X5657Y628767D01*
X5675Y628759D01*
X5842Y628741D01*
X41152Y628741D01*
X42641Y627252D01*
X42641Y609148D01*
X41152Y607659D01*
X5842Y607659D01*
X5822Y607656D01*
X5803Y607658D01*
X5701Y607636D01*
X5599Y607620D01*
X5582Y607610D01*
X5562Y607606D01*
X5473Y607553D01*
X5382Y607504D01*
X5368Y607490D01*
X5351Y607480D01*
X5284Y607401D01*
X5212Y607326D01*
X5204Y607308D01*
X5191Y607293D01*
X5152Y607197D01*
X5109Y607103D01*
X5107Y607083D01*
X5099Y607065D01*
X5081Y606898D01*
X5081Y561502D01*
X5084Y561482D01*
X5082Y561463D01*
X5104Y561361D01*
X5120Y561259D01*
X5130Y561242D01*
X5134Y561222D01*
X5187Y561133D01*
X5236Y561042D01*
X5250Y561028D01*
X5260Y561011D01*
X5339Y560944D01*
X5414Y560872D01*
X5432Y560864D01*
X5447Y560851D01*
X5543Y560812D01*
X5637Y560769D01*
X5657Y560767D01*
X5675Y560759D01*
X5842Y560741D01*
X41152Y560741D01*
X42641Y559252D01*
X42641Y541148D01*
X41152Y539659D01*
X5842Y539659D01*
X5822Y539656D01*
X5803Y539658D01*
X5701Y539636D01*
X5599Y539620D01*
X5582Y539610D01*
X5562Y539606D01*
X5473Y539553D01*
X5382Y539504D01*
X5368Y539490D01*
X5351Y539480D01*
X5284Y539401D01*
X5212Y539326D01*
X5204Y539308D01*
X5191Y539293D01*
X5152Y539197D01*
X5109Y539103D01*
X5107Y539083D01*
X5099Y539065D01*
X5081Y538898D01*
X5081Y161170D01*
X5095Y161080D01*
X5103Y160989D01*
X5115Y160959D01*
X5120Y160927D01*
X5163Y160846D01*
X5199Y160762D01*
X5225Y160730D01*
X5236Y160710D01*
X5259Y160687D01*
X5304Y160632D01*
X33632Y132304D01*
X33705Y132251D01*
X33775Y132191D01*
X33805Y132179D01*
X33831Y132160D01*
X33918Y132133D01*
X34003Y132099D01*
X34044Y132095D01*
X34066Y132088D01*
X34099Y132089D01*
X34170Y132081D01*
X61288Y132081D01*
X61358Y132092D01*
G37*
%LPC*%
G36*
X102884Y651890D02*
X102884Y651890D01*
X95552Y653855D01*
X88978Y657650D01*
X83610Y663018D01*
X79815Y669592D01*
X77850Y676924D01*
X77850Y684516D01*
X79815Y691848D01*
X83610Y698422D01*
X88978Y703790D01*
X95552Y707585D01*
X102884Y709550D01*
X110476Y709550D01*
X117808Y707585D01*
X124382Y703790D01*
X129750Y698422D01*
X133545Y691848D01*
X135510Y684516D01*
X135510Y676924D01*
X133545Y669592D01*
X129750Y663018D01*
X124382Y657650D01*
X117808Y653855D01*
X110476Y651890D01*
X102884Y651890D01*
G37*
%LPD*%
%LPC*%
G36*
X113297Y563059D02*
X113297Y563059D01*
X111808Y564548D01*
X111808Y567271D01*
X111794Y567361D01*
X111786Y567452D01*
X111774Y567482D01*
X111769Y567514D01*
X111726Y567595D01*
X111690Y567679D01*
X111664Y567711D01*
X111653Y567731D01*
X111630Y567754D01*
X111585Y567809D01*
X105917Y573478D01*
X105917Y582730D01*
X111585Y588399D01*
X111638Y588472D01*
X111698Y588542D01*
X111710Y588572D01*
X111729Y588598D01*
X111756Y588685D01*
X111790Y588770D01*
X111794Y588811D01*
X111801Y588833D01*
X111800Y588866D01*
X111808Y588937D01*
X111808Y589623D01*
X111807Y589630D01*
X111807Y589631D01*
X111806Y589637D01*
X111802Y589662D01*
X111802Y589667D01*
X111797Y589694D01*
X111794Y589713D01*
X111786Y589804D01*
X111774Y589834D01*
X111769Y589866D01*
X111753Y589896D01*
X111750Y589908D01*
X111723Y589953D01*
X111690Y590031D01*
X111664Y590063D01*
X111653Y590083D01*
X111635Y590101D01*
X111624Y590119D01*
X111609Y590132D01*
X111585Y590161D01*
X111580Y590166D01*
X111521Y590209D01*
X111475Y590253D01*
X111459Y590260D01*
X111437Y590279D01*
X111407Y590291D01*
X111381Y590310D01*
X111296Y590336D01*
X111252Y590356D01*
X111242Y590357D01*
X111209Y590371D01*
X111168Y590375D01*
X111146Y590382D01*
X111113Y590381D01*
X111042Y590389D01*
X101402Y590389D01*
X101382Y590386D01*
X101363Y590388D01*
X101261Y590366D01*
X101159Y590350D01*
X101142Y590340D01*
X101122Y590336D01*
X101033Y590283D01*
X100942Y590234D01*
X100928Y590220D01*
X100911Y590210D01*
X100844Y590131D01*
X100772Y590056D01*
X100764Y590038D01*
X100751Y590023D01*
X100712Y589927D01*
X100669Y589833D01*
X100667Y589813D01*
X100659Y589795D01*
X100641Y589628D01*
X100641Y588148D01*
X99152Y586659D01*
X51048Y586659D01*
X49559Y588148D01*
X49559Y600252D01*
X51048Y601741D01*
X99152Y601741D01*
X100641Y600252D01*
X100641Y598772D01*
X100644Y598752D01*
X100642Y598733D01*
X100664Y598631D01*
X100680Y598529D01*
X100690Y598512D01*
X100694Y598492D01*
X100747Y598403D01*
X100796Y598312D01*
X100810Y598298D01*
X100820Y598281D01*
X100899Y598214D01*
X100974Y598142D01*
X100992Y598134D01*
X101007Y598121D01*
X101103Y598082D01*
X101197Y598039D01*
X101217Y598037D01*
X101235Y598029D01*
X101402Y598011D01*
X114514Y598011D01*
X119662Y592864D01*
X119735Y592811D01*
X119805Y592751D01*
X119835Y592739D01*
X119861Y592720D01*
X119948Y592693D01*
X120033Y592659D01*
X120074Y592655D01*
X120096Y592648D01*
X120129Y592649D01*
X120200Y592641D01*
X127401Y592641D01*
X128890Y591152D01*
X128890Y583548D01*
X128473Y583131D01*
X128447Y583095D01*
X128415Y583066D01*
X128376Y582996D01*
X128330Y582931D01*
X128317Y582889D01*
X128295Y582851D01*
X128281Y582773D01*
X128257Y582696D01*
X128258Y582652D01*
X128250Y582609D01*
X128261Y582530D01*
X128264Y582450D01*
X128279Y582409D01*
X128285Y582366D01*
X128343Y582232D01*
X128348Y582219D01*
X128350Y582217D01*
X128352Y582212D01*
X128717Y581581D01*
X128890Y580934D01*
X128890Y579224D01*
X120962Y579224D01*
X120943Y579221D01*
X120923Y579223D01*
X120821Y579201D01*
X120719Y579185D01*
X120702Y579175D01*
X120682Y579171D01*
X120593Y579118D01*
X120502Y579069D01*
X120488Y579055D01*
X120471Y579045D01*
X120404Y578966D01*
X120333Y578891D01*
X120324Y578873D01*
X120311Y578858D01*
X120273Y578762D01*
X120229Y578668D01*
X120227Y578648D01*
X120219Y578630D01*
X120201Y578463D01*
X120201Y577237D01*
X120204Y577217D01*
X120202Y577197D01*
X120224Y577096D01*
X120241Y576994D01*
X120250Y576977D01*
X120254Y576957D01*
X120307Y576868D01*
X120356Y576777D01*
X120370Y576763D01*
X120380Y576746D01*
X120459Y576679D01*
X120534Y576607D01*
X120552Y576599D01*
X120567Y576586D01*
X120664Y576547D01*
X120757Y576504D01*
X120777Y576502D01*
X120795Y576494D01*
X120962Y576476D01*
X128890Y576476D01*
X128890Y574766D01*
X128717Y574119D01*
X128352Y573488D01*
X128337Y573447D01*
X128313Y573410D01*
X128293Y573333D01*
X128265Y573258D01*
X128263Y573214D01*
X128253Y573172D01*
X128259Y573092D01*
X128256Y573012D01*
X128269Y572970D01*
X128272Y572926D01*
X128303Y572853D01*
X128326Y572776D01*
X128351Y572740D01*
X128368Y572700D01*
X128459Y572586D01*
X128467Y572575D01*
X128470Y572573D01*
X128473Y572569D01*
X128890Y572152D01*
X128890Y564548D01*
X127401Y563059D01*
X113297Y563059D01*
G37*
%LPD*%
G36*
X170678Y544326D02*
X170678Y544326D01*
X170697Y544324D01*
X170799Y544346D01*
X170901Y544362D01*
X170918Y544372D01*
X170938Y544376D01*
X171027Y544429D01*
X171118Y544478D01*
X171132Y544492D01*
X171149Y544502D01*
X171216Y544581D01*
X171288Y544656D01*
X171296Y544674D01*
X171309Y544689D01*
X171348Y544785D01*
X171391Y544879D01*
X171393Y544899D01*
X171401Y544917D01*
X171419Y545084D01*
X171419Y545802D01*
X172908Y547291D01*
X186012Y547291D01*
X187422Y545881D01*
X187438Y545870D01*
X187450Y545854D01*
X187538Y545798D01*
X187621Y545738D01*
X187640Y545732D01*
X187657Y545721D01*
X187758Y545696D01*
X187857Y545666D01*
X187876Y545666D01*
X187896Y545661D01*
X187999Y545669D01*
X188102Y545672D01*
X188121Y545679D01*
X188141Y545680D01*
X188236Y545721D01*
X188333Y545756D01*
X188349Y545769D01*
X188367Y545777D01*
X188498Y545881D01*
X189908Y547291D01*
X203012Y547291D01*
X203170Y547133D01*
X203228Y547092D01*
X203280Y547042D01*
X203327Y547020D01*
X203369Y546990D01*
X203438Y546969D01*
X203503Y546939D01*
X203555Y546933D01*
X203605Y546917D01*
X203676Y546919D01*
X203747Y546911D01*
X203798Y546923D01*
X203850Y546924D01*
X203918Y546948D01*
X203988Y546964D01*
X204033Y546990D01*
X204081Y547008D01*
X204137Y547053D01*
X204199Y547090D01*
X204233Y547129D01*
X204273Y547162D01*
X204312Y547222D01*
X204359Y547277D01*
X204378Y547325D01*
X204406Y547369D01*
X204424Y547438D01*
X204451Y547505D01*
X204459Y547576D01*
X204467Y547607D01*
X204465Y547631D01*
X204469Y547672D01*
X204469Y556076D01*
X204454Y556170D01*
X204445Y556266D01*
X204434Y556291D01*
X204430Y556319D01*
X204385Y556403D01*
X204347Y556491D01*
X204328Y556512D01*
X204314Y556537D01*
X204245Y556602D01*
X204181Y556673D01*
X204156Y556687D01*
X204136Y556706D01*
X204050Y556746D01*
X203966Y556793D01*
X203939Y556798D01*
X203913Y556810D01*
X203818Y556820D01*
X203725Y556838D01*
X203697Y556834D01*
X203669Y556837D01*
X203575Y556816D01*
X203481Y556803D01*
X203449Y556789D01*
X203428Y556784D01*
X203400Y556767D01*
X203327Y556736D01*
X202941Y556512D01*
X202294Y556339D01*
X197983Y556339D01*
X197983Y563118D01*
X197980Y563138D01*
X197982Y563157D01*
X197960Y563259D01*
X197943Y563361D01*
X197934Y563378D01*
X197930Y563398D01*
X197877Y563487D01*
X197828Y563578D01*
X197814Y563592D01*
X197804Y563609D01*
X197725Y563676D01*
X197650Y563747D01*
X197632Y563756D01*
X197617Y563769D01*
X197521Y563808D01*
X197427Y563851D01*
X197407Y563853D01*
X197389Y563861D01*
X197222Y563879D01*
X195698Y563879D01*
X195678Y563876D01*
X195659Y563878D01*
X195557Y563856D01*
X195455Y563839D01*
X195438Y563830D01*
X195418Y563826D01*
X195329Y563773D01*
X195238Y563724D01*
X195224Y563710D01*
X195207Y563700D01*
X195140Y563621D01*
X195069Y563546D01*
X195060Y563528D01*
X195047Y563513D01*
X195008Y563417D01*
X194965Y563323D01*
X194963Y563303D01*
X194955Y563285D01*
X194937Y563118D01*
X194937Y556339D01*
X190626Y556339D01*
X189979Y556512D01*
X189400Y556847D01*
X188927Y557320D01*
X188715Y557687D01*
X188639Y557779D01*
X188566Y557872D01*
X188562Y557874D01*
X188559Y557877D01*
X188458Y557941D01*
X188359Y558005D01*
X188355Y558006D01*
X188351Y558008D01*
X188235Y558036D01*
X188120Y558065D01*
X188116Y558064D01*
X188112Y558065D01*
X187993Y558055D01*
X187875Y558046D01*
X187871Y558044D01*
X187867Y558044D01*
X187757Y557996D01*
X187649Y557949D01*
X187645Y557946D01*
X187642Y557945D01*
X187631Y557935D01*
X187518Y557844D01*
X186012Y556339D01*
X172908Y556339D01*
X171419Y557828D01*
X171419Y560324D01*
X171416Y560344D01*
X171418Y560363D01*
X171396Y560465D01*
X171380Y560567D01*
X171370Y560584D01*
X171366Y560604D01*
X171313Y560693D01*
X171264Y560784D01*
X171250Y560798D01*
X171240Y560815D01*
X171161Y560882D01*
X171086Y560954D01*
X171068Y560962D01*
X171053Y560975D01*
X170957Y561014D01*
X170863Y561057D01*
X170843Y561059D01*
X170825Y561067D01*
X170658Y561085D01*
X148790Y561085D01*
X147038Y562836D01*
X146965Y562889D01*
X146895Y562949D01*
X146865Y562961D01*
X146839Y562980D01*
X146752Y563007D01*
X146667Y563041D01*
X146626Y563045D01*
X146604Y563052D01*
X146571Y563051D01*
X146500Y563059D01*
X145208Y563059D01*
X145137Y563048D01*
X145065Y563046D01*
X145016Y563028D01*
X144965Y563020D01*
X144902Y562986D01*
X144834Y562961D01*
X144794Y562929D01*
X144748Y562904D01*
X144698Y562852D01*
X144642Y562808D01*
X144614Y562764D01*
X144578Y562726D01*
X144548Y562661D01*
X144509Y562601D01*
X144497Y562550D01*
X144475Y562503D01*
X144467Y562432D01*
X144449Y562362D01*
X144453Y562310D01*
X144448Y562259D01*
X144463Y562188D01*
X144468Y562117D01*
X144489Y562069D01*
X144500Y562018D01*
X144537Y561957D01*
X144565Y561891D01*
X144609Y561835D01*
X144626Y561807D01*
X144644Y561792D01*
X144669Y561760D01*
X161884Y544546D01*
X161957Y544493D01*
X162027Y544433D01*
X162057Y544421D01*
X162083Y544402D01*
X162170Y544375D01*
X162255Y544341D01*
X162296Y544337D01*
X162318Y544330D01*
X162351Y544331D01*
X162422Y544323D01*
X170658Y544323D01*
X170678Y544326D01*
G37*
%LPC*%
G36*
X164358Y221489D02*
X164358Y221489D01*
X162869Y222978D01*
X162869Y237082D01*
X164358Y238571D01*
X196462Y238571D01*
X197951Y237082D01*
X197951Y222978D01*
X196462Y221489D01*
X164358Y221489D01*
G37*
%LPD*%
%LPC*%
G36*
X164358Y201489D02*
X164358Y201489D01*
X162869Y202978D01*
X162869Y217082D01*
X164358Y218571D01*
X196462Y218571D01*
X197951Y217082D01*
X197951Y202978D01*
X196462Y201489D01*
X164358Y201489D01*
G37*
%LPD*%
%LPC*%
G36*
X14358Y181489D02*
X14358Y181489D01*
X12869Y182978D01*
X12869Y197082D01*
X14358Y198571D01*
X46462Y198571D01*
X47951Y197082D01*
X47951Y182978D01*
X46462Y181489D01*
X14358Y181489D01*
G37*
%LPD*%
G36*
X197242Y563884D02*
X197242Y563884D01*
X197261Y563882D01*
X197363Y563904D01*
X197465Y563921D01*
X197482Y563930D01*
X197502Y563934D01*
X197591Y563987D01*
X197682Y564036D01*
X197696Y564050D01*
X197713Y564060D01*
X197780Y564139D01*
X197851Y564214D01*
X197860Y564232D01*
X197873Y564247D01*
X197912Y564343D01*
X197955Y564437D01*
X197957Y564457D01*
X197965Y564475D01*
X197983Y564642D01*
X197983Y571421D01*
X202294Y571421D01*
X202941Y571248D01*
X203327Y571024D01*
X203417Y570991D01*
X203503Y570950D01*
X203531Y570947D01*
X203557Y570937D01*
X203653Y570934D01*
X203747Y570923D01*
X203775Y570929D01*
X203803Y570928D01*
X203895Y570955D01*
X203988Y570976D01*
X204012Y570990D01*
X204039Y570998D01*
X204117Y571053D01*
X204199Y571102D01*
X204217Y571123D01*
X204240Y571139D01*
X204297Y571216D01*
X204359Y571289D01*
X204369Y571315D01*
X204386Y571338D01*
X204415Y571428D01*
X204451Y571517D01*
X204455Y571552D01*
X204461Y571572D01*
X204461Y571605D01*
X204469Y571684D01*
X204469Y577666D01*
X204454Y577760D01*
X204445Y577856D01*
X204434Y577881D01*
X204430Y577909D01*
X204385Y577993D01*
X204347Y578081D01*
X204328Y578102D01*
X204314Y578127D01*
X204245Y578192D01*
X204181Y578263D01*
X204156Y578277D01*
X204136Y578296D01*
X204050Y578336D01*
X203966Y578383D01*
X203939Y578388D01*
X203913Y578400D01*
X203818Y578410D01*
X203725Y578428D01*
X203697Y578424D01*
X203669Y578427D01*
X203575Y578406D01*
X203481Y578393D01*
X203449Y578379D01*
X203428Y578374D01*
X203400Y578357D01*
X203327Y578326D01*
X202941Y578102D01*
X202294Y577929D01*
X197983Y577929D01*
X197983Y584708D01*
X197980Y584728D01*
X197982Y584747D01*
X197960Y584849D01*
X197943Y584951D01*
X197934Y584968D01*
X197930Y584988D01*
X197877Y585077D01*
X197828Y585168D01*
X197814Y585182D01*
X197804Y585199D01*
X197725Y585266D01*
X197650Y585337D01*
X197632Y585346D01*
X197617Y585359D01*
X197521Y585398D01*
X197427Y585441D01*
X197407Y585443D01*
X197389Y585451D01*
X197222Y585469D01*
X195698Y585469D01*
X195678Y585466D01*
X195659Y585468D01*
X195557Y585446D01*
X195455Y585429D01*
X195438Y585420D01*
X195418Y585416D01*
X195329Y585363D01*
X195238Y585314D01*
X195224Y585300D01*
X195207Y585290D01*
X195140Y585211D01*
X195069Y585136D01*
X195060Y585118D01*
X195047Y585103D01*
X195008Y585007D01*
X194965Y584913D01*
X194963Y584893D01*
X194955Y584875D01*
X194937Y584708D01*
X194937Y577929D01*
X190626Y577929D01*
X189979Y578102D01*
X189400Y578437D01*
X188927Y578910D01*
X188715Y579277D01*
X188639Y579369D01*
X188566Y579462D01*
X188562Y579464D01*
X188559Y579467D01*
X188458Y579531D01*
X188359Y579595D01*
X188355Y579596D01*
X188351Y579598D01*
X188235Y579626D01*
X188120Y579655D01*
X188116Y579654D01*
X188112Y579655D01*
X187993Y579645D01*
X187875Y579636D01*
X187871Y579634D01*
X187867Y579634D01*
X187757Y579586D01*
X187649Y579539D01*
X187645Y579536D01*
X187642Y579535D01*
X187631Y579525D01*
X187518Y579434D01*
X186012Y577929D01*
X172908Y577929D01*
X171419Y579418D01*
X171419Y582676D01*
X171416Y582696D01*
X171418Y582715D01*
X171396Y582817D01*
X171380Y582919D01*
X171370Y582936D01*
X171366Y582956D01*
X171313Y583045D01*
X171264Y583136D01*
X171250Y583150D01*
X171240Y583167D01*
X171161Y583234D01*
X171086Y583306D01*
X171068Y583314D01*
X171053Y583327D01*
X170957Y583366D01*
X170863Y583409D01*
X170843Y583411D01*
X170825Y583419D01*
X170658Y583437D01*
X155097Y583437D01*
X155007Y583423D01*
X154916Y583415D01*
X154886Y583403D01*
X154854Y583398D01*
X154773Y583355D01*
X154689Y583319D01*
X154657Y583293D01*
X154637Y583282D01*
X154614Y583259D01*
X154558Y583214D01*
X153403Y582059D01*
X150876Y582059D01*
X150856Y582056D01*
X150837Y582058D01*
X150735Y582036D01*
X150633Y582020D01*
X150616Y582010D01*
X150596Y582006D01*
X150507Y581953D01*
X150416Y581904D01*
X150402Y581890D01*
X150385Y581880D01*
X150318Y581801D01*
X150246Y581726D01*
X150238Y581708D01*
X150225Y581693D01*
X150186Y581597D01*
X150143Y581503D01*
X150141Y581483D01*
X150133Y581465D01*
X150115Y581298D01*
X150115Y579574D01*
X145481Y574940D01*
X145440Y574882D01*
X145390Y574830D01*
X145368Y574783D01*
X145338Y574741D01*
X145317Y574672D01*
X145287Y574607D01*
X145281Y574555D01*
X145266Y574505D01*
X145267Y574434D01*
X145260Y574363D01*
X145271Y574312D01*
X145272Y574260D01*
X145297Y574192D01*
X145312Y574122D01*
X145338Y574077D01*
X145356Y574029D01*
X145401Y573973D01*
X145438Y573911D01*
X145478Y573877D01*
X145510Y573837D01*
X145570Y573798D01*
X145625Y573751D01*
X145673Y573732D01*
X145717Y573704D01*
X145786Y573686D01*
X145853Y573659D01*
X145924Y573651D01*
X145956Y573643D01*
X145979Y573645D01*
X146020Y573641D01*
X153403Y573641D01*
X154892Y572152D01*
X154892Y569468D01*
X154895Y569448D01*
X154893Y569429D01*
X154915Y569327D01*
X154931Y569225D01*
X154941Y569208D01*
X154945Y569188D01*
X154998Y569099D01*
X155047Y569008D01*
X155061Y568994D01*
X155071Y568977D01*
X155150Y568910D01*
X155225Y568838D01*
X155243Y568830D01*
X155258Y568817D01*
X155354Y568778D01*
X155448Y568735D01*
X155468Y568733D01*
X155486Y568725D01*
X155653Y568707D01*
X170658Y568707D01*
X170678Y568710D01*
X170697Y568708D01*
X170799Y568730D01*
X170901Y568746D01*
X170918Y568756D01*
X170938Y568760D01*
X171027Y568813D01*
X171118Y568862D01*
X171132Y568876D01*
X171149Y568886D01*
X171216Y568965D01*
X171288Y569040D01*
X171296Y569058D01*
X171309Y569073D01*
X171348Y569169D01*
X171391Y569263D01*
X171393Y569283D01*
X171401Y569301D01*
X171419Y569468D01*
X171419Y569932D01*
X172908Y571421D01*
X186012Y571421D01*
X187518Y569916D01*
X187613Y569847D01*
X187710Y569776D01*
X187714Y569774D01*
X187717Y569772D01*
X187830Y569737D01*
X187944Y569701D01*
X187948Y569701D01*
X187952Y569700D01*
X188071Y569703D01*
X188190Y569705D01*
X188194Y569706D01*
X188198Y569706D01*
X188310Y569747D01*
X188422Y569786D01*
X188425Y569789D01*
X188429Y569790D01*
X188523Y569865D01*
X188616Y569938D01*
X188619Y569942D01*
X188621Y569944D01*
X188629Y569956D01*
X188715Y570073D01*
X188927Y570440D01*
X189400Y570913D01*
X189979Y571248D01*
X190626Y571421D01*
X194937Y571421D01*
X194937Y564642D01*
X194940Y564622D01*
X194938Y564603D01*
X194960Y564501D01*
X194977Y564399D01*
X194986Y564382D01*
X194990Y564362D01*
X195043Y564273D01*
X195092Y564182D01*
X195106Y564168D01*
X195116Y564151D01*
X195195Y564084D01*
X195270Y564013D01*
X195288Y564004D01*
X195303Y563991D01*
X195399Y563952D01*
X195493Y563909D01*
X195513Y563907D01*
X195531Y563899D01*
X195698Y563881D01*
X197222Y563881D01*
X197242Y563884D01*
G37*
%LPC*%
G36*
X76623Y575723D02*
X76623Y575723D01*
X76623Y581741D01*
X98434Y581741D01*
X99081Y581568D01*
X99660Y581233D01*
X100133Y580760D01*
X100468Y580181D01*
X100641Y579534D01*
X100641Y575723D01*
X76623Y575723D01*
G37*
%LPD*%
%LPC*%
G36*
X49559Y575723D02*
X49559Y575723D01*
X49559Y579534D01*
X49732Y580181D01*
X50067Y580760D01*
X50540Y581233D01*
X51119Y581568D01*
X51766Y581741D01*
X73577Y581741D01*
X73577Y575723D01*
X49559Y575723D01*
G37*
%LPD*%
%LPC*%
G36*
X76623Y566659D02*
X76623Y566659D01*
X76623Y572677D01*
X100641Y572677D01*
X100641Y568866D01*
X100468Y568219D01*
X100133Y567640D01*
X99660Y567167D01*
X99081Y566832D01*
X98434Y566659D01*
X76623Y566659D01*
G37*
%LPD*%
%LPC*%
G36*
X51766Y566659D02*
X51766Y566659D01*
X51119Y566832D01*
X50540Y567167D01*
X50067Y567640D01*
X49732Y568219D01*
X49559Y568866D01*
X49559Y572677D01*
X73577Y572677D01*
X73577Y566659D01*
X51766Y566659D01*
G37*
%LPD*%
%LPC*%
G36*
X31933Y211553D02*
X31933Y211553D01*
X31933Y218571D01*
X45744Y218571D01*
X46391Y218398D01*
X46970Y218063D01*
X47443Y217590D01*
X47778Y217011D01*
X47951Y216364D01*
X47951Y211553D01*
X31933Y211553D01*
G37*
%LPD*%
%LPC*%
G36*
X181933Y191553D02*
X181933Y191553D01*
X181933Y198571D01*
X195744Y198571D01*
X196391Y198398D01*
X196970Y198063D01*
X197443Y197590D01*
X197778Y197011D01*
X197951Y196364D01*
X197951Y191553D01*
X181933Y191553D01*
G37*
%LPD*%
%LPC*%
G36*
X31933Y171553D02*
X31933Y171553D01*
X31933Y178571D01*
X45744Y178571D01*
X46391Y178398D01*
X46970Y178063D01*
X47443Y177590D01*
X47778Y177011D01*
X47951Y176364D01*
X47951Y171553D01*
X31933Y171553D01*
G37*
%LPD*%
%LPC*%
G36*
X12869Y211553D02*
X12869Y211553D01*
X12869Y216364D01*
X13042Y217011D01*
X13377Y217590D01*
X13850Y218063D01*
X14429Y218398D01*
X15076Y218571D01*
X28887Y218571D01*
X28887Y211553D01*
X12869Y211553D01*
G37*
%LPD*%
%LPC*%
G36*
X162869Y191553D02*
X162869Y191553D01*
X162869Y196364D01*
X163042Y197011D01*
X163377Y197590D01*
X163850Y198063D01*
X164429Y198398D01*
X165076Y198571D01*
X178887Y198571D01*
X178887Y191553D01*
X162869Y191553D01*
G37*
%LPD*%
%LPC*%
G36*
X12869Y171553D02*
X12869Y171553D01*
X12869Y176364D01*
X13042Y177011D01*
X13377Y177590D01*
X13850Y178063D01*
X14429Y178398D01*
X15076Y178571D01*
X28887Y178571D01*
X28887Y171553D01*
X12869Y171553D01*
G37*
%LPD*%
%LPC*%
G36*
X12869Y311553D02*
X12869Y311553D01*
X12869Y316364D01*
X13042Y317011D01*
X13377Y317590D01*
X13850Y318063D01*
X14429Y318398D01*
X15076Y318571D01*
X28887Y318571D01*
X28887Y311553D01*
X12869Y311553D01*
G37*
%LPD*%
%LPC*%
G36*
X31933Y161489D02*
X31933Y161489D01*
X31933Y168507D01*
X47951Y168507D01*
X47951Y163696D01*
X47778Y163049D01*
X47443Y162470D01*
X46970Y161997D01*
X46391Y161662D01*
X45744Y161489D01*
X31933Y161489D01*
G37*
%LPD*%
%LPC*%
G36*
X181933Y181489D02*
X181933Y181489D01*
X181933Y188507D01*
X197951Y188507D01*
X197951Y183696D01*
X197778Y183049D01*
X197443Y182470D01*
X196970Y181997D01*
X196391Y181662D01*
X195744Y181489D01*
X181933Y181489D01*
G37*
%LPD*%
%LPC*%
G36*
X31933Y201489D02*
X31933Y201489D01*
X31933Y208507D01*
X47951Y208507D01*
X47951Y203696D01*
X47778Y203049D01*
X47443Y202470D01*
X46970Y201997D01*
X46391Y201662D01*
X45744Y201489D01*
X31933Y201489D01*
G37*
%LPD*%
%LPC*%
G36*
X15076Y201489D02*
X15076Y201489D01*
X14429Y201662D01*
X13850Y201997D01*
X13377Y202470D01*
X13042Y203049D01*
X12869Y203696D01*
X12869Y208507D01*
X28887Y208507D01*
X28887Y201489D01*
X15076Y201489D01*
G37*
%LPD*%
%LPC*%
G36*
X15076Y161489D02*
X15076Y161489D01*
X14429Y161662D01*
X13850Y161997D01*
X13377Y162470D01*
X13042Y163049D01*
X12869Y163696D01*
X12869Y168507D01*
X28887Y168507D01*
X28887Y161489D01*
X15076Y161489D01*
G37*
%LPD*%
%LPC*%
G36*
X15076Y301489D02*
X15076Y301489D01*
X14429Y301662D01*
X13850Y301997D01*
X13377Y302470D01*
X13042Y303049D01*
X12869Y303696D01*
X12869Y308507D01*
X28887Y308507D01*
X28887Y301489D01*
X15076Y301489D01*
G37*
%LPD*%
%LPC*%
G36*
X165076Y181489D02*
X165076Y181489D01*
X164429Y181662D01*
X163850Y181997D01*
X163377Y182470D01*
X163042Y183049D01*
X162869Y183696D01*
X162869Y188507D01*
X178887Y188507D01*
X178887Y181489D01*
X165076Y181489D01*
G37*
%LPD*%
%LPC*%
G36*
X186943Y369823D02*
X186943Y369823D01*
X186943Y380146D01*
X188216Y379945D01*
X190003Y379364D01*
X191677Y378511D01*
X193198Y377406D01*
X194526Y376078D01*
X195631Y374557D01*
X196484Y372883D01*
X197065Y371096D01*
X197266Y369823D01*
X186943Y369823D01*
G37*
%LPD*%
%LPC*%
G36*
X70103Y468883D02*
X70103Y468883D01*
X70103Y479206D01*
X71376Y479005D01*
X73163Y478424D01*
X74837Y477571D01*
X76358Y476466D01*
X77686Y475138D01*
X78791Y473617D01*
X79644Y471943D01*
X80225Y470156D01*
X80426Y468883D01*
X70103Y468883D01*
G37*
%LPD*%
%LPC*%
G36*
X186943Y344423D02*
X186943Y344423D01*
X186943Y354746D01*
X188216Y354545D01*
X190003Y353964D01*
X191677Y353111D01*
X193198Y352006D01*
X194526Y350678D01*
X195631Y349157D01*
X196484Y347483D01*
X197065Y345696D01*
X197266Y344423D01*
X186943Y344423D01*
G37*
%LPD*%
%LPC*%
G36*
X56734Y468883D02*
X56734Y468883D01*
X56935Y470156D01*
X57516Y471943D01*
X58369Y473617D01*
X59474Y475138D01*
X60802Y476466D01*
X62323Y477571D01*
X63997Y478424D01*
X65784Y479005D01*
X67057Y479206D01*
X67057Y468883D01*
X56734Y468883D01*
G37*
%LPD*%
%LPC*%
G36*
X186943Y341377D02*
X186943Y341377D01*
X197266Y341377D01*
X197065Y340104D01*
X196484Y338317D01*
X195631Y336643D01*
X194526Y335122D01*
X193198Y333794D01*
X191677Y332689D01*
X190003Y331836D01*
X188216Y331255D01*
X186943Y331054D01*
X186943Y341377D01*
G37*
%LPD*%
%LPC*%
G36*
X186943Y366777D02*
X186943Y366777D01*
X197266Y366777D01*
X197065Y365504D01*
X196484Y363717D01*
X195631Y362043D01*
X194526Y360522D01*
X193198Y359194D01*
X191677Y358089D01*
X190003Y357236D01*
X188216Y356655D01*
X186943Y356454D01*
X186943Y366777D01*
G37*
%LPD*%
%LPC*%
G36*
X70103Y465837D02*
X70103Y465837D01*
X80426Y465837D01*
X80225Y464564D01*
X79644Y462777D01*
X78791Y461103D01*
X77686Y459582D01*
X76358Y458254D01*
X74837Y457149D01*
X73163Y456296D01*
X71376Y455715D01*
X70103Y455514D01*
X70103Y465837D01*
G37*
%LPD*%
%LPC*%
G36*
X173574Y344423D02*
X173574Y344423D01*
X173775Y345696D01*
X174356Y347483D01*
X175209Y349157D01*
X176314Y350678D01*
X177642Y352006D01*
X179163Y353111D01*
X180837Y353964D01*
X182624Y354545D01*
X183897Y354746D01*
X183897Y344423D01*
X173574Y344423D01*
G37*
%LPD*%
%LPC*%
G36*
X173574Y369823D02*
X173574Y369823D01*
X173775Y371096D01*
X174356Y372883D01*
X175209Y374557D01*
X176314Y376078D01*
X177642Y377406D01*
X179163Y378511D01*
X180837Y379364D01*
X182624Y379945D01*
X183897Y380146D01*
X183897Y369823D01*
X173574Y369823D01*
G37*
%LPD*%
%LPC*%
G36*
X182624Y356655D02*
X182624Y356655D01*
X180837Y357236D01*
X179163Y358089D01*
X177642Y359194D01*
X176314Y360522D01*
X175209Y362043D01*
X174356Y363717D01*
X173775Y365504D01*
X173574Y366777D01*
X183897Y366777D01*
X183897Y356454D01*
X182624Y356655D01*
G37*
%LPD*%
%LPC*%
G36*
X182624Y331255D02*
X182624Y331255D01*
X180837Y331836D01*
X179163Y332689D01*
X177642Y333794D01*
X176314Y335122D01*
X175209Y336643D01*
X174356Y338317D01*
X173775Y340104D01*
X173574Y341377D01*
X183897Y341377D01*
X183897Y331054D01*
X182624Y331255D01*
G37*
%LPD*%
%LPC*%
G36*
X34259Y515873D02*
X34259Y515873D01*
X34259Y519684D01*
X34432Y520331D01*
X34767Y520910D01*
X35240Y521383D01*
X35819Y521718D01*
X36466Y521891D01*
X40777Y521891D01*
X40777Y515873D01*
X34259Y515873D01*
G37*
%LPD*%
%LPC*%
G36*
X36466Y506809D02*
X36466Y506809D01*
X35819Y506982D01*
X35240Y507317D01*
X34767Y507790D01*
X34432Y508369D01*
X34259Y509016D01*
X34259Y512827D01*
X40777Y512827D01*
X40777Y506809D01*
X36466Y506809D01*
G37*
%LPD*%
%LPC*%
G36*
X20573Y530993D02*
X20573Y530993D01*
X20573Y537011D01*
X23082Y537011D01*
X24110Y536735D01*
X25031Y536203D01*
X25783Y535451D01*
X26315Y534530D01*
X26591Y533502D01*
X26591Y530993D01*
X20573Y530993D01*
G37*
%LPD*%
%LPC*%
G36*
X187919Y611123D02*
X187919Y611123D01*
X187919Y613632D01*
X188195Y614660D01*
X188727Y615581D01*
X189479Y616333D01*
X190400Y616865D01*
X191428Y617141D01*
X193937Y617141D01*
X193937Y611123D01*
X187919Y611123D01*
G37*
%LPD*%
%LPC*%
G36*
X11509Y530993D02*
X11509Y530993D01*
X11509Y533502D01*
X11785Y534530D01*
X12317Y535451D01*
X13069Y536203D01*
X13990Y536735D01*
X15018Y537011D01*
X17527Y537011D01*
X17527Y530993D01*
X11509Y530993D01*
G37*
%LPD*%
%LPC*%
G36*
X20573Y521929D02*
X20573Y521929D01*
X20573Y527947D01*
X26591Y527947D01*
X26591Y525438D01*
X26315Y524410D01*
X25783Y523489D01*
X25031Y522737D01*
X24110Y522205D01*
X23082Y521929D01*
X20573Y521929D01*
G37*
%LPD*%
%LPC*%
G36*
X15018Y521929D02*
X15018Y521929D01*
X13990Y522205D01*
X13069Y522737D01*
X12317Y523489D01*
X11785Y524410D01*
X11509Y525438D01*
X11509Y527947D01*
X17527Y527947D01*
X17527Y521929D01*
X15018Y521929D01*
G37*
%LPD*%
%LPC*%
G36*
X191428Y602059D02*
X191428Y602059D01*
X190400Y602335D01*
X189479Y602867D01*
X188727Y603619D01*
X188195Y604540D01*
X187919Y605568D01*
X187919Y608077D01*
X193937Y608077D01*
X193937Y602059D01*
X191428Y602059D01*
G37*
%LPD*%
%LPC*%
G36*
X130739Y522934D02*
X130739Y522934D01*
X130739Y524894D01*
X130912Y525541D01*
X131247Y526120D01*
X131720Y526593D01*
X132299Y526928D01*
X132946Y527101D01*
X134156Y527101D01*
X134156Y522934D01*
X130739Y522934D01*
G37*
%LPD*%
%LPC*%
G36*
X132946Y517019D02*
X132946Y517019D01*
X132299Y517192D01*
X131720Y517527D01*
X131247Y518000D01*
X130912Y518579D01*
X130739Y519226D01*
X130739Y521186D01*
X134156Y521186D01*
X134156Y517019D01*
X132946Y517019D01*
G37*
%LPD*%
G36*
X86512Y523809D02*
X86512Y523809D01*
X86511Y523809D01*
X86512Y523810D01*
X86512Y526810D01*
X86502Y526822D01*
X86501Y526821D01*
X86500Y526822D01*
X84000Y526822D01*
X83988Y526812D01*
X83989Y526811D01*
X83988Y526810D01*
X83988Y524860D01*
X83992Y524856D01*
X83992Y524852D01*
X85042Y523802D01*
X85047Y523801D01*
X85050Y523798D01*
X86500Y523798D01*
X86512Y523809D01*
G37*
G36*
X110262Y500559D02*
X110262Y500559D01*
X110261Y500559D01*
X110262Y500560D01*
X110262Y503060D01*
X110252Y503072D01*
X110251Y503071D01*
X110250Y503072D01*
X107250Y503072D01*
X107238Y503062D01*
X107239Y503061D01*
X107238Y503060D01*
X107238Y501610D01*
X107242Y501606D01*
X107242Y501602D01*
X108292Y500552D01*
X108297Y500551D01*
X108300Y500548D01*
X110250Y500548D01*
X110262Y500559D01*
G37*
G36*
X105454Y523802D02*
X105454Y523802D01*
X105458Y523802D01*
X106508Y524852D01*
X106509Y524856D01*
X106512Y524859D01*
X106511Y524860D01*
X106512Y524860D01*
X106512Y526810D01*
X106502Y526822D01*
X106501Y526821D01*
X106500Y526822D01*
X104000Y526822D01*
X103988Y526812D01*
X103989Y526811D01*
X103988Y526810D01*
X103988Y523810D01*
X103999Y523798D01*
X103999Y523799D01*
X104000Y523798D01*
X105450Y523798D01*
X105454Y523802D01*
G37*
G36*
X82204Y500552D02*
X82204Y500552D01*
X82208Y500552D01*
X83258Y501602D01*
X83259Y501606D01*
X83262Y501609D01*
X83261Y501610D01*
X83262Y501610D01*
X83262Y503060D01*
X83252Y503072D01*
X83251Y503071D01*
X83250Y503072D01*
X80250Y503072D01*
X80238Y503062D01*
X80239Y503061D01*
X80238Y503060D01*
X80238Y500560D01*
X80249Y500548D01*
X80249Y500549D01*
X80250Y500548D01*
X82200Y500548D01*
X82204Y500552D01*
G37*
G36*
X86512Y496809D02*
X86512Y496809D01*
X86511Y496809D01*
X86512Y496810D01*
X86512Y499810D01*
X86502Y499822D01*
X86501Y499821D01*
X86500Y499822D01*
X85050Y499822D01*
X85046Y499818D01*
X85042Y499818D01*
X83992Y498768D01*
X83991Y498763D01*
X83988Y498760D01*
X83988Y496810D01*
X83999Y496798D01*
X83999Y496799D01*
X84000Y496798D01*
X86500Y496798D01*
X86512Y496809D01*
G37*
G36*
X110262Y520559D02*
X110262Y520559D01*
X110261Y520559D01*
X110262Y520560D01*
X110262Y523060D01*
X110252Y523072D01*
X110251Y523071D01*
X110250Y523072D01*
X108300Y523072D01*
X108296Y523068D01*
X108292Y523068D01*
X107242Y522018D01*
X107241Y522013D01*
X107238Y522010D01*
X107238Y520560D01*
X107249Y520548D01*
X107249Y520549D01*
X107250Y520548D01*
X110250Y520548D01*
X110262Y520559D01*
G37*
G36*
X83262Y520559D02*
X83262Y520559D01*
X83261Y520559D01*
X83262Y520560D01*
X83262Y522010D01*
X83258Y522014D01*
X83258Y522018D01*
X82208Y523068D01*
X82203Y523069D01*
X82200Y523072D01*
X80250Y523072D01*
X80238Y523062D01*
X80239Y523061D01*
X80238Y523060D01*
X80238Y520560D01*
X80249Y520548D01*
X80249Y520549D01*
X80250Y520548D01*
X83250Y520548D01*
X83262Y520559D01*
G37*
G36*
X106512Y496809D02*
X106512Y496809D01*
X106511Y496809D01*
X106512Y496810D01*
X106512Y498760D01*
X106508Y498764D01*
X106508Y498768D01*
X105458Y499818D01*
X105453Y499819D01*
X105450Y499822D01*
X104000Y499822D01*
X103988Y499812D01*
X103989Y499811D01*
X103988Y499810D01*
X103988Y496810D01*
X103999Y496798D01*
X103999Y496799D01*
X104000Y496798D01*
X106500Y496798D01*
X106512Y496809D01*
G37*
%LPC*%
G36*
X68579Y467359D02*
X68579Y467359D01*
X68579Y467361D01*
X68581Y467361D01*
X68581Y467359D01*
X68579Y467359D01*
G37*
%LPD*%
%LPC*%
G36*
X185419Y368299D02*
X185419Y368299D01*
X185419Y368301D01*
X185421Y368301D01*
X185421Y368299D01*
X185419Y368299D01*
G37*
%LPD*%
%LPC*%
G36*
X185419Y342899D02*
X185419Y342899D01*
X185419Y342901D01*
X185421Y342901D01*
X185421Y342899D01*
X185419Y342899D01*
G37*
%LPD*%
%LPC*%
G36*
X180409Y190029D02*
X180409Y190029D01*
X180409Y190031D01*
X180411Y190031D01*
X180411Y190029D01*
X180409Y190029D01*
G37*
%LPD*%
%LPC*%
G36*
X19049Y529469D02*
X19049Y529469D01*
X19049Y529471D01*
X19051Y529471D01*
X19051Y529469D01*
X19049Y529469D01*
G37*
%LPD*%
%LPC*%
G36*
X30409Y170029D02*
X30409Y170029D01*
X30409Y170031D01*
X30411Y170031D01*
X30411Y170029D01*
X30409Y170029D01*
G37*
%LPD*%
%LPC*%
G36*
X30409Y210029D02*
X30409Y210029D01*
X30409Y210031D01*
X30411Y210031D01*
X30411Y210029D01*
X30409Y210029D01*
G37*
%LPD*%
%LPC*%
G36*
X75099Y574199D02*
X75099Y574199D01*
X75099Y574201D01*
X75101Y574201D01*
X75101Y574199D01*
X75099Y574199D01*
G37*
%LPD*%
D10*
X196850Y139700D03*
D11*
X179460Y563880D03*
X196460Y563880D03*
X196460Y585470D03*
X179460Y585470D03*
X197730Y515620D03*
X180730Y515620D03*
X42300Y514350D03*
X59300Y514350D03*
D12*
X22550Y508430D02*
X15550Y508430D01*
X15550Y515430D01*
X22550Y515430D01*
X22550Y508430D01*
X22550Y511280D02*
X15550Y511280D01*
X15550Y514130D02*
X22550Y514130D01*
X22550Y525970D02*
X15550Y525970D01*
X15550Y532970D01*
X22550Y532970D01*
X22550Y525970D01*
X22550Y528820D02*
X15550Y528820D01*
X15550Y531670D02*
X22550Y531670D01*
X174420Y606100D02*
X174420Y613100D01*
X181420Y613100D01*
X181420Y606100D01*
X174420Y606100D01*
X174420Y608950D02*
X181420Y608950D01*
X181420Y611800D02*
X174420Y611800D01*
X191960Y613100D02*
X191960Y606100D01*
X191960Y613100D02*
X198960Y613100D01*
X198960Y606100D01*
X191960Y606100D01*
X191960Y608950D02*
X198960Y608950D01*
X198960Y611800D02*
X191960Y611800D01*
D13*
X185420Y342900D03*
X185420Y368300D03*
X185420Y393700D03*
X185420Y419100D03*
X185420Y444500D03*
X185420Y469900D03*
D14*
X19050Y474100D03*
X19050Y491100D03*
D11*
X196460Y539750D03*
X179460Y539750D03*
X33900Y450850D03*
X16900Y450850D03*
X33900Y412750D03*
X16900Y412750D03*
X141850Y609600D03*
X124850Y609600D03*
D15*
X44450Y387350D03*
X44450Y431800D03*
D13*
X144780Y467360D03*
X119380Y467360D03*
X93980Y467360D03*
X68580Y467360D03*
X144780Y143510D03*
X119380Y143510D03*
X93980Y143510D03*
X68580Y143510D03*
D16*
X63754Y417890D03*
X63754Y409890D03*
X63754Y401890D03*
X63754Y393890D03*
X63754Y385890D03*
X63754Y377890D03*
X63754Y369890D03*
X63754Y361890D03*
D17*
X78680Y346964D03*
X86680Y346964D03*
X94680Y346964D03*
X102680Y346964D03*
X110680Y346964D03*
X118680Y346964D03*
X126680Y346964D03*
X134680Y346964D03*
D16*
X149606Y361890D03*
X149606Y369890D03*
X149606Y377890D03*
X149606Y385890D03*
X149606Y393890D03*
X149606Y401890D03*
X149606Y409890D03*
X149606Y417890D03*
D17*
X134680Y432816D03*
X126680Y432816D03*
X118680Y432816D03*
X110680Y432816D03*
X102680Y432816D03*
X94680Y432816D03*
X86680Y432816D03*
X78680Y432816D03*
D18*
X30410Y310030D03*
X30410Y290030D03*
X30410Y270030D03*
X30410Y250030D03*
X30410Y230030D03*
X30410Y210030D03*
X30410Y190030D03*
X30410Y170030D03*
X180410Y170030D03*
X180410Y190030D03*
X180410Y210030D03*
X180410Y230030D03*
X180410Y250030D03*
X180410Y270030D03*
X180410Y290030D03*
X180410Y310030D03*
D19*
X120349Y587350D03*
X120349Y577850D03*
X120349Y568350D03*
X146351Y568350D03*
X146351Y587350D03*
D20*
X110775Y501810D03*
D21*
X110250Y505810D03*
X110250Y509810D03*
X110250Y513810D03*
X110250Y517810D03*
D20*
X110775Y521810D03*
D22*
X105250Y527335D03*
D23*
X101250Y526810D03*
X97250Y526810D03*
X93250Y526810D03*
X89250Y526810D03*
D22*
X85250Y527335D03*
D20*
X79725Y521810D03*
D21*
X80250Y517810D03*
X80250Y513810D03*
X80250Y509810D03*
X80250Y505810D03*
D20*
X79725Y501810D03*
D22*
X85250Y496285D03*
D23*
X89250Y496810D03*
X93250Y496810D03*
X97250Y496810D03*
X101250Y496810D03*
D22*
X105250Y496285D03*
D24*
X135030Y522060D03*
X141530Y522060D03*
X148030Y522060D03*
X154530Y522060D03*
X154530Y501560D03*
X148030Y501560D03*
X141530Y501560D03*
X135030Y501560D03*
D25*
X38100Y366330D02*
X17780Y366330D01*
X17780Y342330D02*
X38100Y342330D01*
X38100Y354330D02*
X17780Y354330D01*
D26*
X20665Y366330D02*
X35215Y366330D01*
X35215Y354330D02*
X20665Y354330D01*
X20665Y342330D02*
X35215Y342330D01*
D27*
X75100Y574200D03*
X75100Y594200D03*
D28*
X23100Y550200D03*
X23100Y618200D03*
D25*
X134112Y353568D02*
X134112Y347472D01*
X134112Y353568D02*
X130048Y357632D01*
X75184Y357632D01*
X48768Y331216D01*
X48768Y302768D01*
X36576Y290576D01*
X30480Y290576D01*
X134112Y347472D02*
X134680Y346964D01*
X30480Y290576D02*
X30410Y290030D01*
X148336Y347472D02*
X148336Y361696D01*
X148336Y347472D02*
X52832Y251968D01*
X30480Y251968D01*
X148336Y361696D02*
X149606Y361890D01*
X30480Y251968D02*
X30410Y250030D01*
X125984Y339344D02*
X125984Y345440D01*
X125984Y339344D02*
X56896Y270256D01*
X30480Y270256D01*
X125984Y345440D02*
X126680Y346964D01*
X30480Y270256D02*
X30410Y270030D01*
X28448Y528320D02*
X20320Y528320D01*
X28448Y528320D02*
X40640Y516128D01*
X20320Y528320D02*
X19050Y529470D01*
X40640Y516128D02*
X42300Y514350D01*
X56896Y386080D02*
X62992Y386080D01*
X56896Y386080D02*
X52832Y390144D01*
X52832Y396240D01*
X56896Y400304D01*
X62992Y400304D01*
X62992Y386080D02*
X63754Y385890D01*
X62992Y400304D02*
X63754Y401890D01*
X65024Y402336D02*
X71120Y402336D01*
X73152Y404368D01*
X73152Y424688D01*
X69088Y428752D01*
X69088Y467360D01*
X65024Y402336D02*
X63754Y401890D01*
X42672Y491744D02*
X42672Y501650D01*
X42672Y514096D01*
X42672Y491744D02*
X67056Y467360D01*
X42672Y514096D02*
X42300Y514350D01*
X67056Y467360D02*
X68580Y467360D01*
X140208Y508000D02*
X140208Y514096D01*
X140208Y508000D02*
X140208Y501904D01*
X141530Y501560D01*
X154432Y501904D02*
X154432Y503936D01*
X150368Y508000D01*
X140208Y508000D01*
X154432Y501904D02*
X154530Y501560D01*
X132080Y524256D02*
X132080Y552450D01*
X132080Y524256D02*
X134112Y522224D01*
X135030Y522060D01*
X195072Y587248D02*
X195072Y609600D01*
X195072Y587248D02*
X196460Y585470D01*
X195072Y609600D02*
X191008Y609600D01*
X182880Y617728D01*
X115824Y617728D02*
X58928Y617728D01*
X115824Y617728D02*
X182880Y617728D01*
X195072Y609600D02*
X195460Y609600D01*
X130048Y591312D02*
X130048Y581152D01*
X130048Y591312D02*
X119888Y601472D01*
X117856Y601472D01*
X115824Y603504D01*
X115824Y617728D01*
X69088Y467360D02*
X68580Y467360D01*
X150368Y392176D02*
X162560Y392176D01*
X184912Y369824D01*
X150368Y392176D02*
X149606Y393890D01*
X184912Y369824D02*
X185420Y368300D01*
X184912Y367792D02*
X184912Y343408D01*
X185420Y342900D01*
X184912Y367792D02*
X185420Y368300D01*
X154432Y170688D02*
X30480Y170688D01*
X154432Y170688D02*
X172720Y188976D01*
X178816Y188976D01*
X30480Y170688D02*
X30410Y170030D01*
X178816Y188976D02*
X180410Y190030D01*
X28448Y308864D02*
X22352Y308864D01*
X8128Y294640D01*
X8128Y209550D02*
X8128Y186944D01*
X8128Y209550D02*
X8128Y294640D01*
X8128Y186944D02*
X24384Y170688D01*
X28448Y170688D01*
X28448Y308864D02*
X30410Y310030D01*
X28448Y170688D02*
X30410Y170030D01*
X186944Y329184D02*
X186944Y341376D01*
X186944Y329184D02*
X199136Y316992D01*
X199136Y203200D01*
X186944Y191008D01*
X180848Y191008D01*
X186944Y341376D02*
X185420Y342900D01*
X180848Y191008D02*
X180410Y190030D01*
X88900Y533400D02*
X69850Y533400D01*
X69850Y501650D01*
X69850Y495300D01*
X76200Y488950D01*
X88900Y488950D01*
D29*
X89250Y489300D02*
X89250Y496810D01*
D25*
X89250Y489300D02*
X88900Y488950D01*
X42300Y514350D02*
X42300Y531250D01*
X50800Y539750D01*
X50800Y558800D01*
X27940Y354330D02*
X11430Y354330D01*
X6350Y349250D01*
X6350Y324866D01*
X22352Y308864D01*
X30410Y210030D02*
X29930Y209550D01*
X8128Y209550D01*
D29*
X97250Y526810D02*
X97250Y541750D01*
D25*
X107950Y552450D01*
X130810Y552450D01*
X132080Y552450D01*
X196460Y563880D02*
X196460Y585470D01*
X130048Y581152D02*
X126746Y577850D01*
X120349Y577850D01*
X126746Y577850D02*
X130810Y573786D01*
X130810Y552450D01*
X135030Y522060D02*
X135030Y519274D01*
X140208Y514096D01*
D29*
X79725Y501810D02*
X70010Y501810D01*
D25*
X69850Y501650D01*
X42672Y501650D01*
X50800Y558800D02*
X66200Y574200D01*
X75100Y574200D01*
X38100Y596900D02*
X58928Y617728D01*
X38100Y596900D02*
X38100Y584200D01*
X48100Y574200D01*
X75100Y574200D01*
D29*
X88900Y527160D02*
X89250Y526810D01*
X88900Y527160D02*
X88900Y533400D01*
D25*
X195072Y154432D02*
X195072Y140208D01*
X195072Y154432D02*
X180848Y168656D01*
X195072Y140208D02*
X196850Y139700D01*
X180848Y168656D02*
X180410Y170030D01*
X117856Y339344D02*
X117856Y345440D01*
X117856Y339344D02*
X58928Y280416D01*
X14224Y280416D01*
X12192Y278384D01*
X12192Y241808D01*
X22352Y231648D01*
X28448Y231648D01*
X117856Y345440D02*
X118680Y346964D01*
X28448Y231648D02*
X30410Y230030D01*
X146304Y589280D02*
X125984Y609600D01*
X124850Y609600D01*
X146304Y589280D02*
X146351Y587350D01*
X148336Y587248D02*
X178816Y587248D01*
X179460Y585470D01*
X148336Y587248D02*
X146351Y587350D01*
X136144Y499872D02*
X136144Y497840D01*
X138176Y495808D01*
X144272Y495808D01*
X148336Y499872D01*
X136144Y499872D02*
X135030Y501560D01*
X148030Y501560D02*
X148336Y499872D01*
X144272Y495808D02*
X144272Y467360D01*
X144780Y467360D01*
X178816Y528320D02*
X178816Y538480D01*
X178816Y528320D02*
X160528Y510032D01*
X160528Y497840D01*
X158496Y495808D01*
X144272Y495808D01*
X178816Y538480D02*
X179460Y539750D01*
X146304Y581152D02*
X146304Y587248D01*
X146304Y581152D02*
X136144Y570992D01*
X136144Y564896D01*
X160528Y540512D01*
X178816Y540512D01*
X146304Y587248D02*
X146351Y587350D01*
X178816Y540512D02*
X179460Y539750D01*
X148336Y371856D02*
X142240Y371856D01*
X140208Y373888D01*
X140208Y377952D02*
X140208Y382016D01*
X140208Y377952D02*
X140208Y373888D01*
X140208Y382016D02*
X142240Y384048D01*
X148336Y384048D01*
X148336Y371856D02*
X149606Y369890D01*
X148336Y384048D02*
X149606Y385890D01*
X69088Y377952D02*
X65024Y377952D01*
X69088Y377952D02*
X73152Y382016D01*
X73152Y390144D01*
X71120Y392176D01*
X65024Y392176D01*
X65024Y377952D02*
X63754Y377890D01*
X65024Y392176D02*
X63754Y393890D01*
X18288Y414528D02*
X18288Y449072D01*
X18288Y414528D02*
X16900Y412750D01*
X18288Y449072D02*
X16900Y450850D01*
X42672Y377952D02*
X62992Y377952D01*
X42672Y377952D02*
X18288Y402336D01*
X18288Y412496D01*
X62992Y377952D02*
X63754Y377890D01*
X18288Y412496D02*
X16900Y412750D01*
X77216Y377952D02*
X140208Y377952D01*
X77216Y377952D02*
X73152Y382016D01*
X172720Y251968D02*
X178816Y251968D01*
X172720Y251968D02*
X154432Y270256D01*
X154432Y353568D01*
X160528Y359664D01*
X160528Y365760D01*
X156464Y369824D01*
X150368Y369824D01*
X178816Y251968D02*
X180410Y250030D01*
X150368Y369824D02*
X149606Y369890D01*
X140208Y422656D02*
X144272Y426720D01*
X140208Y422656D02*
X140208Y382016D01*
D30*
X144272Y426720D03*
D29*
X95250Y514350D02*
X101250Y520350D01*
X101250Y526810D01*
X110775Y501810D02*
X120650Y501810D01*
X134780Y501810D01*
D25*
X135030Y501560D01*
D29*
X83980Y521810D02*
X79725Y521810D01*
X91440Y514350D02*
X95250Y514350D01*
X91440Y514350D02*
X83980Y521810D01*
X101250Y526810D02*
X101250Y533050D01*
X106680Y538480D01*
X115570Y538480D01*
X120650Y533400D01*
X120650Y501810D01*
D25*
X79248Y432816D02*
X79248Y404368D01*
X97536Y386080D01*
X162560Y321056D02*
X162560Y282448D01*
X174752Y270256D01*
X178816Y270256D01*
X79248Y432816D02*
X78680Y432816D01*
X178816Y270256D02*
X180410Y270030D01*
D30*
X97536Y386080D03*
X162560Y321056D03*
D25*
X119888Y568960D02*
X115824Y568960D01*
X109728Y575056D01*
X109728Y581152D01*
X115824Y587248D01*
X119888Y587248D01*
X119888Y568960D02*
X120349Y568350D01*
X119888Y587248D02*
X120349Y587350D01*
X112936Y594200D02*
X75100Y594200D01*
X112936Y594200D02*
X119888Y587248D01*
X141850Y609600D02*
X177920Y609600D01*
X178816Y564896D02*
X150368Y564896D01*
X148336Y566928D01*
X178816Y564896D02*
X179460Y563880D01*
X148336Y566928D02*
X146351Y568350D01*
X63754Y369890D02*
X62164Y368300D01*
X50800Y368300D01*
X48260Y365760D01*
X28510Y365760D01*
X27940Y366330D01*
X50800Y348936D02*
X63754Y361890D01*
X50800Y348936D02*
X50800Y342900D01*
X50230Y342330D01*
X27940Y342330D01*
X62992Y418592D02*
X62992Y449072D01*
X62992Y418592D02*
X63754Y417890D01*
X37964Y474100D02*
X19050Y474100D01*
X37964Y474100D02*
X62992Y449072D01*
X18288Y510032D02*
X19050Y511930D01*
X18288Y491490D02*
X19050Y491100D01*
X19050Y492252D02*
X19050Y511930D01*
X19050Y492252D02*
X18288Y491490D01*
X197104Y516128D02*
X197104Y538480D01*
X197104Y516128D02*
X197730Y515620D01*
X197104Y538480D02*
X196460Y539750D01*
X103632Y438912D02*
X103632Y432816D01*
X103632Y438912D02*
X107696Y442976D01*
X144272Y442976D01*
X180848Y406400D01*
X191008Y406400D01*
X199136Y414528D01*
X199136Y514096D01*
X103632Y432816D02*
X102680Y432816D01*
X197730Y515620D02*
X199136Y514096D01*
X180848Y514096D02*
X180848Y475488D01*
X184912Y471424D01*
X180848Y514096D02*
X180730Y515620D01*
X184912Y471424D02*
X185420Y469900D01*
X87376Y438912D02*
X87376Y432816D01*
X87376Y438912D02*
X99568Y451104D01*
X178816Y451104D01*
X185420Y444500D01*
X87376Y432816D02*
X86680Y432816D01*
X95504Y432816D02*
X95504Y438912D01*
X103632Y447040D01*
X158496Y447040D01*
X184912Y420624D01*
X95504Y432816D02*
X94680Y432816D01*
X184912Y420624D02*
X185420Y419100D01*
X146304Y522224D02*
X146304Y530352D01*
X146304Y522224D02*
X148030Y522060D01*
X119888Y432816D02*
X119888Y420624D01*
X119888Y432816D02*
X118680Y432816D01*
X34544Y451104D02*
X34544Y455168D01*
X40640Y461264D01*
X34544Y451104D02*
X33900Y450850D01*
D30*
X146304Y530352D03*
X119888Y420624D03*
X40640Y461264D03*
D29*
X105250Y491650D02*
X105250Y496285D01*
X114300Y482600D02*
X120650Y482600D01*
D31*
X120650Y482600D03*
D29*
X114300Y482600D02*
X105250Y491650D01*
D25*
X33900Y450850D02*
X44450Y431800D01*
X154432Y514096D02*
X154432Y520192D01*
X154530Y522060D01*
X109728Y432816D02*
X109728Y420624D01*
X109728Y432816D02*
X110680Y432816D01*
X32512Y418592D02*
X32512Y414528D01*
X32512Y418592D02*
X26416Y424688D01*
X32512Y414528D02*
X33900Y412750D01*
D30*
X154432Y514096D03*
X109728Y420624D03*
X26416Y424688D03*
D29*
X101250Y485490D02*
X101250Y496810D01*
X101250Y485490D02*
X119380Y467360D01*
D25*
X44450Y412750D02*
X33900Y412750D01*
X44450Y412750D02*
X44450Y387350D01*
D29*
X93250Y526810D02*
X93250Y535400D01*
X88900Y539750D01*
X69850Y539750D01*
X59300Y529200D02*
X59300Y514350D01*
X59300Y529200D02*
X69850Y539750D01*
M02*
