G04 EAGLE Gerber RS-274X export*
G75*
%MOMM*%
%FSLAX34Y34*%
%LPD*%
%IN*%
%IPPOS*%
%AMOC8*
5,1,8,0,0,1.08239X$1,22.5*%
G01*
%ADD10C,0.254000*%


D10*
X0Y158750D02*
X31750Y127000D01*
X209550Y127000D01*
X209550Y679450D01*
X177800Y717550D01*
X31750Y717550D01*
X0Y679450D01*
X0Y158750D01*
X131699Y680018D02*
X131620Y678616D01*
X131463Y677221D01*
X131228Y675837D01*
X130916Y674468D01*
X130527Y673119D01*
X130063Y671794D01*
X129526Y670497D01*
X128917Y669232D01*
X128238Y668003D01*
X127491Y666815D01*
X126678Y665670D01*
X125803Y664572D01*
X124867Y663525D01*
X123875Y662533D01*
X122828Y661597D01*
X121730Y660722D01*
X120585Y659909D01*
X119397Y659162D01*
X118168Y658483D01*
X116903Y657874D01*
X115606Y657337D01*
X114281Y656873D01*
X112932Y656484D01*
X111563Y656172D01*
X110179Y655937D01*
X108784Y655780D01*
X107382Y655701D01*
X105978Y655701D01*
X104576Y655780D01*
X103181Y655937D01*
X101797Y656172D01*
X100428Y656484D01*
X99079Y656873D01*
X97754Y657337D01*
X96457Y657874D01*
X95192Y658483D01*
X93963Y659162D01*
X92775Y659909D01*
X91630Y660722D01*
X90532Y661597D01*
X89485Y662533D01*
X88493Y663525D01*
X87557Y664572D01*
X86682Y665670D01*
X85869Y666815D01*
X85122Y668003D01*
X84443Y669232D01*
X83834Y670497D01*
X83297Y671794D01*
X82833Y673119D01*
X82444Y674468D01*
X82132Y675837D01*
X81897Y677221D01*
X81740Y678616D01*
X81661Y680018D01*
X81661Y681422D01*
X81740Y682824D01*
X81897Y684219D01*
X82132Y685603D01*
X82444Y686972D01*
X82833Y688321D01*
X83297Y689646D01*
X83834Y690943D01*
X84443Y692208D01*
X85122Y693437D01*
X85869Y694625D01*
X86682Y695770D01*
X87557Y696868D01*
X88493Y697915D01*
X89485Y698907D01*
X90532Y699843D01*
X91630Y700718D01*
X92775Y701531D01*
X93963Y702278D01*
X95192Y702957D01*
X96457Y703566D01*
X97754Y704103D01*
X99079Y704567D01*
X100428Y704956D01*
X101797Y705268D01*
X103181Y705503D01*
X104576Y705660D01*
X105978Y705739D01*
X107382Y705739D01*
X108784Y705660D01*
X110179Y705503D01*
X111563Y705268D01*
X112932Y704956D01*
X114281Y704567D01*
X115606Y704103D01*
X116903Y703566D01*
X118168Y702957D01*
X119397Y702278D01*
X120585Y701531D01*
X121730Y700718D01*
X122828Y699843D01*
X123875Y698907D01*
X124867Y697915D01*
X125803Y696868D01*
X126678Y695770D01*
X127491Y694625D01*
X128238Y693437D01*
X128917Y692208D01*
X129526Y690943D01*
X130063Y689646D01*
X130527Y688321D01*
X130916Y686972D01*
X131228Y685603D01*
X131463Y684219D01*
X131620Y682824D01*
X131699Y681422D01*
X131699Y680018D01*
M02*
