M48
;GenerationSoftware,Autodesk,EAGLE,9.5.0*%
;CreationDate,2019-10-10T17:33:50Z*%
FMAT,2
ICI,OFF
METRIC,TZ,000.000
T5C0.330
T4C0.350
T3C0.800
T2C1.016
T1C5.004
%
G90
M71
T1
X10668Y68072
T2
X18542Y34290
X18542Y36830
X18542Y39370
X18542Y41910
X18542Y44450
X18542Y46990
X14478Y46736
X11938Y46736
X9398Y46736
X6858Y46736
X14478Y14351
X11938Y14351
X9398Y14351
X6858Y14351
T3
X19685Y13970
T4
X12065Y48260
T5
X14427Y42672
X9754Y38608
X16256Y32106
X14630Y53035
X11989Y42062
X4064Y46126
X15443Y51410
X10973Y42062
X2642Y42469
M30