G04 EAGLE Gerber RS-274X export*
G75*
%MOMM*%
%FSLAX34Y34*%
%LPD*%
%INSilkscreen Bottom*%
%IPPOS*%
%AMOC8*
5,1,8,0,0,1.08239X$1,22.5*%
G01*
%ADD10C,0.152400*%
%ADD11C,0.076200*%


D10*
X126238Y187593D02*
X121722Y187593D01*
X121722Y187594D02*
X121589Y187592D01*
X121457Y187586D01*
X121325Y187576D01*
X121193Y187563D01*
X121061Y187545D01*
X120931Y187524D01*
X120800Y187499D01*
X120671Y187470D01*
X120543Y187437D01*
X120415Y187401D01*
X120289Y187361D01*
X120164Y187317D01*
X120040Y187269D01*
X119918Y187218D01*
X119797Y187163D01*
X119678Y187105D01*
X119560Y187043D01*
X119445Y186978D01*
X119331Y186909D01*
X119220Y186838D01*
X119111Y186762D01*
X119004Y186684D01*
X118899Y186603D01*
X118797Y186518D01*
X118697Y186431D01*
X118600Y186341D01*
X118505Y186248D01*
X118414Y186152D01*
X118325Y186054D01*
X118239Y185953D01*
X118156Y185849D01*
X118076Y185743D01*
X118000Y185635D01*
X117926Y185525D01*
X117856Y185412D01*
X117789Y185298D01*
X117726Y185181D01*
X117666Y185063D01*
X117609Y184943D01*
X117556Y184821D01*
X117507Y184698D01*
X117461Y184574D01*
X117419Y184448D01*
X117381Y184321D01*
X117346Y184193D01*
X117315Y184064D01*
X117288Y183935D01*
X117265Y183804D01*
X117245Y183673D01*
X117230Y183541D01*
X117218Y183409D01*
X117210Y183277D01*
X117206Y183144D01*
X117206Y183012D01*
X117210Y182879D01*
X117218Y182747D01*
X117230Y182615D01*
X117245Y182483D01*
X117265Y182352D01*
X117288Y182221D01*
X117315Y182092D01*
X117346Y181963D01*
X117381Y181835D01*
X117419Y181708D01*
X117461Y181582D01*
X117507Y181458D01*
X117556Y181335D01*
X117609Y181213D01*
X117666Y181093D01*
X117726Y180975D01*
X117789Y180858D01*
X117856Y180744D01*
X117926Y180631D01*
X118000Y180521D01*
X118076Y180413D01*
X118156Y180307D01*
X118239Y180203D01*
X118325Y180102D01*
X118414Y180004D01*
X118505Y179908D01*
X118600Y179815D01*
X118697Y179725D01*
X118797Y179638D01*
X118899Y179553D01*
X119004Y179472D01*
X119111Y179394D01*
X119220Y179318D01*
X119331Y179247D01*
X119445Y179178D01*
X119560Y179113D01*
X119678Y179051D01*
X119797Y178993D01*
X119918Y178938D01*
X120040Y178887D01*
X120164Y178839D01*
X120289Y178795D01*
X120415Y178755D01*
X120543Y178719D01*
X120671Y178686D01*
X120800Y178657D01*
X120931Y178632D01*
X121061Y178611D01*
X121193Y178593D01*
X121325Y178580D01*
X121457Y178570D01*
X121589Y178564D01*
X121722Y178562D01*
X126238Y178562D01*
X126238Y194818D01*
X121722Y194818D01*
X121603Y194816D01*
X121483Y194810D01*
X121364Y194800D01*
X121246Y194786D01*
X121127Y194769D01*
X121010Y194747D01*
X120893Y194722D01*
X120778Y194692D01*
X120663Y194659D01*
X120549Y194622D01*
X120437Y194582D01*
X120326Y194537D01*
X120217Y194489D01*
X120109Y194438D01*
X120003Y194383D01*
X119899Y194324D01*
X119797Y194262D01*
X119697Y194197D01*
X119599Y194128D01*
X119503Y194056D01*
X119410Y193981D01*
X119320Y193904D01*
X119232Y193823D01*
X119147Y193739D01*
X119065Y193652D01*
X118985Y193563D01*
X118909Y193471D01*
X118835Y193377D01*
X118765Y193280D01*
X118698Y193182D01*
X118634Y193081D01*
X118574Y192977D01*
X118517Y192872D01*
X118464Y192765D01*
X118414Y192657D01*
X118368Y192547D01*
X118326Y192435D01*
X118287Y192322D01*
X118252Y192208D01*
X118221Y192093D01*
X118193Y191976D01*
X118170Y191859D01*
X118150Y191742D01*
X118134Y191623D01*
X118122Y191504D01*
X118114Y191385D01*
X118110Y191266D01*
X118110Y191146D01*
X118114Y191027D01*
X118122Y190908D01*
X118134Y190789D01*
X118150Y190670D01*
X118170Y190553D01*
X118193Y190436D01*
X118221Y190319D01*
X118252Y190204D01*
X118287Y190090D01*
X118326Y189977D01*
X118368Y189865D01*
X118414Y189755D01*
X118464Y189647D01*
X118517Y189540D01*
X118574Y189435D01*
X118634Y189331D01*
X118698Y189230D01*
X118765Y189132D01*
X118835Y189035D01*
X118909Y188941D01*
X118985Y188849D01*
X119065Y188760D01*
X119147Y188673D01*
X119232Y188589D01*
X119320Y188508D01*
X119410Y188431D01*
X119503Y188356D01*
X119599Y188284D01*
X119697Y188215D01*
X119797Y188150D01*
X119899Y188088D01*
X120003Y188029D01*
X120109Y187974D01*
X120217Y187923D01*
X120326Y187875D01*
X120437Y187830D01*
X120549Y187790D01*
X120663Y187753D01*
X120778Y187720D01*
X120893Y187690D01*
X121010Y187665D01*
X121127Y187643D01*
X121246Y187626D01*
X121364Y187612D01*
X121483Y187602D01*
X121603Y187596D01*
X121722Y187594D01*
X112242Y194818D02*
X106823Y187142D01*
X101405Y194818D01*
X106823Y187142D02*
X106823Y178562D01*
X95186Y183078D02*
X95186Y194818D01*
X95187Y183078D02*
X95185Y182945D01*
X95179Y182813D01*
X95169Y182681D01*
X95156Y182549D01*
X95138Y182417D01*
X95117Y182287D01*
X95092Y182156D01*
X95063Y182027D01*
X95030Y181899D01*
X94994Y181771D01*
X94954Y181645D01*
X94910Y181520D01*
X94862Y181396D01*
X94811Y181274D01*
X94756Y181153D01*
X94698Y181034D01*
X94636Y180916D01*
X94571Y180801D01*
X94502Y180687D01*
X94431Y180576D01*
X94355Y180467D01*
X94277Y180360D01*
X94196Y180255D01*
X94111Y180153D01*
X94024Y180053D01*
X93934Y179956D01*
X93841Y179861D01*
X93745Y179770D01*
X93647Y179681D01*
X93546Y179595D01*
X93442Y179512D01*
X93336Y179432D01*
X93228Y179356D01*
X93118Y179282D01*
X93005Y179212D01*
X92891Y179145D01*
X92774Y179082D01*
X92656Y179022D01*
X92536Y178965D01*
X92414Y178912D01*
X92291Y178863D01*
X92167Y178817D01*
X92041Y178775D01*
X91914Y178737D01*
X91786Y178702D01*
X91657Y178671D01*
X91528Y178644D01*
X91397Y178621D01*
X91266Y178601D01*
X91134Y178586D01*
X91002Y178574D01*
X90870Y178566D01*
X90737Y178562D01*
X90605Y178562D01*
X90472Y178566D01*
X90340Y178574D01*
X90208Y178586D01*
X90076Y178601D01*
X89945Y178621D01*
X89814Y178644D01*
X89685Y178671D01*
X89556Y178702D01*
X89428Y178737D01*
X89301Y178775D01*
X89175Y178817D01*
X89051Y178863D01*
X88928Y178912D01*
X88806Y178965D01*
X88686Y179022D01*
X88568Y179082D01*
X88451Y179145D01*
X88337Y179212D01*
X88224Y179282D01*
X88114Y179356D01*
X88006Y179432D01*
X87900Y179512D01*
X87796Y179595D01*
X87695Y179681D01*
X87597Y179770D01*
X87501Y179861D01*
X87408Y179956D01*
X87318Y180053D01*
X87231Y180153D01*
X87146Y180255D01*
X87065Y180360D01*
X86987Y180467D01*
X86911Y180576D01*
X86840Y180687D01*
X86771Y180801D01*
X86706Y180916D01*
X86644Y181034D01*
X86586Y181153D01*
X86531Y181274D01*
X86480Y181396D01*
X86432Y181520D01*
X86388Y181645D01*
X86348Y181771D01*
X86312Y181899D01*
X86279Y182027D01*
X86250Y182156D01*
X86225Y182287D01*
X86204Y182417D01*
X86186Y182549D01*
X86173Y182681D01*
X86163Y182813D01*
X86157Y182945D01*
X86155Y183078D01*
X86155Y194818D01*
D11*
X148886Y174879D02*
X152019Y165481D01*
X145754Y165481D02*
X148886Y174879D01*
X146537Y167831D02*
X151236Y167831D01*
X142136Y167047D02*
X142136Y171746D01*
X142135Y167047D02*
X142133Y166970D01*
X142127Y166894D01*
X142118Y166817D01*
X142105Y166741D01*
X142088Y166666D01*
X142068Y166592D01*
X142043Y166519D01*
X142016Y166448D01*
X141985Y166377D01*
X141950Y166309D01*
X141912Y166242D01*
X141871Y166177D01*
X141827Y166114D01*
X141780Y166054D01*
X141729Y165995D01*
X141676Y165940D01*
X141621Y165887D01*
X141562Y165836D01*
X141502Y165789D01*
X141439Y165745D01*
X141374Y165704D01*
X141307Y165666D01*
X141239Y165631D01*
X141168Y165600D01*
X141097Y165573D01*
X141024Y165548D01*
X140950Y165528D01*
X140875Y165511D01*
X140799Y165498D01*
X140722Y165489D01*
X140646Y165483D01*
X140569Y165481D01*
X137959Y165481D01*
X137959Y171746D01*
X134675Y171746D02*
X131542Y171746D01*
X133631Y174879D02*
X133631Y167047D01*
X133630Y167047D02*
X133628Y166970D01*
X133622Y166894D01*
X133613Y166817D01*
X133600Y166741D01*
X133583Y166666D01*
X133563Y166592D01*
X133538Y166519D01*
X133511Y166448D01*
X133480Y166377D01*
X133445Y166309D01*
X133407Y166242D01*
X133366Y166177D01*
X133322Y166114D01*
X133275Y166054D01*
X133224Y165995D01*
X133171Y165940D01*
X133116Y165887D01*
X133057Y165836D01*
X132997Y165789D01*
X132934Y165745D01*
X132869Y165704D01*
X132802Y165666D01*
X132734Y165631D01*
X132663Y165600D01*
X132592Y165573D01*
X132519Y165548D01*
X132445Y165528D01*
X132370Y165511D01*
X132294Y165498D01*
X132217Y165489D01*
X132141Y165483D01*
X132064Y165481D01*
X131542Y165481D01*
X127810Y167047D02*
X127810Y171746D01*
X127810Y167047D02*
X127808Y166970D01*
X127802Y166894D01*
X127793Y166817D01*
X127780Y166741D01*
X127763Y166666D01*
X127743Y166592D01*
X127718Y166519D01*
X127691Y166448D01*
X127660Y166377D01*
X127625Y166309D01*
X127587Y166242D01*
X127546Y166177D01*
X127502Y166114D01*
X127455Y166054D01*
X127404Y165995D01*
X127351Y165940D01*
X127296Y165887D01*
X127237Y165836D01*
X127177Y165789D01*
X127114Y165745D01*
X127049Y165704D01*
X126982Y165666D01*
X126914Y165631D01*
X126843Y165600D01*
X126772Y165573D01*
X126699Y165548D01*
X126625Y165528D01*
X126550Y165511D01*
X126474Y165498D01*
X126397Y165489D01*
X126321Y165483D01*
X126244Y165481D01*
X123633Y165481D01*
X123633Y171746D01*
X119101Y171746D02*
X119101Y165481D01*
X119101Y171746D02*
X114402Y171746D01*
X114325Y171744D01*
X114249Y171738D01*
X114172Y171729D01*
X114096Y171716D01*
X114021Y171699D01*
X113947Y171679D01*
X113874Y171654D01*
X113803Y171627D01*
X113732Y171596D01*
X113664Y171561D01*
X113597Y171523D01*
X113532Y171482D01*
X113469Y171438D01*
X113409Y171391D01*
X113350Y171340D01*
X113295Y171287D01*
X113242Y171232D01*
X113191Y171173D01*
X113144Y171113D01*
X113100Y171050D01*
X113059Y170985D01*
X113021Y170918D01*
X112986Y170850D01*
X112955Y170779D01*
X112928Y170708D01*
X112903Y170635D01*
X112883Y170561D01*
X112866Y170486D01*
X112853Y170410D01*
X112844Y170333D01*
X112838Y170257D01*
X112836Y170180D01*
X112835Y170180D02*
X112835Y165481D01*
X115968Y165481D02*
X115968Y171746D01*
X108303Y171746D02*
X108303Y165481D01*
X108303Y171746D02*
X105692Y171746D01*
X105615Y171744D01*
X105539Y171738D01*
X105462Y171729D01*
X105386Y171716D01*
X105312Y171699D01*
X105237Y171679D01*
X105164Y171654D01*
X105093Y171627D01*
X105022Y171596D01*
X104954Y171561D01*
X104887Y171523D01*
X104822Y171482D01*
X104759Y171438D01*
X104699Y171391D01*
X104640Y171340D01*
X104585Y171287D01*
X104532Y171232D01*
X104481Y171173D01*
X104434Y171113D01*
X104390Y171050D01*
X104349Y170985D01*
X104311Y170918D01*
X104276Y170850D01*
X104245Y170779D01*
X104218Y170708D01*
X104193Y170635D01*
X104173Y170561D01*
X104156Y170486D01*
X104143Y170410D01*
X104134Y170334D01*
X104128Y170257D01*
X104126Y170180D01*
X104126Y165481D01*
X92238Y174880D02*
X92143Y174878D01*
X92049Y174872D01*
X91955Y174863D01*
X91861Y174850D01*
X91768Y174833D01*
X91676Y174812D01*
X91584Y174787D01*
X91494Y174759D01*
X91405Y174727D01*
X91317Y174692D01*
X91231Y174653D01*
X91146Y174611D01*
X91063Y174565D01*
X90982Y174516D01*
X90903Y174464D01*
X90826Y174409D01*
X90752Y174350D01*
X90680Y174289D01*
X90610Y174225D01*
X90543Y174158D01*
X90479Y174088D01*
X90418Y174016D01*
X90359Y173942D01*
X90304Y173865D01*
X90252Y173786D01*
X90203Y173705D01*
X90157Y173622D01*
X90115Y173537D01*
X90076Y173451D01*
X90041Y173363D01*
X90009Y173274D01*
X89981Y173184D01*
X89956Y173092D01*
X89935Y173000D01*
X89918Y172907D01*
X89905Y172813D01*
X89896Y172719D01*
X89890Y172625D01*
X89888Y172530D01*
X92238Y174879D02*
X92346Y174877D01*
X92455Y174871D01*
X92563Y174861D01*
X92670Y174848D01*
X92777Y174830D01*
X92884Y174809D01*
X92989Y174784D01*
X93094Y174755D01*
X93197Y174723D01*
X93299Y174686D01*
X93400Y174646D01*
X93499Y174603D01*
X93597Y174556D01*
X93693Y174505D01*
X93787Y174451D01*
X93879Y174394D01*
X93969Y174333D01*
X94057Y174269D01*
X94142Y174203D01*
X94225Y174133D01*
X94305Y174060D01*
X94383Y173984D01*
X94458Y173906D01*
X94530Y173825D01*
X94599Y173741D01*
X94665Y173655D01*
X94728Y173567D01*
X94787Y173476D01*
X94844Y173384D01*
X94897Y173289D01*
X94946Y173192D01*
X94992Y173094D01*
X95035Y172995D01*
X95074Y172893D01*
X95109Y172791D01*
X90671Y170702D02*
X90602Y170771D01*
X90536Y170842D01*
X90472Y170915D01*
X90411Y170991D01*
X90353Y171070D01*
X90299Y171150D01*
X90247Y171233D01*
X90199Y171317D01*
X90153Y171403D01*
X90112Y171491D01*
X90073Y171581D01*
X90038Y171672D01*
X90007Y171764D01*
X89979Y171857D01*
X89955Y171951D01*
X89935Y172046D01*
X89918Y172142D01*
X89905Y172239D01*
X89896Y172336D01*
X89890Y172433D01*
X89888Y172530D01*
X90671Y170702D02*
X95109Y165481D01*
X89888Y165481D01*
X85966Y170180D02*
X85964Y170365D01*
X85957Y170550D01*
X85946Y170734D01*
X85931Y170918D01*
X85911Y171102D01*
X85887Y171286D01*
X85858Y171468D01*
X85825Y171650D01*
X85788Y171831D01*
X85746Y172011D01*
X85700Y172191D01*
X85650Y172369D01*
X85596Y172545D01*
X85537Y172721D01*
X85475Y172895D01*
X85408Y173067D01*
X85337Y173238D01*
X85262Y173407D01*
X85183Y173574D01*
X85153Y173654D01*
X85120Y173733D01*
X85083Y173810D01*
X85043Y173886D01*
X85000Y173960D01*
X84954Y174032D01*
X84904Y174101D01*
X84852Y174169D01*
X84796Y174234D01*
X84738Y174297D01*
X84676Y174356D01*
X84613Y174414D01*
X84546Y174468D01*
X84478Y174519D01*
X84407Y174567D01*
X84334Y174612D01*
X84260Y174654D01*
X84183Y174692D01*
X84105Y174727D01*
X84026Y174759D01*
X83945Y174787D01*
X83863Y174811D01*
X83779Y174832D01*
X83696Y174849D01*
X83611Y174862D01*
X83526Y174871D01*
X83441Y174877D01*
X83355Y174879D01*
X83269Y174877D01*
X83184Y174871D01*
X83099Y174862D01*
X83014Y174849D01*
X82931Y174832D01*
X82847Y174811D01*
X82765Y174787D01*
X82685Y174759D01*
X82605Y174727D01*
X82527Y174692D01*
X82450Y174654D01*
X82376Y174612D01*
X82303Y174567D01*
X82232Y174519D01*
X82164Y174468D01*
X82097Y174414D01*
X82034Y174356D01*
X81973Y174297D01*
X81914Y174234D01*
X81859Y174169D01*
X81806Y174101D01*
X81756Y174032D01*
X81710Y173960D01*
X81667Y173886D01*
X81627Y173810D01*
X81590Y173733D01*
X81557Y173654D01*
X81527Y173574D01*
X81448Y173407D01*
X81373Y173238D01*
X81302Y173067D01*
X81235Y172895D01*
X81173Y172721D01*
X81114Y172545D01*
X81060Y172369D01*
X81010Y172191D01*
X80964Y172011D01*
X80922Y171831D01*
X80885Y171650D01*
X80852Y171468D01*
X80823Y171286D01*
X80799Y171102D01*
X80779Y170918D01*
X80764Y170734D01*
X80753Y170550D01*
X80746Y170365D01*
X80744Y170180D01*
X85965Y170180D02*
X85963Y169995D01*
X85956Y169810D01*
X85945Y169626D01*
X85930Y169442D01*
X85910Y169258D01*
X85886Y169074D01*
X85857Y168892D01*
X85824Y168710D01*
X85787Y168529D01*
X85745Y168349D01*
X85699Y168169D01*
X85649Y167991D01*
X85595Y167815D01*
X85536Y167639D01*
X85474Y167465D01*
X85407Y167293D01*
X85336Y167122D01*
X85261Y166953D01*
X85182Y166786D01*
X85183Y166786D02*
X85153Y166706D01*
X85120Y166627D01*
X85083Y166550D01*
X85043Y166474D01*
X85000Y166400D01*
X84954Y166328D01*
X84904Y166259D01*
X84851Y166191D01*
X84796Y166126D01*
X84737Y166063D01*
X84676Y166004D01*
X84613Y165946D01*
X84546Y165892D01*
X84478Y165841D01*
X84407Y165793D01*
X84334Y165748D01*
X84260Y165706D01*
X84183Y165668D01*
X84105Y165633D01*
X84026Y165601D01*
X83945Y165573D01*
X83863Y165549D01*
X83779Y165528D01*
X83696Y165511D01*
X83611Y165498D01*
X83526Y165489D01*
X83441Y165483D01*
X83355Y165481D01*
X81527Y166786D02*
X81448Y166953D01*
X81373Y167122D01*
X81302Y167293D01*
X81235Y167465D01*
X81173Y167639D01*
X81114Y167815D01*
X81060Y167991D01*
X81010Y168169D01*
X80964Y168349D01*
X80922Y168529D01*
X80885Y168710D01*
X80852Y168892D01*
X80823Y169074D01*
X80799Y169258D01*
X80779Y169442D01*
X80764Y169626D01*
X80753Y169810D01*
X80746Y169995D01*
X80744Y170180D01*
X81527Y166786D02*
X81557Y166706D01*
X81590Y166627D01*
X81627Y166550D01*
X81667Y166474D01*
X81710Y166400D01*
X81756Y166328D01*
X81806Y166259D01*
X81859Y166191D01*
X81914Y166126D01*
X81973Y166063D01*
X82034Y166004D01*
X82097Y165946D01*
X82164Y165892D01*
X82232Y165841D01*
X82303Y165793D01*
X82376Y165748D01*
X82450Y165706D01*
X82527Y165668D01*
X82605Y165633D01*
X82685Y165601D01*
X82765Y165573D01*
X82847Y165549D01*
X82931Y165528D01*
X83014Y165511D01*
X83099Y165498D01*
X83184Y165489D01*
X83269Y165483D01*
X83355Y165481D01*
X85443Y167569D02*
X81266Y172791D01*
X76821Y172791D02*
X74211Y174879D01*
X74211Y165481D01*
X76821Y165481D02*
X71600Y165481D01*
X65589Y169658D02*
X62456Y169658D01*
X65589Y169658D02*
X65678Y169660D01*
X65766Y169666D01*
X65854Y169675D01*
X65942Y169688D01*
X66029Y169705D01*
X66115Y169725D01*
X66200Y169750D01*
X66285Y169777D01*
X66368Y169809D01*
X66449Y169843D01*
X66529Y169882D01*
X66607Y169923D01*
X66684Y169968D01*
X66758Y170016D01*
X66831Y170067D01*
X66901Y170121D01*
X66968Y170179D01*
X67034Y170239D01*
X67096Y170301D01*
X67156Y170367D01*
X67214Y170434D01*
X67268Y170504D01*
X67319Y170577D01*
X67367Y170651D01*
X67412Y170728D01*
X67453Y170806D01*
X67492Y170886D01*
X67526Y170967D01*
X67558Y171050D01*
X67585Y171135D01*
X67610Y171220D01*
X67630Y171306D01*
X67647Y171393D01*
X67660Y171481D01*
X67669Y171569D01*
X67675Y171657D01*
X67677Y171746D01*
X67677Y172268D01*
X67678Y172268D02*
X67676Y172369D01*
X67670Y172470D01*
X67660Y172571D01*
X67647Y172671D01*
X67629Y172771D01*
X67608Y172870D01*
X67582Y172968D01*
X67553Y173065D01*
X67521Y173161D01*
X67484Y173255D01*
X67444Y173348D01*
X67400Y173440D01*
X67353Y173529D01*
X67302Y173617D01*
X67248Y173703D01*
X67191Y173786D01*
X67131Y173868D01*
X67067Y173946D01*
X67001Y174023D01*
X66931Y174096D01*
X66859Y174167D01*
X66784Y174235D01*
X66706Y174300D01*
X66626Y174362D01*
X66544Y174421D01*
X66459Y174477D01*
X66373Y174529D01*
X66284Y174578D01*
X66193Y174624D01*
X66101Y174665D01*
X66007Y174704D01*
X65912Y174738D01*
X65816Y174769D01*
X65718Y174796D01*
X65620Y174820D01*
X65520Y174839D01*
X65420Y174855D01*
X65320Y174867D01*
X65219Y174875D01*
X65118Y174879D01*
X65016Y174879D01*
X64915Y174875D01*
X64814Y174867D01*
X64714Y174855D01*
X64614Y174839D01*
X64514Y174820D01*
X64416Y174796D01*
X64318Y174769D01*
X64222Y174738D01*
X64127Y174704D01*
X64033Y174665D01*
X63941Y174624D01*
X63850Y174578D01*
X63762Y174529D01*
X63675Y174477D01*
X63590Y174421D01*
X63508Y174362D01*
X63428Y174300D01*
X63350Y174235D01*
X63275Y174167D01*
X63203Y174096D01*
X63133Y174023D01*
X63067Y173946D01*
X63003Y173868D01*
X62943Y173786D01*
X62886Y173703D01*
X62832Y173617D01*
X62781Y173529D01*
X62734Y173440D01*
X62690Y173348D01*
X62650Y173255D01*
X62613Y173161D01*
X62581Y173065D01*
X62552Y172968D01*
X62526Y172870D01*
X62505Y172771D01*
X62487Y172671D01*
X62474Y172571D01*
X62464Y172470D01*
X62458Y172369D01*
X62456Y172268D01*
X62456Y169658D01*
X62458Y169532D01*
X62464Y169406D01*
X62473Y169280D01*
X62486Y169155D01*
X62504Y169030D01*
X62524Y168905D01*
X62549Y168781D01*
X62577Y168658D01*
X62609Y168536D01*
X62645Y168415D01*
X62684Y168295D01*
X62727Y168177D01*
X62774Y168060D01*
X62824Y167944D01*
X62878Y167829D01*
X62934Y167717D01*
X62995Y167606D01*
X63058Y167497D01*
X63125Y167390D01*
X63195Y167285D01*
X63269Y167182D01*
X63345Y167082D01*
X63424Y166984D01*
X63506Y166888D01*
X63592Y166795D01*
X63679Y166704D01*
X63770Y166617D01*
X63863Y166531D01*
X63959Y166449D01*
X64057Y166370D01*
X64157Y166294D01*
X64260Y166220D01*
X64365Y166150D01*
X64472Y166083D01*
X64581Y166020D01*
X64692Y165959D01*
X64804Y165903D01*
X64919Y165849D01*
X65035Y165799D01*
X65152Y165752D01*
X65270Y165709D01*
X65390Y165670D01*
X65511Y165634D01*
X65633Y165602D01*
X65756Y165574D01*
X65880Y165549D01*
X66005Y165529D01*
X66130Y165511D01*
X66255Y165498D01*
X66381Y165489D01*
X66507Y165483D01*
X66633Y165481D01*
X170335Y428684D02*
X163690Y435329D01*
X165536Y437175D02*
X161844Y433483D01*
X155440Y427080D02*
X166516Y424864D01*
X162086Y420434D02*
X159870Y431510D01*
X154881Y422829D02*
X157835Y419875D01*
X154881Y422829D02*
X154808Y422899D01*
X154733Y422967D01*
X154654Y423031D01*
X154574Y423092D01*
X154491Y423150D01*
X154406Y423205D01*
X154319Y423257D01*
X154229Y423305D01*
X154138Y423349D01*
X154046Y423390D01*
X153952Y423428D01*
X153856Y423461D01*
X153760Y423491D01*
X153662Y423518D01*
X153563Y423540D01*
X153463Y423559D01*
X153363Y423573D01*
X153263Y423584D01*
X153162Y423591D01*
X153060Y423594D01*
X152959Y423593D01*
X152858Y423588D01*
X152757Y423579D01*
X152657Y423566D01*
X152557Y423550D01*
X152458Y423529D01*
X152359Y423505D01*
X152262Y423477D01*
X152166Y423445D01*
X152071Y423410D01*
X151978Y423370D01*
X151886Y423328D01*
X151796Y423281D01*
X151708Y423231D01*
X151621Y423178D01*
X151537Y423122D01*
X151456Y423062D01*
X151376Y422999D01*
X151299Y422933D01*
X151225Y422865D01*
X151153Y422793D01*
X151085Y422719D01*
X151019Y422642D01*
X150956Y422562D01*
X150896Y422481D01*
X150840Y422397D01*
X150787Y422310D01*
X150737Y422222D01*
X150690Y422132D01*
X150648Y422040D01*
X150608Y421947D01*
X150573Y421852D01*
X150541Y421756D01*
X150513Y421659D01*
X150489Y421560D01*
X150468Y421461D01*
X150452Y421361D01*
X150439Y421261D01*
X150430Y421160D01*
X150425Y421059D01*
X150424Y420958D01*
X150427Y420856D01*
X150434Y420755D01*
X150445Y420655D01*
X150459Y420555D01*
X150478Y420455D01*
X150500Y420356D01*
X150527Y420258D01*
X150557Y420162D01*
X150590Y420066D01*
X150628Y419972D01*
X150669Y419880D01*
X150713Y419789D01*
X150761Y419699D01*
X150813Y419612D01*
X150868Y419527D01*
X150926Y419444D01*
X150987Y419364D01*
X151051Y419285D01*
X151119Y419210D01*
X151189Y419137D01*
X151190Y419137D02*
X154143Y416184D01*
X154143Y416183D02*
X154216Y416113D01*
X154291Y416045D01*
X154370Y415981D01*
X154450Y415920D01*
X154533Y415862D01*
X154618Y415807D01*
X154705Y415755D01*
X154795Y415707D01*
X154886Y415663D01*
X154978Y415622D01*
X155072Y415584D01*
X155168Y415551D01*
X155264Y415521D01*
X155362Y415494D01*
X155461Y415472D01*
X155561Y415453D01*
X155661Y415439D01*
X155761Y415428D01*
X155862Y415421D01*
X155964Y415418D01*
X156065Y415419D01*
X156166Y415424D01*
X156267Y415433D01*
X156367Y415446D01*
X156467Y415462D01*
X156566Y415483D01*
X156665Y415507D01*
X156762Y415535D01*
X156858Y415567D01*
X156953Y415602D01*
X157046Y415642D01*
X157138Y415684D01*
X157228Y415731D01*
X157316Y415781D01*
X157403Y415834D01*
X157487Y415890D01*
X157568Y415950D01*
X157648Y416013D01*
X157725Y416079D01*
X157799Y416147D01*
X157871Y416219D01*
X157939Y416293D01*
X158005Y416370D01*
X158068Y416450D01*
X158128Y416531D01*
X158184Y416615D01*
X158237Y416702D01*
X158287Y416790D01*
X158334Y416880D01*
X158376Y416972D01*
X158416Y417065D01*
X158451Y417160D01*
X158483Y417256D01*
X158511Y417353D01*
X158535Y417452D01*
X158556Y417551D01*
X158572Y417651D01*
X158585Y417751D01*
X158594Y417852D01*
X158599Y417953D01*
X158600Y418054D01*
X158597Y418156D01*
X158590Y418257D01*
X158579Y418357D01*
X158565Y418457D01*
X158546Y418557D01*
X158524Y418656D01*
X158497Y418754D01*
X158467Y418850D01*
X158434Y418946D01*
X158396Y419040D01*
X158355Y419132D01*
X158311Y419223D01*
X158263Y419313D01*
X158211Y419400D01*
X158156Y419485D01*
X158098Y419568D01*
X158037Y419648D01*
X157973Y419727D01*
X157905Y419802D01*
X157835Y419875D01*
X165536Y411775D02*
X172181Y405130D01*
X165536Y411775D02*
X163690Y409929D01*
X163620Y409856D01*
X163552Y409781D01*
X163488Y409702D01*
X163427Y409622D01*
X163369Y409539D01*
X163314Y409454D01*
X163262Y409367D01*
X163214Y409277D01*
X163170Y409186D01*
X163129Y409094D01*
X163091Y409000D01*
X163058Y408904D01*
X163028Y408808D01*
X163001Y408710D01*
X162979Y408611D01*
X162960Y408511D01*
X162946Y408411D01*
X162935Y408311D01*
X162928Y408210D01*
X162925Y408108D01*
X162926Y408007D01*
X162931Y407906D01*
X162940Y407805D01*
X162953Y407705D01*
X162969Y407605D01*
X162990Y407506D01*
X163014Y407407D01*
X163042Y407310D01*
X163074Y407214D01*
X163109Y407119D01*
X163149Y407026D01*
X163191Y406934D01*
X163238Y406844D01*
X163288Y406756D01*
X163341Y406669D01*
X163397Y406585D01*
X163457Y406504D01*
X163520Y406424D01*
X163586Y406347D01*
X163654Y406273D01*
X163726Y406201D01*
X163800Y406133D01*
X163877Y406067D01*
X163957Y406004D01*
X164038Y405944D01*
X164122Y405888D01*
X164209Y405835D01*
X164297Y405785D01*
X164387Y405738D01*
X164479Y405696D01*
X164572Y405656D01*
X164667Y405621D01*
X164763Y405589D01*
X164860Y405561D01*
X164959Y405537D01*
X165058Y405516D01*
X165158Y405500D01*
X165258Y405487D01*
X165359Y405478D01*
X165460Y405473D01*
X165561Y405472D01*
X165663Y405475D01*
X165764Y405482D01*
X165864Y405493D01*
X165964Y405507D01*
X166064Y405526D01*
X166163Y405548D01*
X166261Y405575D01*
X166357Y405605D01*
X166453Y405638D01*
X166547Y405676D01*
X166639Y405717D01*
X166730Y405761D01*
X166820Y405809D01*
X166907Y405861D01*
X166992Y405916D01*
X167075Y405974D01*
X167155Y406035D01*
X167234Y406099D01*
X167309Y406167D01*
X167382Y406237D01*
X167382Y406238D02*
X169228Y408083D01*
X167013Y405868D02*
X168489Y401438D01*
X166125Y399074D02*
X155049Y401289D01*
X159480Y405719D02*
X161695Y394644D01*
X158737Y391686D02*
X152092Y398331D01*
X157999Y390948D02*
X159476Y392424D01*
X152830Y399070D02*
X151354Y397593D01*
X170911Y455930D02*
X164266Y462575D01*
X162420Y460729D01*
X162350Y460657D01*
X162284Y460583D01*
X162220Y460505D01*
X162160Y460426D01*
X162102Y460344D01*
X162048Y460260D01*
X161997Y460174D01*
X161949Y460086D01*
X161904Y459997D01*
X161863Y459905D01*
X161826Y459812D01*
X161792Y459718D01*
X161762Y459623D01*
X161736Y459527D01*
X161713Y459429D01*
X161694Y459331D01*
X161678Y459232D01*
X161667Y459133D01*
X161659Y459033D01*
X161655Y458933D01*
X161655Y458833D01*
X161659Y458733D01*
X161667Y458633D01*
X161678Y458534D01*
X161694Y458435D01*
X161713Y458337D01*
X161736Y458239D01*
X161762Y458143D01*
X161792Y458048D01*
X161826Y457954D01*
X161863Y457861D01*
X161904Y457769D01*
X161949Y457680D01*
X161997Y457592D01*
X162048Y457506D01*
X162102Y457422D01*
X162160Y457340D01*
X162220Y457261D01*
X162284Y457183D01*
X162350Y457109D01*
X162420Y457037D01*
X162420Y457038D02*
X165373Y454084D01*
X165445Y454014D01*
X165519Y453948D01*
X165597Y453884D01*
X165676Y453824D01*
X165758Y453766D01*
X165842Y453712D01*
X165928Y453661D01*
X166016Y453613D01*
X166105Y453568D01*
X166197Y453527D01*
X166290Y453490D01*
X166384Y453456D01*
X166479Y453426D01*
X166575Y453400D01*
X166673Y453377D01*
X166771Y453358D01*
X166870Y453342D01*
X166969Y453331D01*
X167069Y453323D01*
X167169Y453319D01*
X167269Y453319D01*
X167369Y453323D01*
X167469Y453331D01*
X167568Y453342D01*
X167667Y453358D01*
X167765Y453377D01*
X167863Y453400D01*
X167959Y453426D01*
X168054Y453456D01*
X168148Y453490D01*
X168241Y453527D01*
X168333Y453568D01*
X168422Y453613D01*
X168510Y453661D01*
X168596Y453712D01*
X168680Y453766D01*
X168762Y453824D01*
X168841Y453884D01*
X168919Y453948D01*
X168993Y454014D01*
X169065Y454084D01*
X170911Y455930D01*
X162815Y447834D02*
X156170Y454479D01*
X158016Y456325D02*
X154324Y452633D01*
X151725Y450034D02*
X158370Y443389D01*
X151725Y450034D02*
X149879Y448189D01*
X149809Y448116D01*
X149741Y448041D01*
X149677Y447962D01*
X149616Y447882D01*
X149558Y447799D01*
X149503Y447714D01*
X149451Y447627D01*
X149403Y447537D01*
X149359Y447446D01*
X149318Y447354D01*
X149280Y447260D01*
X149247Y447164D01*
X149217Y447068D01*
X149190Y446970D01*
X149168Y446871D01*
X149149Y446771D01*
X149135Y446671D01*
X149124Y446571D01*
X149117Y446470D01*
X149114Y446368D01*
X149115Y446267D01*
X149120Y446166D01*
X149129Y446065D01*
X149142Y445965D01*
X149158Y445865D01*
X149179Y445766D01*
X149203Y445667D01*
X149231Y445570D01*
X149263Y445474D01*
X149298Y445379D01*
X149338Y445286D01*
X149380Y445194D01*
X149427Y445104D01*
X149477Y445016D01*
X149530Y444929D01*
X149586Y444845D01*
X149646Y444764D01*
X149709Y444684D01*
X149775Y444607D01*
X149843Y444533D01*
X149915Y444461D01*
X149989Y444393D01*
X150066Y444327D01*
X150146Y444264D01*
X150227Y444204D01*
X150311Y444148D01*
X150398Y444095D01*
X150486Y444045D01*
X150576Y443998D01*
X150668Y443956D01*
X150761Y443916D01*
X150856Y443881D01*
X150952Y443849D01*
X151049Y443821D01*
X151148Y443797D01*
X151247Y443776D01*
X151347Y443760D01*
X151447Y443747D01*
X151548Y443738D01*
X151649Y443733D01*
X151750Y443732D01*
X151852Y443735D01*
X151953Y443742D01*
X152053Y443753D01*
X152153Y443767D01*
X152253Y443786D01*
X152352Y443808D01*
X152450Y443835D01*
X152546Y443865D01*
X152642Y443898D01*
X152736Y443936D01*
X152828Y443977D01*
X152919Y444021D01*
X153009Y444069D01*
X153096Y444121D01*
X153181Y444176D01*
X153264Y444234D01*
X153344Y444295D01*
X153423Y444359D01*
X153498Y444427D01*
X153571Y444497D01*
X155417Y446343D01*
X153202Y444127D02*
X154679Y439697D01*
X165905Y356708D02*
X164797Y355600D01*
X168489Y351908D01*
X170704Y354123D01*
X170704Y354124D02*
X170766Y354188D01*
X170824Y354254D01*
X170880Y354323D01*
X170933Y354394D01*
X170982Y354468D01*
X171029Y354543D01*
X171072Y354621D01*
X171112Y354700D01*
X171148Y354781D01*
X171182Y354863D01*
X171211Y354946D01*
X171237Y355031D01*
X171259Y355117D01*
X171278Y355204D01*
X171293Y355291D01*
X171304Y355379D01*
X171312Y355467D01*
X171316Y355556D01*
X171316Y355644D01*
X171312Y355733D01*
X171304Y355821D01*
X171293Y355909D01*
X171278Y355996D01*
X171259Y356083D01*
X171237Y356169D01*
X171211Y356254D01*
X171182Y356337D01*
X171148Y356419D01*
X171112Y356500D01*
X171072Y356579D01*
X171029Y356657D01*
X170982Y356732D01*
X170933Y356806D01*
X170880Y356877D01*
X170824Y356946D01*
X170766Y357012D01*
X170704Y357076D01*
X170704Y357077D02*
X167013Y360769D01*
X166947Y360832D01*
X166879Y360892D01*
X166808Y360949D01*
X166734Y361003D01*
X166658Y361054D01*
X166581Y361101D01*
X166501Y361145D01*
X166419Y361185D01*
X166335Y361222D01*
X166251Y361255D01*
X166164Y361284D01*
X166077Y361310D01*
X165988Y361331D01*
X165899Y361349D01*
X165809Y361363D01*
X165718Y361373D01*
X165627Y361379D01*
X165536Y361381D01*
X165445Y361379D01*
X165354Y361373D01*
X165263Y361363D01*
X165173Y361349D01*
X165084Y361331D01*
X164995Y361310D01*
X164908Y361284D01*
X164822Y361255D01*
X164737Y361222D01*
X164653Y361185D01*
X164571Y361145D01*
X164492Y361101D01*
X164414Y361054D01*
X164338Y361003D01*
X164264Y360949D01*
X164193Y360892D01*
X164125Y360832D01*
X164059Y360769D01*
X161844Y358553D01*
X158639Y355348D02*
X165284Y348703D01*
X161593Y345011D02*
X158639Y355348D01*
X154947Y351657D02*
X161593Y345011D01*
X158388Y341806D02*
X151742Y348452D01*
X149896Y346606D01*
X149826Y346534D01*
X149760Y346460D01*
X149696Y346382D01*
X149636Y346303D01*
X149578Y346221D01*
X149524Y346137D01*
X149473Y346051D01*
X149425Y345963D01*
X149380Y345874D01*
X149339Y345782D01*
X149302Y345689D01*
X149268Y345595D01*
X149238Y345500D01*
X149212Y345404D01*
X149189Y345306D01*
X149170Y345208D01*
X149154Y345109D01*
X149143Y345010D01*
X149135Y344910D01*
X149131Y344810D01*
X149131Y344710D01*
X149135Y344610D01*
X149143Y344510D01*
X149154Y344411D01*
X149170Y344312D01*
X149189Y344214D01*
X149212Y344116D01*
X149238Y344020D01*
X149268Y343925D01*
X149302Y343831D01*
X149339Y343738D01*
X149380Y343646D01*
X149425Y343557D01*
X149473Y343469D01*
X149524Y343383D01*
X149578Y343299D01*
X149636Y343217D01*
X149696Y343138D01*
X149760Y343060D01*
X149826Y342986D01*
X149896Y342914D01*
X152850Y339960D01*
X152922Y339890D01*
X152996Y339824D01*
X153074Y339760D01*
X153153Y339700D01*
X153235Y339642D01*
X153319Y339588D01*
X153405Y339537D01*
X153493Y339489D01*
X153582Y339444D01*
X153674Y339403D01*
X153767Y339366D01*
X153861Y339332D01*
X153956Y339302D01*
X154052Y339276D01*
X154150Y339253D01*
X154248Y339234D01*
X154347Y339218D01*
X154446Y339207D01*
X154546Y339199D01*
X154646Y339195D01*
X154746Y339195D01*
X154846Y339199D01*
X154946Y339207D01*
X155045Y339218D01*
X155144Y339234D01*
X155242Y339253D01*
X155340Y339276D01*
X155436Y339302D01*
X155531Y339332D01*
X155625Y339366D01*
X155718Y339403D01*
X155810Y339444D01*
X155899Y339489D01*
X155987Y339537D01*
X156073Y339588D01*
X156157Y339642D01*
X156239Y339700D01*
X156318Y339760D01*
X156396Y339824D01*
X156470Y339890D01*
X156542Y339960D01*
X158388Y341806D01*
M02*
